<svg width="168" height="114" viewBox="0 0 168 114" fill="none" xmlns="http://www.w3.org/2000/svg">
<path d="M4 5C4 2.23858 6.23858 0 9 0H30.814C33.5754 0 35.814 2.23858 35.814 5V109C35.814 111.761 33.5754 114 30.814 114H9C6.23857 114 4 111.761 4 109V5Z" fill="url(#paint0_linear_109_10)"/>
<rect x="131.256" width="31.814" height="114" rx="5" fill="url(#paint1_linear_109_10)"/>
<g filter="url(#filter0_d_109_10)">
<path d="M4 5C4 2.23857 6.23858 0 9 0H158.07C160.831 0 163.07 2.23858 163.07 5V60.9767H4V5Z" fill="url(#paint2_linear_109_10)"/>
</g>
<path d="M4 38.4419H163.07V60.9768H4V38.4419Z" fill="url(#paint3_linear_109_10)"/>
<ellipse cx="57.6861" cy="19.8837" rx="21.8721" ry="10.6047" fill="#EEEEEE"/>
<g filter="url(#filter1_i_109_10)">
<ellipse cx="57.6861" cy="19.8838" rx="13.9186" ry="6.62791" fill="#EEEEEE"/>
</g>
<path d="M19.907 15.5814C19.907 15.0291 20.3547 14.5814 20.907 14.5814H32.1628C32.7151 14.5814 33.1628 15.0291 33.1628 15.5814V23.5117C33.1628 25.1685 31.8197 26.5117 30.1628 26.5117H22.907C21.2501 26.5117 19.907 25.1685 19.907 23.5117V15.5814Z" fill="#EEEEEE"/>
<g filter="url(#filter2_i_109_10)">
<path d="M19.907 15.5756C19.907 15.0265 20.3521 14.5814 20.9012 14.5814H32.1686C32.7177 14.5814 33.1628 15.0265 33.1628 15.5756C33.1628 17.2228 31.8275 18.5582 30.1802 18.5582H22.8895C21.2423 18.5582 19.907 17.2228 19.907 15.5756Z" fill="#EEEEEE"/>
</g>
<defs>
<filter id="filter0_d_109_10" x="0" y="0" width="167.07" height="68.9768" filterUnits="userSpaceOnUse" color-interpolation-filters="sRGB">
<feFlood flood-opacity="0" result="BackgroundImageFix"/>
<feColorMatrix in="SourceAlpha" type="matrix" values="0 0 0 0 0 0 0 0 0 0 0 0 0 0 0 0 0 0 127 0" result="hardAlpha"/>
<feOffset dy="4"/>
<feGaussianBlur stdDeviation="2"/>
<feComposite in2="hardAlpha" operator="out"/>
<feColorMatrix type="matrix" values="0 0 0 0 0 0 0 0 0 0 0 0 0 0 0 0 0 0 0.1 0"/>
<feBlend mode="normal" in2="BackgroundImageFix" result="effect1_dropShadow_109_10"/>
<feBlend mode="normal" in="SourceGraphic" in2="effect1_dropShadow_109_10" result="shape"/>
</filter>
<filter id="filter1_i_109_10" x="43.7675" y="13.2559" width="27.8372" height="15.2559" filterUnits="userSpaceOnUse" color-interpolation-filters="sRGB">
<feFlood flood-opacity="0" result="BackgroundImageFix"/>
<feBlend mode="normal" in="SourceGraphic" in2="BackgroundImageFix" result="shape"/>
<feColorMatrix in="SourceAlpha" type="matrix" values="0 0 0 0 0 0 0 0 0 0 0 0 0 0 0 0 0 0 127 0" result="hardAlpha"/>
<feOffset dy="4"/>
<feGaussianBlur stdDeviation="1"/>
<feComposite in2="hardAlpha" operator="arithmetic" k2="-1" k3="1"/>
<feColorMatrix type="matrix" values="0 0 0 0 0 0 0 0 0 0 0 0 0 0 0 0 0 0 0.05 0"/>
<feBlend mode="normal" in2="shape" result="effect1_innerShadow_109_10"/>
</filter>
<filter id="filter2_i_109_10" x="19.907" y="14.5814" width="13.2558" height="5.97668" filterUnits="userSpaceOnUse" color-interpolation-filters="sRGB">
<feFlood flood-opacity="0" result="BackgroundImageFix"/>
<feBlend mode="normal" in="SourceGraphic" in2="BackgroundImageFix" result="shape"/>
<feColorMatrix in="SourceAlpha" type="matrix" values="0 0 0 0 0 0 0 0 0 0 0 0 0 0 0 0 0 0 127 0" result="hardAlpha"/>
<feOffset dy="4"/>
<feGaussianBlur stdDeviation="1"/>
<feComposite in2="hardAlpha" operator="arithmetic" k2="-1" k3="1"/>
<feColorMatrix type="matrix" values="0 0 0 0 0 0 0 0 0 0 0 0 0 0 0 0 0 0 0.05 0"/>
<feBlend mode="normal" in2="shape" result="effect1_innerShadow_109_10"/>
</filter>
<linearGradient id="paint0_linear_109_10" x1="19.907" y1="0" x2="19.907" y2="114" gradientUnits="userSpaceOnUse">
<stop stop-color="#A78B1B"/>
<stop offset="1" stop-color="#FEE78B"/>
</linearGradient>
<linearGradient id="paint1_linear_109_10" x1="147.163" y1="0" x2="147.163" y2="114" gradientUnits="userSpaceOnUse">
<stop stop-color="#A78B1B"/>
<stop offset="1" stop-color="#FEE78B"/>
</linearGradient>
<linearGradient id="paint2_linear_109_10" x1="83.5349" y1="0" x2="83.5349" y2="60.9767" gradientUnits="userSpaceOnUse">
<stop stop-color="#C1FF55"/>
<stop offset="1" stop-color="#C0EB75"/>
</linearGradient>
<linearGradient id="paint3_linear_109_10" x1="83.5349" y1="38.4419" x2="83.5349" y2="60.9768" gradientUnits="userSpaceOnUse">
<stop stop-color="#A9DC5B"/>
<stop offset="1" stop-color="#94D82D"/>
</linearGradient>
</defs>
</svg>
