<svg xmlns="http://www.w3.org/2000/svg" xmlns:xlink="http://www.w3.org/1999/xlink" width="40" zoomAndPan="magnify" viewBox="0 0 30 33.749998" height="45" preserveAspectRatio="xMidYMid meet" version="1.0"><defs><clipPath id="4757d24997"><path d="M 0.234375 0 L 29.890625 0 L 29.890625 19 L 0.234375 19 Z M 0.234375 0 " clip-rule="nonzero"/></clipPath><clipPath id="f672ffb7ed"><path d="M 7 17 L 23 17 L 23 32.757812 L 7 32.757812 Z M 7 17 " clip-rule="nonzero"/></clipPath></defs><g clip-path="url(#4757d24997)"><path fill="#55acee" d="M 24.429688 0.00390625 L 5.820312 0.00390625 C 3.066406 0.00390625 0.234375 4.554688 1.164062 6.371094 C 2.664062 9.304688 12.332031 18.199219 12.332031 18.199219 L 17.917969 18.199219 C 17.917969 18.199219 27.222656 9.101562 29.082031 6.371094 C 30.015625 4.554688 26.914062 0.00390625 24.429688 0.00390625 Z M 20.707031 7.28125 L 15.125 12.738281 L 9.542969 7.28125 C 9.046875 6.796875 8.757812 6.445312 8.710938 6.183594 C 8.578125 5.464844 10.34375 5.464844 15.125 5.464844 C 21.5625 5.464844 22.082031 5.804688 21.203125 6.777344 C 21.066406 6.929688 20.898438 7.097656 20.707031 7.28125 Z M 20.707031 7.28125 " fill-opacity="1" fill-rule="nonzero"/></g><path fill="#3b88c3" d="M 8.710938 6.183594 C 8.578125 5.464844 10.34375 5.464844 15.125 5.464844 C 21.5625 5.464844 22.082031 5.804688 21.203125 6.777344 C 26.167969 1.71875 24.613281 0.00390625 22.570312 0.00390625 L 7.679688 0.00390625 C 4.347656 0.00390625 6.738281 3.730469 8.710938 6.183594 Z M 8.710938 6.183594 " fill-opacity="1" fill-rule="nonzero"/><g clip-path="url(#f672ffb7ed)"><path fill="#ffac33" d="M 18.757812 19.125 C 18.8125 18.976562 18.847656 18.820312 18.847656 18.652344 C 18.847656 17.898438 18.222656 17.289062 17.453125 17.289062 L 12.796875 17.289062 C 12.027344 17.289062 11.402344 17.898438 11.402344 18.652344 C 11.402344 18.820312 11.4375 18.976562 11.492188 19.125 C 9.21875 20.371094 7.679688 22.746094 7.679688 25.476562 C 7.679688 29.492188 11.011719 32.753906 15.125 32.753906 C 19.234375 32.753906 22.570312 29.492188 22.570312 25.476562 C 22.570312 22.746094 21.03125 20.371094 18.757812 19.125 Z M 18.757812 19.125 " fill-opacity="1" fill-rule="nonzero"/></g><path fill="#9e5200" d="M 16.105469 20.882812 L 14.902344 20.882812 L 12.996094 22.335938 C 12.957031 22.375 12.917969 22.476562 12.917969 22.527344 L 12.917969 23.332031 C 12.917969 23.457031 13.023438 23.574219 13.152344 23.574219 L 14.40625 23.574219 L 14.40625 29.3125 C 14.40625 29.441406 14.511719 29.558594 14.65625 29.558594 L 16.105469 29.558594 C 16.234375 29.558594 16.339844 29.441406 16.339844 29.3125 L 16.339844 21.125 C 16.339844 20.996094 16.234375 20.882812 16.105469 20.882812 Z M 16.105469 20.882812 " fill-opacity="1" fill-rule="nonzero"/></svg>