<svg xmlns="http://www.w3.org/2000/svg" xmlns:xlink="http://www.w3.org/1999/xlink" width="33" zoomAndPan="magnify" viewBox="0 0 24.75 23.999999" height="32" preserveAspectRatio="xMidYMid meet" version="1.0"><defs><clipPath id="dc7a54aca6"><path d="M 0.515625 0.128906 L 24.503906 0.128906 L 24.503906 23.878906 L 0.515625 23.878906 Z M 0.515625 0.128906 " clip-rule="nonzero"/></clipPath><clipPath id="3355ab8a3b"><path d="M 7 14 L 19 14 L 19 23.878906 L 7 23.878906 Z M 7 14 " clip-rule="nonzero"/></clipPath><clipPath id="b823478f9c"><path d="M 20 6 L 24.503906 6 L 24.503906 19 L 20 19 Z M 20 6 " clip-rule="nonzero"/></clipPath><clipPath id="0c9f60d890"><path d="M 0.515625 0.128906 L 18 0.128906 L 18 18 L 0.515625 18 Z M 0.515625 0.128906 " clip-rule="nonzero"/></clipPath></defs><g clip-path="url(#dc7a54aca6)"><path fill="#f9da25" d="M 21.980469 12.140625 C 22.917969 11.984375 23.792969 11.648438 24.160156 10.691406 C 24.515625 9.769531 24.378906 8.648438 23.929688 7.785156 C 23.761719 7.46875 23.558594 7.195312 23.324219 6.957031 C 22.710938 6.339844 21.890625 6.003906 21.042969 5.957031 C 20.6875 5.933594 20.328125 5.964844 19.976562 6.046875 C 19.15625 6.238281 18.410156 6.628906 17.71875 7.117188 C 17.378906 7.355469 17.050781 7.617188 16.734375 7.890625 C 17.554688 6.945312 18.273438 5.90625 18.5625 4.699219 C 18.578125 4.632812 18.59375 4.566406 18.605469 4.5 C 18.609375 4.476562 18.613281 4.453125 18.617188 4.433594 C 18.625 4.386719 18.628906 4.339844 18.636719 4.296875 C 18.640625 4.269531 18.640625 4.242188 18.644531 4.21875 C 18.648438 4.175781 18.652344 4.132812 18.65625 4.089844 C 18.65625 4.0625 18.660156 4.035156 18.660156 4.011719 C 18.664062 3.964844 18.664062 3.921875 18.664062 3.878906 C 18.664062 3.863281 18.667969 3.84375 18.667969 3.828125 C 18.667969 3.816406 18.664062 3.808594 18.664062 3.796875 C 18.664062 3.777344 18.664062 3.757812 18.664062 3.738281 C 18.664062 3.699219 18.660156 3.664062 18.660156 3.625 C 18.660156 3.605469 18.65625 3.585938 18.65625 3.5625 C 18.652344 3.523438 18.648438 3.484375 18.644531 3.445312 C 18.644531 3.429688 18.640625 3.410156 18.640625 3.394531 C 18.632812 3.335938 18.625 3.28125 18.617188 3.222656 C 18.5 2.519531 18.179688 1.847656 17.65625 1.328125 C 17.425781 1.101562 17.160156 0.902344 16.855469 0.742188 C 16 0.289062 14.875 0.144531 13.957031 0.492188 C 13 0.851562 12.660156 1.726562 12.5 2.660156 C 12.347656 1.726562 12.011719 0.847656 11.058594 0.484375 C 10.140625 0.128906 9.019531 0.265625 8.160156 0.714844 C 6.667969 1.492188 6.074219 3.15625 6.425781 4.660156 C 6.683594 5.769531 7.304688 6.738281 8.03125 7.625 L 8.035156 7.625 C 7.152344 6.890625 6.191406 6.261719 5.082031 5.996094 C 3.582031 5.632812 1.914062 6.21875 1.132812 7.707031 C 0.675781 8.566406 0.535156 9.6875 0.878906 10.609375 C 1.238281 11.566406 2.113281 11.90625 3.046875 12.066406 C 2.113281 12.222656 1.238281 12.554688 0.871094 13.511719 C 0.519531 14.429688 0.65625 15.554688 1.105469 16.414062 C 1.273438 16.742188 1.492188 17.03125 1.738281 17.269531 C 2.246094 17.769531 2.890625 18.078125 3.570312 18.195312 L 3.582031 18.195312 L 3.589844 18.199219 C 3.644531 18.207031 3.695312 18.214844 3.746094 18.21875 C 3.757812 18.222656 3.769531 18.222656 3.78125 18.222656 C 3.828125 18.230469 3.871094 18.234375 3.917969 18.238281 C 3.9375 18.238281 3.957031 18.238281 3.976562 18.242188 C 4.027344 18.242188 4.074219 18.246094 4.125 18.246094 C 4.132812 18.246094 4.144531 18.246094 4.152344 18.246094 C 4.167969 18.246094 4.183594 18.246094 4.199219 18.246094 C 4.214844 18.246094 4.230469 18.246094 4.246094 18.246094 C 4.285156 18.246094 4.324219 18.246094 4.363281 18.242188 C 4.390625 18.242188 4.417969 18.242188 4.445312 18.238281 C 4.484375 18.234375 4.523438 18.234375 4.5625 18.230469 C 4.589844 18.226562 4.617188 18.222656 4.644531 18.21875 C 4.683594 18.214844 4.726562 18.210938 4.765625 18.203125 C 4.792969 18.199219 4.816406 18.195312 4.839844 18.191406 C 4.886719 18.183594 4.933594 18.171875 4.980469 18.164062 C 4.996094 18.160156 5.011719 18.15625 5.027344 18.152344 L 5.042969 18.152344 C 6.328125 17.847656 7.425781 17.0625 8.421875 16.179688 C 8.074219 16.570312 7.742188 16.976562 7.445312 17.402344 C 6.984375 18.066406 6.617188 18.777344 6.429688 19.558594 C 6.339844 19.929688 6.308594 20.308594 6.335938 20.683594 C 6.34375 20.800781 6.355469 20.917969 6.375 21.035156 C 6.492188 21.75 6.820312 22.425781 7.359375 22.949219 C 7.582031 23.167969 7.84375 23.359375 8.140625 23.515625 C 8.996094 23.96875 10.117188 24.113281 11.035156 23.765625 C 11.992188 23.40625 12.332031 22.53125 12.492188 21.597656 C 12.644531 22.535156 12.980469 23.410156 13.933594 23.773438 C 14.851562 24.128906 15.972656 23.992188 16.832031 23.542969 C 18.324219 22.769531 18.917969 21.101562 18.566406 19.597656 C 18.285156 18.390625 17.574219 17.347656 16.761719 16.398438 C 17.703125 17.214844 18.738281 17.925781 19.9375 18.214844 C 20.425781 18.332031 20.929688 18.351562 21.414062 18.269531 C 22.429688 18.101562 23.367188 17.511719 23.898438 16.503906 C 24.355469 15.644531 24.5 14.519531 24.152344 13.597656 C 23.792969 12.640625 22.914062 12.300781 21.980469 12.140625 " fill-opacity="1" fill-rule="nonzero"/></g><path fill="#fbf448" d="M 8.761719 18.257812 L 8.75 18.253906 C 8.734375 18.253906 8.714844 18.25 8.699219 18.25 C 8.6875 18.246094 8.671875 18.246094 8.660156 18.246094 C 8.648438 18.246094 8.632812 18.246094 8.621094 18.246094 C 8.609375 18.246094 8.601562 18.246094 8.589844 18.246094 C 8.574219 18.246094 8.558594 18.25 8.542969 18.25 C 8.535156 18.25 8.53125 18.253906 8.523438 18.253906 C 8.503906 18.257812 8.484375 18.261719 8.46875 18.265625 C 8.453125 18.269531 8.441406 18.269531 8.429688 18.273438 C 8.414062 18.28125 8.398438 18.285156 8.382812 18.289062 C 8.375 18.292969 8.367188 18.296875 8.359375 18.300781 C 8.339844 18.308594 8.320312 18.316406 8.304688 18.324219 C 8.296875 18.328125 8.289062 18.332031 8.28125 18.335938 C 8.265625 18.34375 8.253906 18.351562 8.238281 18.359375 C 8.214844 18.375 8.191406 18.390625 8.167969 18.40625 L 8.152344 18.417969 L 8.144531 18.425781 C 8.125 18.441406 8.105469 18.457031 8.085938 18.472656 L 8.070312 18.488281 C 8.0625 18.496094 8.054688 18.503906 8.046875 18.511719 C 8.03125 18.527344 8.015625 18.546875 8 18.5625 L 7.988281 18.574219 C 7.9375 18.632812 7.890625 18.695312 7.847656 18.765625 C 7.824219 18.800781 7.804688 18.835938 7.785156 18.875 L 7.78125 18.878906 C 7.726562 18.984375 7.679688 19.09375 7.644531 19.207031 C 7.644531 19.214844 7.640625 19.222656 7.640625 19.230469 C 7.621094 19.296875 7.601562 19.363281 7.589844 19.429688 L 8.761719 18.257812 " fill-opacity="1" fill-rule="nonzero"/><path fill="#fbf448" d="M 10.066406 16.949219 C 10.007812 16.886719 9.925781 16.847656 9.832031 16.832031 L 9.828125 16.828125 C 9.816406 16.828125 9.808594 16.828125 9.800781 16.824219 L 9.785156 16.824219 C 9.75 16.820312 9.714844 16.820312 9.675781 16.820312 C 9.558594 16.828125 9.445312 16.855469 9.339844 16.90625 C 9.234375 16.953125 9.136719 17.019531 9.054688 17.101562 C 9.011719 17.148438 8.976562 17.195312 8.949219 17.242188 L 8.941406 17.253906 C 8.890625 17.355469 8.871094 17.457031 8.882812 17.550781 L 8.882812 17.5625 C 8.890625 17.625 8.910156 17.679688 8.941406 17.734375 C 8.980469 17.800781 9.03125 17.859375 9.101562 17.90625 L 9.109375 17.910156 L 10.066406 16.949219 " fill-opacity="1" fill-rule="nonzero"/><path fill="#fbf448" d="M 20.542969 17.050781 C 21.171875 16.929688 21.492188 16.480469 21.492188 16.015625 C 21.492188 15.628906 21.273438 15.226562 20.824219 14.992188 C 20.503906 14.824219 20.144531 14.785156 19.808594 14.855469 C 19.644531 14.886719 19.488281 14.945312 19.34375 15.023438 C 19.101562 15.15625 18.886719 15.351562 18.738281 15.601562 C 18.628906 15.792969 18.601562 15.976562 18.636719 16.148438 C 18.6875 16.398438 18.867188 16.617188 19.117188 16.777344 C 19.125 16.785156 19.132812 16.789062 19.140625 16.796875 C 19.152344 16.800781 19.160156 16.804688 19.167969 16.808594 C 19.574219 17.054688 20.074219 17.144531 20.542969 17.050781 " fill-opacity="1" fill-rule="nonzero"/><path fill="#fbf448" d="M 18.296875 14.894531 C 18.199219 14.703125 18.023438 14.5625 17.820312 14.503906 C 17.734375 14.476562 17.648438 14.46875 17.558594 14.472656 C 17.296875 14.492188 17.183594 14.710938 17.195312 14.960938 C 17.199219 14.980469 17.199219 15.003906 17.203125 15.023438 C 17.222656 15.175781 17.277344 15.324219 17.363281 15.449219 C 17.398438 15.496094 17.4375 15.542969 17.480469 15.585938 C 17.503906 15.609375 17.53125 15.628906 17.554688 15.648438 C 17.714844 15.765625 17.886719 15.785156 18.03125 15.734375 C 18.25 15.660156 18.40625 15.429688 18.371094 15.128906 C 18.359375 15.046875 18.332031 14.964844 18.296875 14.894531 " fill-opacity="1" fill-rule="nonzero"/><g clip-path="url(#3355ab8a3b)"><path fill="#f4a00f" d="M 16.761719 16.398438 L 16.757812 16.394531 C 16.554688 16.21875 16.355469 16.035156 16.15625 15.855469 C 16.101562 15.785156 16.042969 15.710938 15.984375 15.640625 C 15.933594 15.578125 15.878906 15.511719 15.828125 15.449219 C 15.796875 15.40625 15.761719 15.367188 15.730469 15.324219 C 15.683594 15.265625 15.636719 15.203125 15.589844 15.144531 C 15.5625 15.109375 15.535156 15.074219 15.507812 15.039062 L 15.507812 15.035156 C 15.472656 14.992188 15.433594 14.941406 15.398438 14.894531 L 15.386719 14.910156 L 14.878906 15.417969 C 15.070312 15.597656 15.257812 15.789062 15.441406 15.980469 C 15.46875 16.011719 15.496094 16.042969 15.523438 16.074219 C 15.570312 16.121094 15.617188 16.171875 15.660156 16.222656 C 15.691406 16.261719 15.726562 16.300781 15.761719 16.339844 C 15.78125 16.363281 15.800781 16.386719 15.820312 16.414062 C 15.867188 16.46875 15.914062 16.523438 15.960938 16.582031 C 16.917969 17.78125 18.183594 20.082031 17.167969 21.59375 C 16.464844 22.636719 14.742188 22.550781 13.757812 22.015625 C 13 21.605469 12.5 20.726562 12.375 19.871094 C 12.050781 21.269531 11.523438 21.863281 10.636719 22.351562 C 10.214844 22.582031 9.734375 22.683594 9.246094 22.683594 C 9.207031 22.683594 9.171875 22.683594 9.136719 22.683594 C 8.996094 22.679688 8.855469 22.664062 8.714844 22.644531 C 8.6875 22.640625 8.660156 22.636719 8.628906 22.632812 C 8.601562 22.628906 8.574219 22.625 8.542969 22.617188 C 8.515625 22.613281 8.484375 22.605469 8.457031 22.601562 C 8.339844 22.578125 8.226562 22.546875 8.117188 22.515625 C 8.0625 22.496094 8.007812 22.480469 7.953125 22.460938 C 7.925781 22.453125 7.898438 22.441406 7.875 22.433594 L 7.871094 22.433594 L 7.359375 22.949219 C 7.582031 23.167969 7.84375 23.359375 8.140625 23.515625 C 8.996094 23.96875 10.117188 24.113281 11.035156 23.765625 C 11.992188 23.40625 12.332031 22.53125 12.492188 21.597656 C 12.644531 22.535156 12.980469 23.410156 13.933594 23.773438 C 14.851562 24.128906 15.972656 23.992188 16.832031 23.542969 C 18.324219 22.769531 18.917969 21.101562 18.566406 19.597656 C 18.285156 18.390625 17.574219 17.347656 16.761719 16.398438 " fill-opacity="1" fill-rule="nonzero"/></g><g clip-path="url(#b823478f9c)"><path fill="#f4a00f" d="M 21.980469 12.140625 C 22.917969 11.984375 23.792969 11.648438 24.160156 10.691406 C 24.515625 9.769531 24.378906 8.648438 23.929688 7.785156 C 23.761719 7.46875 23.558594 7.195312 23.324219 6.957031 L 22.40625 7.878906 C 22.4375 7.925781 22.46875 7.976562 22.5 8.03125 C 22.511719 8.054688 22.523438 8.078125 22.535156 8.101562 C 22.550781 8.125 22.5625 8.152344 22.574219 8.179688 C 22.585938 8.207031 22.601562 8.242188 22.613281 8.269531 C 22.632812 8.320312 22.648438 8.367188 22.664062 8.417969 C 22.667969 8.429688 22.671875 8.4375 22.671875 8.449219 C 22.683594 8.480469 22.691406 8.511719 22.699219 8.542969 C 22.707031 8.566406 22.710938 8.59375 22.71875 8.617188 C 22.726562 8.648438 22.730469 8.679688 22.738281 8.710938 C 22.742188 8.738281 22.746094 8.769531 22.753906 8.800781 C 22.761719 8.863281 22.769531 8.925781 22.773438 8.984375 C 22.777344 9.011719 22.78125 9.039062 22.78125 9.066406 C 22.78125 9.074219 22.78125 9.082031 22.78125 9.089844 C 22.785156 9.117188 22.785156 9.144531 22.785156 9.171875 C 22.804688 9.78125 22.652344 10.40625 22.398438 10.867188 C 21.984375 11.628906 21.105469 12.132812 20.25 12.253906 C 21.652344 12.582031 22.242188 13.109375 22.734375 14 C 23.253906 14.9375 23.113281 16.191406 22.675781 17.109375 C 22.421875 17.632812 21.953125 18.058594 21.414062 18.269531 C 22.429688 18.101562 23.367188 17.511719 23.898438 16.503906 C 24.355469 15.644531 24.5 14.519531 24.152344 13.597656 C 23.792969 12.640625 22.914062 12.300781 21.980469 12.140625 " fill-opacity="1" fill-rule="nonzero"/></g><path fill="#f4a00f" d="M 19.976562 6.046875 C 19.15625 6.238281 18.410156 6.628906 17.71875 7.117188 L 12.605469 12.238281 L 12.601562 12.238281 L 10.046875 14.796875 C 10.222656 14.667969 10.402344 14.539062 10.585938 14.414062 C 10.640625 14.375 10.699219 14.335938 10.757812 14.296875 C 10.765625 14.292969 10.773438 14.285156 10.78125 14.28125 C 10.839844 14.242188 10.898438 14.203125 10.960938 14.164062 C 11.019531 14.125 11.078125 14.085938 11.136719 14.046875 C 11.148438 14.042969 11.164062 14.03125 11.175781 14.023438 C 11.230469 13.988281 11.285156 13.957031 11.339844 13.921875 C 11.46875 13.84375 11.597656 13.765625 11.730469 13.691406 C 11.90625 13.589844 12.089844 13.488281 12.296875 13.488281 C 12.574219 13.488281 12.816406 13.671875 13.035156 13.847656 C 13.058594 13.867188 13.082031 13.882812 13.105469 13.90625 L 13.664062 13.347656 L 14.078125 12.929688 C 14.074219 12.921875 14.066406 12.910156 14.0625 12.902344 C 13.960938 12.726562 13.859375 12.539062 13.859375 12.335938 C 13.859375 12.054688 14.042969 11.8125 14.21875 11.59375 C 15.054688 10.546875 15.910156 9.5 16.957031 8.660156 C 17.042969 8.589844 17.136719 8.519531 17.238281 8.445312 C 17.261719 8.429688 17.289062 8.410156 17.316406 8.390625 C 17.363281 8.355469 17.417969 8.320312 17.46875 8.28125 C 17.496094 8.265625 17.519531 8.246094 17.550781 8.226562 C 17.648438 8.160156 17.753906 8.09375 17.859375 8.027344 C 17.910156 8 17.957031 7.96875 18.003906 7.941406 C 18.101562 7.882812 18.203125 7.828125 18.300781 7.773438 C 18.351562 7.746094 18.402344 7.71875 18.453125 7.695312 C 18.496094 7.671875 18.539062 7.652344 18.582031 7.632812 C 18.703125 7.574219 18.824219 7.515625 18.949219 7.464844 C 18.972656 7.457031 18.996094 7.445312 19.023438 7.4375 C 19.089844 7.40625 19.15625 7.382812 19.226562 7.359375 C 19.257812 7.347656 19.285156 7.335938 19.316406 7.324219 C 19.355469 7.3125 19.394531 7.296875 19.433594 7.285156 C 19.484375 7.269531 19.53125 7.257812 19.578125 7.242188 C 19.625 7.226562 19.671875 7.214844 19.722656 7.203125 C 19.753906 7.195312 19.789062 7.1875 19.824219 7.179688 L 21.042969 5.957031 C 20.6875 5.933594 20.328125 5.964844 19.976562 6.046875 " fill-opacity="1" fill-rule="nonzero"/><g clip-path="url(#0c9f60d890)"><path fill="#f4a00f" d="M 2.636719 10.796875 C 2.109375 9.804688 2.035156 8.082031 3.082031 7.386719 C 4.597656 6.378906 6.886719 7.65625 8.078125 8.625 C 8.5 8.96875 8.890625 9.34375 9.257812 9.742188 L 9.628906 9.367188 L 10.136719 8.859375 C 10.109375 8.839844 10.089844 8.816406 10.066406 8.796875 C 10.042969 8.773438 10.019531 8.753906 10 8.730469 C 9.953125 8.6875 9.910156 8.644531 9.867188 8.601562 C 9.820312 8.554688 9.777344 8.511719 9.734375 8.46875 C 9.703125 8.433594 9.667969 8.398438 9.636719 8.363281 C 9.613281 8.339844 9.589844 8.316406 9.566406 8.289062 C 9.535156 8.257812 9.507812 8.226562 9.476562 8.195312 C 9.386719 8.097656 9.300781 8 9.214844 7.898438 C 9.195312 7.875 9.179688 7.855469 9.160156 7.835938 C 9.117188 7.78125 9.074219 7.730469 9.03125 7.675781 C 8.074219 6.480469 6.808594 4.179688 7.828125 2.667969 C 8.53125 1.621094 10.25 1.707031 11.234375 2.242188 C 11.992188 2.652344 12.496094 3.53125 12.617188 4.386719 C 12.945312 2.988281 13.46875 2.398438 14.355469 1.90625 C 14.824219 1.648438 15.367188 1.554688 15.910156 1.578125 C 15.949219 1.578125 15.988281 1.582031 16.027344 1.585938 C 16.054688 1.585938 16.082031 1.589844 16.109375 1.59375 C 16.167969 1.597656 16.230469 1.605469 16.289062 1.613281 C 16.320312 1.617188 16.347656 1.625 16.378906 1.628906 C 16.417969 1.632812 16.457031 1.640625 16.496094 1.648438 C 16.515625 1.652344 16.535156 1.65625 16.554688 1.660156 C 16.613281 1.671875 16.671875 1.6875 16.730469 1.703125 C 16.757812 1.710938 16.785156 1.71875 16.816406 1.726562 C 16.84375 1.734375 16.871094 1.742188 16.898438 1.75 C 16.929688 1.757812 16.957031 1.769531 16.980469 1.777344 L 17 1.78125 C 17.019531 1.789062 17.042969 1.796875 17.0625 1.804688 C 17.089844 1.8125 17.121094 1.824219 17.148438 1.835938 L 17.65625 1.328125 C 17.425781 1.101562 17.160156 0.902344 16.855469 0.742188 C 16 0.289062 14.875 0.144531 13.957031 0.492188 C 13 0.851562 12.660156 1.726562 12.5 2.660156 C 12.347656 1.726562 12.011719 0.847656 11.058594 0.484375 C 10.140625 0.128906 9.019531 0.265625 8.160156 0.714844 C 6.667969 1.492188 6.074219 3.15625 6.425781 4.660156 C 6.683594 5.769531 7.304688 6.738281 8.03125 7.625 L 8.035156 7.625 C 7.152344 6.890625 6.191406 6.261719 5.082031 5.996094 C 3.582031 5.632812 1.914062 6.21875 1.132812 7.707031 C 0.675781 8.566406 0.535156 9.6875 0.878906 10.609375 C 1.238281 11.566406 2.113281 11.90625 3.046875 12.066406 C 2.113281 12.222656 1.238281 12.554688 0.871094 13.511719 C 0.519531 14.429688 0.65625 15.554688 1.105469 16.414062 C 1.273438 16.742188 1.492188 17.03125 1.738281 17.269531 L 2.21875 16.789062 C 1.871094 15.898438 1.800781 14.773438 2.28125 13.917969 C 2.777344 13.03125 3.371094 12.511719 4.769531 12.191406 C 3.917969 12.066406 3.042969 11.558594 2.636719 10.796875 " fill-opacity="1" fill-rule="nonzero"/></g><path fill="#ffffff" d="M 10.144531 3.109375 C 10.144531 3.109375 10.066406 4.378906 9.828125 4.613281 C 9.59375 4.847656 8.324219 4.914062 8.324219 4.914062 C 8.324219 4.914062 9.652344 4.945312 9.875 5.171875 C 10.097656 5.394531 10.039062 6.644531 10.039062 6.644531 C 10.039062 6.644531 10.117188 5.378906 10.355469 5.144531 C 10.589844 4.910156 11.859375 4.84375 11.859375 4.84375 C 11.859375 4.84375 10.59375 4.828125 10.371094 4.601562 C 10.148438 4.375 10.144531 3.109375 10.144531 3.109375 " fill-opacity="1" fill-rule="nonzero"/><path fill="#ffffff" d="M 8.441406 3.503906 C 8.539062 3.402344 9.074219 3.375 9.074219 3.375 C 9.074219 3.375 8.542969 3.371094 8.449219 3.273438 C 8.355469 3.179688 8.351562 2.648438 8.351562 2.648438 C 8.351562 2.648438 8.320312 3.179688 8.21875 3.28125 C 8.121094 3.378906 7.589844 3.40625 7.589844 3.40625 C 7.589844 3.40625 8.144531 3.417969 8.242188 3.515625 C 8.332031 3.609375 8.308594 4.132812 8.308594 4.132812 C 8.308594 4.132812 8.339844 3.601562 8.441406 3.503906 " fill-opacity="1" fill-rule="nonzero"/><path fill="#ffffff" d="M 15.347656 7.433594 C 15.453125 7.425781 15.554688 7.398438 15.652344 7.355469 C 15.554688 7.398438 15.453125 7.425781 15.347656 7.433594 " fill-opacity="1" fill-rule="nonzero"/><path fill="#ffffff" d="M 15.957031 5.894531 C 15.253906 5.480469 14.964844 4.546875 15.347656 3.816406 C 15.421875 3.679688 15.507812 3.5625 15.605469 3.46875 C 15.507812 3.5625 15.417969 3.679688 15.347656 3.816406 C 14.964844 4.542969 15.253906 5.480469 15.957031 5.894531 C 16.035156 5.941406 16.113281 5.972656 16.191406 5.992188 C 16.113281 5.972656 16.035156 5.941406 15.957031 5.894531 " fill-opacity="1" fill-rule="nonzero"/><path fill="#ffffff" d="M 17.402344 4.09375 C 17.28125 3.464844 16.832031 3.148438 16.367188 3.148438 C 16.347656 3.148438 16.328125 3.148438 16.308594 3.148438 C 16.328125 3.148438 16.347656 3.148438 16.367188 3.148438 C 16.832031 3.148438 17.28125 3.46875 17.402344 4.09375 C 17.472656 4.453125 17.433594 4.835938 17.300781 5.179688 C 17.4375 4.835938 17.472656 4.453125 17.402344 4.09375 " fill-opacity="1" fill-rule="nonzero"/><path fill="#ffffff" d="M 15.324219 6.304688 C 15.015625 6.421875 14.804688 6.742188 14.832031 7.078125 L 14.832031 7.089844 L 14.832031 7.078125 C 14.804688 6.742188 15.015625 6.421875 15.324219 6.304688 " fill-opacity="1" fill-rule="nonzero"/><path fill="#ffffff" d="M 11.863281 12.757812 L 11.867188 12.757812 L 11.867188 12.753906 Z M 11.863281 12.757812 " fill-opacity="1" fill-rule="nonzero"/><path fill="#fce95a" d="M 17.300781 5.179688 C 17.261719 5.289062 17.207031 5.394531 17.144531 5.492188 C 16.953125 5.804688 16.671875 6.015625 16.359375 6.015625 C 16.304688 6.015625 16.25 6.007812 16.191406 5.992188 C 16.113281 5.976562 16.035156 5.941406 15.957031 5.894531 C 15.253906 5.480469 14.964844 4.542969 15.347656 3.816406 C 15.417969 3.679688 15.507812 3.5625 15.605469 3.46875 C 15.808594 3.269531 16.058594 3.164062 16.308594 3.148438 C 16.328125 3.148438 16.347656 3.148438 16.367188 3.148438 C 16.832031 3.148438 17.28125 3.46875 17.402344 4.09375 C 17.472656 4.453125 17.433594 4.835938 17.300781 5.179688 Z M 15.9375 7.15625 C 15.855469 7.238281 15.757812 7.308594 15.652344 7.355469 C 15.554688 7.398438 15.453125 7.425781 15.347656 7.433594 C 15.335938 7.4375 15.324219 7.4375 15.316406 7.4375 C 15.300781 7.4375 15.289062 7.4375 15.277344 7.4375 C 15.046875 7.4375 14.855469 7.328125 14.832031 7.089844 L 14.828125 7.078125 C 14.804688 6.742188 15.015625 6.421875 15.324219 6.304688 C 15.375 6.285156 15.429688 6.273438 15.484375 6.265625 C 15.515625 6.261719 15.542969 6.261719 15.570312 6.261719 C 16.046875 6.261719 16.308594 6.773438 15.9375 7.15625 Z M 17.457031 1.96875 C 17.402344 1.941406 17.347656 1.914062 17.289062 1.890625 C 17.265625 1.882812 17.246094 1.875 17.222656 1.863281 C 17.199219 1.855469 17.171875 1.84375 17.148438 1.835938 L 10.132812 8.859375 C 10.210938 8.9375 10.292969 9.007812 10.375 9.082031 C 10.40625 9.113281 10.441406 9.144531 10.476562 9.171875 C 10.507812 9.203125 10.542969 9.234375 10.578125 9.265625 C 10.601562 9.285156 10.628906 9.308594 10.652344 9.332031 C 10.75 9.417969 10.84375 9.5 10.941406 9.578125 C 11.019531 9.648438 11.097656 9.710938 11.179688 9.777344 C 11.242188 9.832031 11.308594 9.886719 11.371094 9.9375 C 11.46875 10.015625 11.566406 10.097656 11.664062 10.175781 C 11.761719 10.253906 11.859375 10.332031 11.957031 10.410156 C 12.171875 10.585938 12.414062 10.769531 12.691406 10.769531 L 12.695312 10.769531 C 12.902344 10.769531 13.085938 10.667969 13.261719 10.566406 C 13.445312 10.460938 13.628906 10.351562 13.808594 10.238281 C 13.855469 10.210938 13.902344 10.179688 13.949219 10.148438 C 14.089844 10.058594 14.226562 9.96875 14.363281 9.871094 C 14.378906 9.863281 14.394531 9.851562 14.40625 9.84375 C 14.664062 9.667969 14.917969 9.484375 15.164062 9.296875 C 15.25 9.234375 15.335938 9.167969 15.421875 9.101562 L 15.425781 9.097656 C 15.613281 8.917969 15.800781 8.738281 15.992188 8.5625 C 16.234375 8.335938 16.480469 8.109375 16.734375 7.890625 C 17.554688 6.945312 18.273438 5.90625 18.5625 4.699219 C 18.578125 4.632812 18.59375 4.566406 18.605469 4.5 C 18.609375 4.476562 18.613281 4.453125 18.617188 4.433594 C 18.621094 4.386719 18.628906 4.339844 18.636719 4.296875 C 18.640625 4.269531 18.640625 4.242188 18.644531 4.21875 C 18.648438 4.175781 18.652344 4.132812 18.65625 4.089844 C 18.65625 4.0625 18.660156 4.035156 18.660156 4.011719 C 18.664062 3.964844 18.664062 3.921875 18.664062 3.878906 C 18.664062 3.863281 18.664062 3.84375 18.664062 3.828125 C 18.664062 3.820312 18.664062 3.808594 18.664062 3.796875 C 18.664062 3.777344 18.664062 3.757812 18.664062 3.738281 C 18.664062 3.699219 18.660156 3.664062 18.660156 3.625 C 18.660156 3.605469 18.65625 3.585938 18.65625 3.5625 C 18.652344 3.523438 18.648438 3.484375 18.644531 3.445312 C 18.644531 3.429688 18.640625 3.410156 18.640625 3.394531 C 18.632812 3.335938 18.625 3.28125 18.617188 3.222656 C 18.40625 2.6875 17.980469 2.21875 17.457031 1.96875 " fill-opacity="1" fill-rule="nonzero"/><path fill="#fdf887" d="M 17.402344 4.09375 C 17.28125 3.46875 16.832031 3.148438 16.367188 3.148438 C 16.347656 3.148438 16.328125 3.148438 16.308594 3.148438 C 16.058594 3.164062 15.808594 3.269531 15.605469 3.46875 C 15.507812 3.5625 15.421875 3.679688 15.347656 3.816406 C 14.964844 4.542969 15.253906 5.480469 15.957031 5.894531 C 16.035156 5.941406 16.113281 5.972656 16.191406 5.992188 C 16.25 6.007812 16.304688 6.015625 16.359375 6.015625 C 16.671875 6.015625 16.953125 5.804688 17.144531 5.492188 C 17.207031 5.394531 17.261719 5.289062 17.300781 5.179688 C 17.433594 4.835938 17.472656 4.453125 17.402344 4.09375 " fill-opacity="1" fill-rule="nonzero"/><path fill="#fdf887" d="M 15.570312 6.261719 C 15.542969 6.261719 15.515625 6.261719 15.484375 6.265625 C 15.429688 6.273438 15.375 6.285156 15.324219 6.304688 C 15.015625 6.421875 14.804688 6.742188 14.832031 7.078125 L 14.832031 7.089844 C 14.855469 7.328125 15.050781 7.4375 15.277344 7.4375 C 15.289062 7.4375 15.300781 7.4375 15.316406 7.4375 C 15.324219 7.4375 15.335938 7.4375 15.347656 7.433594 C 15.453125 7.425781 15.554688 7.398438 15.652344 7.355469 C 15.757812 7.308594 15.855469 7.238281 15.9375 7.15625 C 16.308594 6.773438 16.046875 6.261719 15.570312 6.261719 " fill-opacity="1" fill-rule="nonzero"/><path fill="#fce95a" d="M 9.339844 15.335938 L 9.335938 15.339844 C 9.230469 15.441406 9.125 15.539062 9.015625 15.640625 C 8.953125 15.699219 8.894531 15.757812 8.828125 15.816406 C 8.695312 15.9375 8.558594 16.058594 8.421875 16.179688 C 8.074219 16.570312 7.742188 16.976562 7.445312 17.402344 L 10.046875 14.796875 C 9.808594 14.972656 9.570312 15.152344 9.339844 15.335938 " fill-opacity="1" fill-rule="nonzero"/><path fill="#ffffff" d="M 7.382812 14.425781 C 7.402344 14.425781 7.421875 14.425781 7.441406 14.425781 C 7.628906 14.441406 7.738281 14.558594 7.78125 14.71875 C 7.738281 14.558594 7.628906 14.441406 7.441406 14.425781 C 7.421875 14.425781 7.402344 14.425781 7.382812 14.425781 C 7.234375 14.425781 7.089844 14.46875 6.96875 14.546875 C 7.089844 14.46875 7.234375 14.425781 7.382812 14.425781 " fill-opacity="1" fill-rule="nonzero"/><path fill="#ffffff" d="M 4.871094 14.757812 C 5.179688 14.757812 5.488281 14.851562 5.746094 15.019531 C 5.488281 14.851562 5.179688 14.757812 4.871094 14.757812 C 4.660156 14.757812 4.449219 14.800781 4.25 14.890625 C 4.449219 14.800781 4.660156 14.757812 4.871094 14.757812 " fill-opacity="1" fill-rule="nonzero"/><path fill="#ffffff" d="M 9.273438 15.269531 L 9.277344 15.265625 L 9.269531 15.269531 L 9.269531 15.273438 L 9.273438 15.269531 " fill-opacity="1" fill-rule="nonzero"/><path fill="#ffffff" d="M 7.511719 15.535156 C 7.386719 15.65625 7.25 15.710938 7.117188 15.710938 C 7.042969 15.710938 6.96875 15.691406 6.902344 15.660156 C 6.96875 15.691406 7.042969 15.710938 7.117188 15.710938 C 7.25 15.710938 7.386719 15.65625 7.511719 15.535156 C 7.550781 15.5 7.585938 15.457031 7.617188 15.414062 C 7.585938 15.457031 7.550781 15.5 7.511719 15.535156 " fill-opacity="1" fill-rule="nonzero"/><path fill="#fce95a" d="M 8.996094 15.609375 C 8.941406 15.679688 8.882812 15.746094 8.828125 15.816406 C 8.882812 15.746094 8.941406 15.679688 8.996094 15.609375 " fill-opacity="1" fill-rule="nonzero"/><path fill="#ffffff" d="M 5.847656 16.734375 C 5.648438 16.855469 5.433594 16.9375 5.207031 16.984375 C 5.433594 16.9375 5.652344 16.855469 5.84375 16.734375 C 5.910156 16.695312 5.972656 16.652344 6.027344 16.605469 C 5.972656 16.652344 5.910156 16.695312 5.847656 16.734375 " fill-opacity="1" fill-rule="nonzero"/><path fill="#ffffff" d="M 3.589844 18.199219 C 3.644531 18.207031 3.695312 18.214844 3.746094 18.21875 C 3.757812 18.222656 3.769531 18.222656 3.78125 18.222656 C 3.828125 18.230469 3.871094 18.234375 3.917969 18.238281 C 3.9375 18.238281 3.957031 18.238281 3.976562 18.242188 C 4.015625 18.242188 4.050781 18.246094 4.089844 18.246094 C 4.109375 18.246094 4.132812 18.246094 4.152344 18.246094 C 4.167969 18.246094 4.183594 18.246094 4.199219 18.246094 C 3.996094 18.246094 3.789062 18.230469 3.589844 18.199219 " fill-opacity="1" fill-rule="nonzero"/><path fill="#fce95a" d="M 7.617188 15.414062 C 7.585938 15.457031 7.550781 15.5 7.511719 15.535156 C 7.386719 15.65625 7.25 15.710938 7.117188 15.710938 C 7.042969 15.710938 6.96875 15.691406 6.902344 15.660156 L 6.902344 15.65625 C 6.71875 15.5625 6.589844 15.347656 6.628906 15.078125 C 6.65625 14.855469 6.789062 14.664062 6.96875 14.546875 C 7.089844 14.46875 7.234375 14.425781 7.382812 14.425781 C 7.402344 14.425781 7.421875 14.425781 7.441406 14.425781 C 7.628906 14.441406 7.738281 14.558594 7.78125 14.71875 C 7.796875 14.777344 7.800781 14.847656 7.796875 14.914062 C 7.789062 15.09375 7.722656 15.269531 7.617188 15.414062 Z M 6.027344 16.605469 C 5.972656 16.652344 5.910156 16.695312 5.84375 16.734375 C 5.652344 16.855469 5.433594 16.9375 5.207031 16.984375 C 5.082031 17.007812 4.953125 17.019531 4.824219 17.019531 C 4.699219 17.019531 4.570312 17.007812 4.445312 16.984375 C 3.304688 16.753906 3.191406 15.4375 4.179688 14.925781 C 4.203125 14.914062 4.226562 14.902344 4.25 14.890625 C 4.449219 14.800781 4.660156 14.757812 4.871094 14.757812 C 5.179688 14.757812 5.488281 14.851562 5.746094 15.019531 C 5.953125 15.152344 6.128906 15.328125 6.253906 15.546875 C 6.488281 15.949219 6.347656 16.332031 6.027344 16.605469 Z M 8.996094 15.609375 C 9.089844 15.496094 9.179688 15.386719 9.269531 15.273438 L 9.269531 15.269531 L 9.277344 15.265625 C 9.882812 14.503906 10.449219 13.71875 10.9375 12.878906 C 11.039062 12.707031 11.140625 12.519531 11.144531 12.316406 L 11.144531 12.308594 C 11.144531 12.03125 10.960938 11.789062 10.789062 11.570312 C 10.296875 10.949219 9.800781 10.324219 9.257812 9.742188 L 2.21875 16.789062 C 2.25 16.867188 2.285156 16.949219 2.324219 17.027344 C 2.570312 17.550781 3.035156 17.980469 3.570312 18.195312 L 3.582031 18.195312 L 3.589844 18.199219 C 3.789062 18.230469 3.996094 18.246094 4.199219 18.246094 C 4.214844 18.246094 4.230469 18.246094 4.246094 18.246094 C 4.285156 18.246094 4.324219 18.246094 4.363281 18.242188 C 4.390625 18.242188 4.417969 18.242188 4.445312 18.238281 C 4.484375 18.234375 4.523438 18.234375 4.5625 18.230469 C 4.589844 18.226562 4.617188 18.222656 4.644531 18.21875 C 4.683594 18.214844 4.726562 18.210938 4.765625 18.203125 C 4.792969 18.199219 4.816406 18.195312 4.839844 18.191406 C 4.886719 18.183594 4.933594 18.171875 4.980469 18.164062 C 4.996094 18.160156 5.011719 18.15625 5.027344 18.152344 L 5.042969 18.152344 C 6.328125 17.847656 7.425781 17.0625 8.421875 16.179688 C 8.558594 16.058594 8.695312 15.9375 8.828125 15.816406 C 8.882812 15.746094 8.941406 15.679688 8.996094 15.609375 " fill-opacity="1" fill-rule="nonzero"/><path fill="#fdf887" d="M 6.253906 15.546875 C 6.128906 15.328125 5.953125 15.152344 5.746094 15.019531 C 5.488281 14.851562 5.179688 14.757812 4.871094 14.757812 C 4.660156 14.757812 4.449219 14.800781 4.25 14.890625 C 4.226562 14.902344 4.203125 14.914062 4.179688 14.925781 C 3.191406 15.4375 3.304688 16.753906 4.445312 16.984375 C 4.570312 17.007812 4.699219 17.019531 4.824219 17.019531 C 4.953125 17.019531 5.082031 17.007812 5.207031 16.984375 C 5.433594 16.9375 5.648438 16.855469 5.847656 16.734375 C 5.910156 16.695312 5.972656 16.652344 6.027344 16.605469 C 6.347656 16.332031 6.488281 15.949219 6.253906 15.546875 " fill-opacity="1" fill-rule="nonzero"/><path fill="#fdf887" d="M 7.796875 14.914062 C 7.800781 14.847656 7.796875 14.777344 7.78125 14.71875 C 7.738281 14.558594 7.628906 14.441406 7.441406 14.425781 C 7.421875 14.425781 7.402344 14.425781 7.382812 14.425781 C 7.234375 14.425781 7.089844 14.46875 6.96875 14.546875 C 6.789062 14.664062 6.65625 14.855469 6.628906 15.078125 C 6.589844 15.347656 6.71875 15.5625 6.902344 15.65625 L 6.902344 15.660156 C 6.96875 15.691406 7.042969 15.710938 7.117188 15.710938 C 7.25 15.710938 7.386719 15.65625 7.511719 15.535156 C 7.550781 15.5 7.585938 15.457031 7.617188 15.414062 C 7.722656 15.269531 7.789062 15.09375 7.796875 14.914062 " fill-opacity="1" fill-rule="nonzero"/><path fill="#ffffff" d="M 7.558594 19.691406 C 7.558594 19.703125 7.558594 19.714844 7.558594 19.726562 L 7.554688 19.742188 C 7.558594 19.726562 7.558594 19.707031 7.558594 19.691406 " fill-opacity="1" fill-rule="nonzero"/><path fill="#ffffff" d="M 20.113281 7.121094 C 20.191406 7.109375 20.269531 7.097656 20.347656 7.089844 C 20.269531 7.097656 20.191406 7.109375 20.113281 7.121094 " fill-opacity="1" fill-rule="nonzero"/><path fill="#ffffff" d="M 10.164062 17.179688 C 10.171875 17.320312 10.144531 17.453125 10.085938 17.574219 C 10.144531 17.453125 10.171875 17.320312 10.164062 17.183594 C 10.160156 17.175781 10.160156 17.167969 10.160156 17.160156 C 10.160156 17.167969 10.160156 17.175781 10.164062 17.179688 " fill-opacity="1" fill-rule="nonzero"/><path fill="#ffffff" d="M 9.105469 17.910156 L 9.117188 17.914062 Z M 9.105469 17.910156 " fill-opacity="1" fill-rule="nonzero"/><path fill="#ffffff" d="M 9.035156 18.363281 C 9.136719 18.421875 9.226562 18.492188 9.308594 18.570312 C 9.226562 18.492188 9.136719 18.421875 9.035156 18.363281 C 8.996094 18.339844 8.957031 18.320312 8.917969 18.300781 C 8.957031 18.320312 8.996094 18.339844 9.035156 18.363281 " fill-opacity="1" fill-rule="nonzero"/><path fill="#ffffff" d="M 9.644531 20.445312 C 9.566406 20.59375 9.46875 20.71875 9.359375 20.816406 C 9.46875 20.71875 9.566406 20.59375 9.644531 20.445312 C 9.910156 19.9375 9.851562 19.335938 9.5625 18.875 C 9.851562 19.335938 9.90625 19.9375 9.644531 20.445312 " fill-opacity="1" fill-rule="nonzero"/><path fill="#ffffff" d="M 7.589844 20.164062 L 7.585938 20.148438 L 7.589844 20.164062 C 7.710938 20.777344 8.140625 21.097656 8.597656 21.109375 C 8.140625 21.097656 7.710938 20.777344 7.589844 20.164062 " fill-opacity="1" fill-rule="nonzero"/><path fill="#ffffff" d="M 7.5625 19.960938 L 7.5625 19.976562 C 7.566406 19.984375 7.566406 19.992188 7.566406 20.003906 C 7.566406 19.988281 7.5625 19.972656 7.5625 19.960938 " fill-opacity="1" fill-rule="nonzero"/><path fill="#fce95a" d="M 7.535156 22.292969 C 7.589844 22.316406 7.644531 22.34375 7.703125 22.367188 C 7.730469 22.378906 7.757812 22.390625 7.785156 22.402344 C 7.816406 22.414062 7.84375 22.421875 7.871094 22.433594 L 7.875 22.433594 L 14.878906 15.417969 L 14.863281 15.402344 C 14.808594 15.351562 14.753906 15.296875 14.695312 15.246094 C 14.585938 15.144531 14.472656 15.042969 14.359375 14.941406 C 14.304688 14.894531 14.25 14.851562 14.199219 14.804688 C 13.914062 14.558594 13.625 14.320312 13.332031 14.085938 C 13.257812 14.027344 13.183594 13.964844 13.105469 13.90625 L 10.066406 16.949219 C 10.074219 16.957031 10.078125 16.960938 10.082031 16.96875 L 10.089844 16.980469 C 10.128906 17.027344 10.152344 17.085938 10.160156 17.160156 C 10.160156 17.167969 10.160156 17.175781 10.164062 17.183594 C 10.171875 17.320312 10.144531 17.453125 10.085938 17.574219 C 9.976562 17.792969 9.761719 17.960938 9.507812 17.992188 C 9.476562 17.996094 9.449219 18 9.421875 18 C 9.355469 18 9.296875 17.988281 9.242188 17.972656 C 9.230469 17.96875 9.222656 17.964844 9.210938 17.960938 L 9.207031 17.960938 L 9.195312 17.953125 C 9.167969 17.945312 9.140625 17.929688 9.117188 17.914062 L 9.105469 17.910156 L 8.761719 18.257812 C 8.8125 18.265625 8.863281 18.28125 8.917969 18.300781 C 8.957031 18.320312 8.996094 18.339844 9.035156 18.363281 C 9.136719 18.421875 9.226562 18.492188 9.308594 18.570312 C 9.40625 18.660156 9.492188 18.761719 9.5625 18.875 C 9.851562 19.335938 9.910156 19.9375 9.644531 20.445312 C 9.566406 20.59375 9.46875 20.71875 9.359375 20.816406 C 9.144531 21.015625 8.882812 21.113281 8.625 21.113281 C 8.617188 21.113281 8.605469 21.113281 8.597656 21.109375 C 8.140625 21.097656 7.710938 20.777344 7.589844 20.164062 L 7.585938 20.148438 C 7.578125 20.101562 7.570312 20.050781 7.566406 20.003906 C 7.566406 19.992188 7.566406 19.984375 7.5625 19.976562 L 7.5625 19.960938 C 7.558594 19.9375 7.558594 19.917969 7.558594 19.894531 L 7.558594 19.890625 C 7.558594 19.878906 7.558594 19.871094 7.558594 19.859375 C 7.554688 19.820312 7.554688 19.78125 7.554688 19.742188 L 7.558594 19.726562 C 7.558594 19.714844 7.558594 19.703125 7.558594 19.691406 C 7.5625 19.636719 7.566406 19.585938 7.574219 19.535156 C 7.574219 19.523438 7.578125 19.511719 7.578125 19.496094 C 7.582031 19.472656 7.585938 19.453125 7.589844 19.429688 L 6.335938 20.683594 C 6.34375 20.800781 6.355469 20.917969 6.375 21.035156 C 6.585938 21.570312 7.011719 22.039062 7.535156 22.292969 " fill-opacity="1" fill-rule="nonzero"/><path fill="#fdf887" d="M 7.589844 19.429688 C 7.585938 19.453125 7.582031 19.472656 7.578125 19.496094 C 7.578125 19.511719 7.574219 19.523438 7.574219 19.535156 C 7.566406 19.585938 7.5625 19.636719 7.558594 19.691406 C 7.558594 19.707031 7.558594 19.726562 7.554688 19.742188 C 7.554688 19.78125 7.554688 19.820312 7.558594 19.859375 C 7.558594 19.871094 7.558594 19.882812 7.558594 19.894531 C 7.558594 19.917969 7.558594 19.9375 7.5625 19.960938 C 7.5625 19.972656 7.566406 19.988281 7.566406 20.003906 C 7.570312 20.050781 7.578125 20.101562 7.585938 20.148438 L 7.589844 20.164062 C 7.710938 20.777344 8.140625 21.097656 8.597656 21.109375 C 8.605469 21.113281 8.617188 21.113281 8.625 21.113281 C 8.882812 21.113281 9.144531 21.015625 9.359375 20.816406 C 9.46875 20.71875 9.566406 20.59375 9.644531 20.445312 C 9.90625 19.9375 9.851562 19.335938 9.5625 18.875 C 9.492188 18.761719 9.40625 18.660156 9.308594 18.570312 C 9.226562 18.492188 9.136719 18.421875 9.035156 18.363281 C 8.996094 18.339844 8.957031 18.320312 8.917969 18.300781 C 8.863281 18.28125 8.8125 18.265625 8.761719 18.257812 L 7.589844 19.429688 " fill-opacity="1" fill-rule="nonzero"/><path fill="#fdf887" d="M 10.066406 16.949219 L 9.109375 17.910156 L 9.105469 17.910156 L 9.117188 17.914062 C 9.140625 17.929688 9.167969 17.945312 9.195312 17.953125 L 9.207031 17.960938 L 9.210938 17.960938 C 9.222656 17.964844 9.230469 17.96875 9.242188 17.972656 C 9.296875 17.988281 9.355469 18 9.421875 18 C 9.449219 18 9.476562 17.996094 9.507812 17.992188 C 9.761719 17.960938 9.976562 17.792969 10.085938 17.574219 C 10.144531 17.453125 10.171875 17.320312 10.164062 17.179688 C 10.160156 17.175781 10.160156 17.167969 10.160156 17.160156 C 10.152344 17.085938 10.128906 17.027344 10.089844 16.980469 L 10.082031 16.96875 C 10.078125 16.960938 10.074219 16.957031 10.066406 16.949219 " fill-opacity="1" fill-rule="nonzero"/><path fill="#fce95a" d="M 22.316406 7.761719 C 22.292969 7.734375 22.269531 7.707031 22.242188 7.679688 L 22.238281 7.671875 C 22.222656 7.660156 22.210938 7.648438 22.199219 7.632812 C 22.183594 7.621094 22.171875 7.609375 22.15625 7.59375 L 22.152344 7.589844 C 22.140625 7.578125 22.125 7.566406 22.109375 7.554688 L 22.097656 7.542969 C 22.078125 7.527344 22.058594 7.511719 22.039062 7.5 L 22.023438 7.484375 C 22.007812 7.472656 21.992188 7.460938 21.972656 7.453125 C 21.886719 7.394531 21.796875 7.34375 21.707031 7.300781 C 21.6875 7.289062 21.664062 7.277344 21.644531 7.269531 C 21.574219 7.238281 21.5 7.210938 21.425781 7.1875 C 21.402344 7.179688 21.378906 7.171875 21.355469 7.167969 C 21.332031 7.160156 21.304688 7.152344 21.28125 7.148438 C 21.199219 7.128906 21.113281 7.109375 21.027344 7.097656 C 21.003906 7.097656 20.980469 7.09375 20.957031 7.089844 C 20.929688 7.089844 20.90625 7.085938 20.882812 7.085938 C 20.859375 7.082031 20.832031 7.078125 20.808594 7.078125 C 20.785156 7.078125 20.761719 7.078125 20.734375 7.078125 C 20.707031 7.074219 20.679688 7.074219 20.652344 7.074219 C 20.585938 7.074219 20.519531 7.078125 20.453125 7.082031 C 20.417969 7.085938 20.382812 7.085938 20.347656 7.089844 C 20.269531 7.097656 20.191406 7.109375 20.113281 7.121094 C 20.050781 7.128906 19.988281 7.140625 19.925781 7.15625 C 19.890625 7.164062 19.855469 7.171875 19.824219 7.179688 L 14.078125 12.929688 C 14.121094 13.003906 14.164062 13.074219 14.207031 13.148438 C 14.277344 13.265625 14.351562 13.386719 14.425781 13.503906 C 14.476562 13.585938 14.53125 13.667969 14.585938 13.75 C 14.609375 13.789062 14.632812 13.824219 14.660156 13.863281 C 14.714844 13.945312 14.769531 14.023438 14.824219 14.105469 C 15.011719 14.375 15.203125 14.636719 15.398438 14.894531 L 22.40625 7.878906 C 22.390625 7.859375 22.375 7.839844 22.359375 7.816406 C 22.347656 7.800781 22.332031 7.78125 22.316406 7.761719 " fill-opacity="1" fill-rule="nonzero"/><path fill="#f9c408" d="M 17.148438 1.835938 C 17.171875 1.84375 17.199219 1.855469 17.222656 1.863281 C 17.246094 1.875 17.265625 1.882812 17.289062 1.890625 C 17.347656 1.914062 17.402344 1.941406 17.457031 1.96875 C 17.980469 2.21875 18.40625 2.6875 18.617188 3.222656 C 18.5 2.519531 18.179688 1.847656 17.65625 1.328125 L 17.148438 1.835938 " fill-opacity="1" fill-rule="nonzero"/><path fill="#f9c408" d="M 16.734375 7.890625 C 16.480469 8.109375 16.234375 8.335938 15.992188 8.5625 C 15.800781 8.738281 15.613281 8.917969 15.425781 9.097656 L 15.421875 9.101562 C 15.335938 9.167969 15.25 9.234375 15.164062 9.296875 C 14.917969 9.484375 14.664062 9.667969 14.40625 9.84375 C 14.394531 9.851562 14.378906 9.863281 14.363281 9.871094 C 14.226562 9.964844 14.089844 10.058594 13.949219 10.148438 C 13.902344 10.179688 13.855469 10.210938 13.808594 10.238281 C 13.628906 10.351562 13.445312 10.460938 13.261719 10.566406 C 13.085938 10.667969 12.902344 10.769531 12.695312 10.769531 L 12.691406 10.769531 C 12.414062 10.769531 12.171875 10.585938 11.957031 10.410156 C 11.859375 10.332031 11.761719 10.253906 11.664062 10.175781 C 11.566406 10.097656 11.46875 10.015625 11.371094 9.9375 C 11.308594 9.886719 11.242188 9.832031 11.179688 9.777344 C 11.097656 9.710938 11.019531 9.648438 10.941406 9.578125 C 10.84375 9.5 10.75 9.417969 10.652344 9.332031 C 10.628906 9.308594 10.601562 9.285156 10.578125 9.265625 C 10.542969 9.234375 10.507812 9.203125 10.476562 9.171875 C 10.441406 9.144531 10.40625 9.113281 10.375 9.082031 C 10.292969 9.007812 10.210938 8.9375 10.132812 8.859375 L 9.765625 9.230469 L 9.628906 9.367188 L 9.257812 9.742188 C 9.800781 10.324219 10.296875 10.949219 10.789062 11.570312 C 10.960938 11.789062 11.144531 12.03125 11.144531 12.308594 L 11.144531 12.316406 C 11.140625 12.519531 11.039062 12.707031 10.9375 12.878906 C 10.449219 13.71875 9.882812 14.503906 9.277344 15.265625 L 9.269531 15.273438 C 9.179688 15.386719 9.089844 15.496094 8.996094 15.609375 C 8.941406 15.679688 8.882812 15.746094 8.828125 15.816406 C 8.894531 15.757812 8.953125 15.699219 9.015625 15.640625 C 9.125 15.539062 9.230469 15.441406 9.335938 15.339844 L 9.339844 15.335938 C 9.570312 15.152344 9.808594 14.972656 10.046875 14.796875 L 12.601562 12.238281 L 12.605469 12.238281 L 17.71875 7.117188 C 17.378906 7.355469 17.050781 7.617188 16.734375 7.890625 " fill-opacity="1" fill-rule="nonzero"/><path fill="#f9c408" d="M 2.324219 17.027344 C 2.285156 16.949219 2.25 16.867188 2.21875 16.789062 L 1.738281 17.269531 C 2.246094 17.769531 2.890625 18.078125 3.570312 18.195312 C 3.035156 17.980469 2.570312 17.550781 2.324219 17.027344 " fill-opacity="1" fill-rule="nonzero"/><path fill="#f9c408" d="M 7.703125 22.367188 C 7.644531 22.34375 7.589844 22.316406 7.535156 22.292969 C 7.011719 22.039062 6.585938 21.570312 6.375 21.035156 C 6.492188 21.75 6.820312 22.425781 7.359375 22.949219 L 7.871094 22.433594 C 7.84375 22.421875 7.816406 22.414062 7.785156 22.402344 C 7.757812 22.390625 7.730469 22.378906 7.703125 22.367188 " fill-opacity="1" fill-rule="nonzero"/><path fill="#f9c408" d="M 21.042969 5.957031 L 19.824219 7.179688 C 19.855469 7.171875 19.890625 7.164062 19.925781 7.15625 C 19.988281 7.140625 20.050781 7.128906 20.113281 7.121094 C 20.191406 7.109375 20.269531 7.097656 20.347656 7.089844 C 20.382812 7.085938 20.417969 7.085938 20.453125 7.082031 C 20.519531 7.078125 20.585938 7.074219 20.652344 7.074219 C 20.679688 7.074219 20.707031 7.074219 20.734375 7.078125 C 20.761719 7.078125 20.785156 7.078125 20.808594 7.078125 C 20.832031 7.078125 20.859375 7.082031 20.882812 7.085938 C 20.90625 7.085938 20.929688 7.089844 20.957031 7.089844 C 20.980469 7.09375 21.003906 7.097656 21.027344 7.097656 C 21.113281 7.109375 21.199219 7.128906 21.28125 7.148438 C 21.304688 7.152344 21.332031 7.160156 21.355469 7.167969 C 21.378906 7.171875 21.402344 7.179688 21.425781 7.1875 C 21.5 7.210938 21.574219 7.238281 21.644531 7.269531 C 21.664062 7.277344 21.6875 7.289062 21.707031 7.300781 C 21.796875 7.34375 21.886719 7.394531 21.972656 7.453125 C 21.992188 7.460938 22.007812 7.472656 22.023438 7.484375 L 22.039062 7.5 C 22.058594 7.511719 22.078125 7.527344 22.097656 7.542969 L 22.109375 7.554688 C 22.125 7.566406 22.136719 7.578125 22.152344 7.589844 L 22.15625 7.59375 C 22.171875 7.609375 22.183594 7.621094 22.199219 7.632812 C 22.210938 7.648438 22.222656 7.660156 22.238281 7.671875 L 22.242188 7.679688 C 22.269531 7.707031 22.292969 7.734375 22.316406 7.761719 C 22.332031 7.78125 22.347656 7.800781 22.359375 7.816406 C 22.375 7.839844 22.390625 7.859375 22.40625 7.878906 L 23.324219 6.957031 C 22.710938 6.339844 21.890625 6.003906 21.042969 5.957031 " fill-opacity="1" fill-rule="nonzero"/><path fill="#f9c408" d="M 14.660156 13.863281 C 14.632812 13.824219 14.609375 13.789062 14.585938 13.75 C 14.53125 13.667969 14.476562 13.585938 14.425781 13.503906 C 14.351562 13.386719 14.277344 13.265625 14.207031 13.148438 C 14.164062 13.074219 14.121094 13.003906 14.078125 12.929688 L 13.730469 13.277344 L 13.664062 13.347656 L 13.105469 13.90625 C 13.183594 13.964844 13.257812 14.027344 13.332031 14.085938 C 13.625 14.320312 13.914062 14.558594 14.199219 14.804688 C 14.25 14.851562 14.304688 14.894531 14.359375 14.941406 C 14.472656 15.042969 14.585938 15.144531 14.695312 15.246094 C 14.753906 15.296875 14.808594 15.351562 14.863281 15.402344 L 14.878906 15.417969 L 15.386719 14.910156 L 15.398438 14.894531 C 15.203125 14.636719 15.011719 14.375 14.824219 14.105469 C 14.769531 14.023438 14.714844 13.945312 14.660156 13.863281 " fill-opacity="1" fill-rule="nonzero"/></svg>