<svg xmlns="http://www.w3.org/2000/svg" xmlns:xlink="http://www.w3.org/1999/xlink" width="33" zoomAndPan="magnify" viewBox="0 0 24.75 27.749999" height="37" preserveAspectRatio="xMidYMid meet" version="1.0"><defs><clipPath id="544b82c860"><path d="M 0.300781 0.101562 L 24.300781 0.101562 L 24.300781 27.488281 L 0.300781 27.488281 Z M 0.300781 0.101562 " clip-rule="nonzero"/></clipPath><clipPath id="ec26e89340"><path d="M 0.300781 0.101562 L 24.300781 0.101562 L 24.300781 27.488281 L 0.300781 27.488281 Z M 0.300781 0.101562 " clip-rule="nonzero"/></clipPath><clipPath id="1809dc49ba"><path d="M 1 0.101562 L 19 0.101562 L 19 19 L 1 19 Z M 1 0.101562 " clip-rule="nonzero"/></clipPath></defs><g clip-path="url(#544b82c860)"><path fill="#f9da25" d="M 23.867188 11.730469 C 24.300781 10.851562 24.273438 9.722656 23.910156 8.824219 C 23.542969 7.910156 22.84375 7.273438 22.023438 6.945312 C 21.636719 6.792969 21.222656 6.703125 20.804688 6.691406 C 20.789062 6.691406 20.777344 6.691406 20.761719 6.691406 C 20.746094 6.691406 20.734375 6.691406 20.71875 6.691406 L 20.714844 6.691406 L 20.597656 6.695312 C 20.5625 6.695312 20.523438 6.695312 20.488281 6.699219 L 20.484375 6.699219 C 20.449219 6.699219 20.414062 6.703125 20.378906 6.707031 L 20.363281 6.707031 C 20.335938 6.707031 20.304688 6.710938 20.273438 6.714844 L 20.253906 6.71875 L 20.238281 6.71875 C 20.226562 6.722656 20.21875 6.722656 20.210938 6.722656 L 20.203125 6.722656 L 20.195312 6.726562 L 20.1875 6.726562 C 19.996094 6.753906 19.804688 6.789062 19.613281 6.835938 C 19.238281 6.933594 18.871094 7.066406 18.515625 7.234375 C 18.339844 7.316406 18.164062 7.40625 17.992188 7.5 C 17.304688 7.882812 16.652344 8.359375 16.03125 8.839844 C 15.546875 9.21875 15.070312 9.601562 14.601562 9.996094 C 14.132812 10.390625 13.667969 10.792969 13.210938 11.203125 C 14.113281 10.367188 14.984375 9.5 15.820312 8.601562 C 15.878906 8.542969 15.933594 8.480469 15.992188 8.414062 C 16.496094 7.867188 16.988281 7.289062 17.398438 6.671875 C 17.449219 6.59375 17.5 6.515625 17.550781 6.4375 C 17.625 6.3125 17.699219 6.183594 17.765625 6.054688 C 17.960938 5.699219 18.121094 5.324219 18.238281 4.933594 C 18.265625 4.84375 18.289062 4.753906 18.308594 4.664062 C 18.3125 4.65625 18.3125 4.648438 18.316406 4.640625 C 18.429688 4.15625 18.445312 3.652344 18.363281 3.167969 C 18.355469 3.117188 18.34375 3.066406 18.332031 3.015625 C 18.171875 2.226562 17.738281 1.492188 17.054688 0.980469 C 16.917969 0.875 16.769531 0.78125 16.609375 0.695312 C 15.761719 0.246094 14.648438 0.105469 13.738281 0.457031 C 12.792969 0.816406 12.460938 1.691406 12.304688 2.625 C 12.148438 1.691406 11.8125 0.816406 10.867188 0.457031 C 9.953125 0.105469 8.847656 0.246094 7.992188 0.695312 C 6.523438 1.476562 5.933594 3.140625 6.289062 4.640625 C 6.648438 6.183594 7.707031 7.449219 8.785156 8.601562 C 8.902344 8.726562 9.015625 8.847656 9.132812 8.96875 C 9.667969 9.535156 10.222656 10.085938 10.785156 10.628906 C 10.96875 10.804688 11.152344 10.976562 11.335938 11.152344 C 11.324219 11.140625 11.308594 11.128906 11.296875 11.117188 C 11.121094 10.960938 10.945312 10.804688 10.765625 10.644531 C 10.675781 10.566406 10.582031 10.488281 10.488281 10.410156 L 10.488281 10.40625 C 9.984375 9.976562 9.476562 9.554688 8.957031 9.144531 C 8.832031 9.042969 8.703125 8.941406 8.570312 8.839844 C 7.328125 7.875 5.972656 6.9375 4.417969 6.726562 C 4.371094 6.71875 4.320312 6.710938 4.269531 6.707031 C 2.796875 6.566406 1.296875 7.316406 0.695312 8.824219 C 0.332031 9.722656 0.300781 10.851562 0.734375 11.730469 C 1.1875 12.640625 2.082031 12.890625 3.015625 12.960938 C 2.113281 13.207031 1.285156 13.628906 1.019531 14.609375 C 0.816406 15.359375 0.929688 16.207031 1.246094 16.921875 C 1.328125 17.117188 1.429688 17.296875 1.539062 17.46875 C 1.882812 17.996094 2.335938 18.386719 2.84375 18.636719 C 3.242188 18.835938 3.667969 18.949219 4.105469 18.984375 C 4.203125 18.992188 4.300781 18.996094 4.398438 18.996094 C 4.800781 18.996094 5.207031 18.929688 5.59375 18.796875 C 7.082031 18.28125 8.230469 17.089844 9.261719 15.902344 C 10.082031 14.953125 10.867188 13.980469 11.613281 12.976562 C 11.671875 12.898438 11.730469 12.820312 11.789062 12.738281 C 11.863281 12.640625 11.933594 12.542969 12.007812 12.445312 C 12.007812 12.527344 12.003906 12.613281 12.003906 12.699219 C 12.003906 12.785156 12.007812 12.875 12.007812 12.960938 C 12.007812 13.144531 12.015625 13.324219 12.023438 13.503906 C 12.023438 13.566406 12.027344 13.625 12.03125 13.683594 C 12.03125 13.726562 12.035156 13.769531 12.035156 13.8125 C 12.039062 13.886719 12.042969 13.957031 12.050781 14.027344 C 12.054688 14.101562 12.058594 14.175781 12.066406 14.253906 C 12.070312 14.324219 12.074219 14.398438 12.082031 14.472656 C 12.128906 15.066406 12.203125 15.65625 12.289062 16.246094 C 12.3125 16.394531 12.339844 16.539062 12.363281 16.6875 C 12.582031 17.953125 12.898438 19.207031 13.339844 20.425781 C 13.582031 21.105469 13.859375 21.777344 14.183594 22.425781 C 14.335938 22.753906 14.519531 23.070312 14.691406 23.390625 C 14.878906 23.703125 15.058594 24.019531 15.269531 24.320312 C 16.0625 25.542969 17.054688 26.644531 18.179688 27.601562 L 18.203125 27.617188 C 18.496094 27.847656 18.921875 27.789062 19.148438 27.492188 C 19.375 27.195312 19.320312 26.765625 19.023438 26.539062 L 19.015625 26.53125 C 18.839844 26.394531 18.664062 26.253906 18.492188 26.105469 C 17.644531 25.386719 16.871094 24.566406 16.210938 23.652344 C 16.1875 23.617188 16.160156 23.582031 16.136719 23.546875 C 16.058594 23.441406 15.988281 23.335938 15.914062 23.230469 C 15.824219 23.089844 15.730469 22.949219 15.640625 22.8125 C 15.460938 22.519531 15.28125 22.230469 15.121094 21.929688 C 14.789062 21.332031 14.496094 20.710938 14.238281 20.078125 C 13.789062 18.992188 13.445312 17.863281 13.179688 16.710938 C 13.136719 16.507812 13.089844 16.308594 13.050781 16.109375 C 13.042969 16.078125 13.039062 16.042969 13.03125 16.011719 C 12.957031 15.621094 12.886719 15.226562 12.828125 14.828125 C 12.808594 14.683594 12.789062 14.539062 12.769531 14.394531 L 12.769531 14.390625 C 12.761719 14.335938 12.753906 14.28125 12.746094 14.222656 L 12.746094 14.210938 C 12.726562 14.070312 12.710938 13.925781 12.699219 13.78125 C 12.6875 13.664062 12.675781 13.539062 12.664062 13.417969 C 12.660156 13.378906 12.65625 13.335938 12.65625 13.296875 C 12.648438 13.214844 12.640625 13.132812 12.636719 13.050781 C 12.632812 12.984375 12.628906 12.917969 12.625 12.847656 C 12.625 12.832031 12.625 12.816406 12.621094 12.796875 C 12.617188 12.683594 12.609375 12.570312 12.605469 12.453125 C 12.675781 12.550781 12.746094 12.644531 12.816406 12.738281 C 12.925781 12.890625 13.039062 13.039062 13.148438 13.1875 C 13.226562 13.285156 13.300781 13.386719 13.378906 13.488281 C 13.386719 13.5 13.398438 13.515625 13.410156 13.527344 C 13.402344 13.519531 13.398438 13.511719 13.390625 13.503906 C 13.398438 13.511719 13.402344 13.519531 13.410156 13.527344 C 13.4375 13.566406 13.46875 13.605469 13.5 13.644531 C 13.578125 13.742188 13.652344 13.84375 13.730469 13.941406 C 13.808594 14.042969 13.886719 14.140625 13.964844 14.238281 C 14.035156 14.324219 14.105469 14.414062 14.175781 14.5 C 14.230469 14.566406 14.28125 14.632812 14.335938 14.699219 C 14.402344 14.78125 14.472656 14.867188 14.542969 14.949219 C 14.617188 15.042969 14.691406 15.132812 14.769531 15.226562 C 14.867188 15.339844 14.960938 15.453125 15.054688 15.5625 C 15.148438 15.675781 15.246094 15.789062 15.339844 15.902344 C 16.375 17.089844 17.519531 18.28125 19.007812 18.796875 C 20.457031 19.296875 22.152344 18.871094 23.066406 17.46875 C 23.59375 16.660156 23.839844 15.558594 23.585938 14.609375 C 23.320312 13.628906 22.492188 13.207031 21.585938 12.960938 C 22.523438 12.890625 23.417969 12.640625 23.867188 11.730469 " fill-opacity="1" fill-rule="nonzero"/></g><path fill="#6ab54a" d="M 13.378906 13.488281 C 13.386719 13.5 13.398438 13.515625 13.410156 13.527344 C 13.210938 13.265625 13.011719 13.003906 12.816406 12.738281 C 13 12.988281 13.1875 13.242188 13.378906 13.488281 " fill-opacity="1" fill-rule="nonzero"/><path fill="#6ab54a" d="M 15.34375 15.902344 C 15.148438 15.679688 14.960938 15.453125 14.769531 15.226562 C 14.960938 15.453125 15.148438 15.679688 15.34375 15.902344 " fill-opacity="1" fill-rule="nonzero"/><path fill="#6ab54a" d="M 14.539062 14.949219 C 14.417969 14.800781 14.296875 14.652344 14.175781 14.5 C 14.296875 14.652344 14.417969 14.800781 14.539062 14.949219 " fill-opacity="1" fill-rule="nonzero"/><path fill="#6ab54a" d="M 13.964844 14.238281 C 13.808594 14.042969 13.652344 13.84375 13.5 13.644531 C 13.652344 13.84375 13.808594 14.042969 13.964844 14.238281 " fill-opacity="1" fill-rule="nonzero"/><path fill="#fbf448" d="M 15.128906 3.765625 C 14.75 4.496094 15.039062 5.429688 15.734375 5.839844 C 16.199219 6.117188 16.644531 5.878906 16.914062 5.4375 C 17.164062 5.023438 17.257812 4.515625 17.164062 4.039062 C 16.9375 2.894531 15.636719 2.78125 15.128906 3.765625 " fill-opacity="1" fill-rule="nonzero"/><path fill="#fbf448" d="M 6.375 9.507812 C 6.777344 9.148438 6.6875 8.648438 6.355469 8.253906 C 6.042969 7.886719 5.589844 7.640625 5.113281 7.585938 C 3.964844 7.445312 3.457031 8.660156 4.230469 9.453125 C 4.800781 10.039062 5.769531 10.050781 6.375 9.507812 " fill-opacity="1" fill-rule="nonzero"/><path fill="#fbf448" d="M 19.203125 9.351562 C 19.613281 9.605469 20.117188 9.699219 20.589844 9.601562 C 21.722656 9.378906 21.839844 8.0625 20.859375 7.550781 C 20.136719 7.171875 19.210938 7.460938 18.804688 8.164062 C 18.53125 8.632812 18.765625 9.082031 19.203125 9.351562 " fill-opacity="1" fill-rule="nonzero"/><path fill="#fbf448" d="M 15.269531 6.210938 C 14.882812 6.261719 14.59375 6.632812 14.625 7.023438 C 14.644531 7.285156 14.859375 7.394531 15.105469 7.382812 C 15.335938 7.371094 15.5625 7.265625 15.722656 7.097656 C 16.109375 6.695312 15.796875 6.144531 15.269531 6.210938 " fill-opacity="1" fill-rule="nonzero"/><path fill="#fbf448" d="M 7.125 10.226562 C 7.355469 10.214844 7.582031 10.109375 7.742188 9.941406 C 8.128906 9.539062 7.816406 8.988281 7.289062 9.058594 C 6.898438 9.105469 6.613281 9.476562 6.644531 9.867188 C 6.664062 10.128906 6.878906 10.238281 7.125 10.226562 " fill-opacity="1" fill-rule="nonzero"/><path fill="#fbf448" d="M 17.828125 9.625 C 18.078125 9.691406 18.253906 9.527344 18.324219 9.289062 C 18.390625 9.066406 18.371094 8.816406 18.269531 8.609375 C 18.027344 8.105469 17.40625 8.210938 17.289062 8.734375 C 17.207031 9.121094 17.453125 9.519531 17.828125 9.625 " fill-opacity="1" fill-rule="nonzero"/><g clip-path="url(#ec26e89340)"><path fill="#f4a00f" d="M 21.585938 12.960938 C 22.492188 13.207031 23.320312 13.628906 23.585938 14.609375 C 23.839844 15.558594 23.59375 16.660156 23.066406 17.46875 C 22.152344 18.871094 20.457031 19.296875 19.007812 18.796875 C 17.519531 18.28125 16.375 17.089844 15.339844 15.902344 C 15.246094 15.789062 15.148438 15.675781 15.054688 15.5625 C 14.960938 15.453125 14.867188 15.339844 14.769531 15.226562 C 14.691406 15.132812 14.617188 15.042969 14.542969 14.949219 C 14.472656 14.867188 14.402344 14.78125 14.335938 14.699219 C 14.28125 14.632812 14.230469 14.566406 14.175781 14.5 C 14.105469 14.414062 14.035156 14.324219 13.964844 14.238281 C 13.886719 14.140625 13.808594 14.042969 13.730469 13.941406 C 13.652344 13.84375 13.578125 13.742188 13.5 13.644531 C 13.46875 13.605469 13.4375 13.566406 13.410156 13.527344 C 13.371094 13.480469 13.332031 13.429688 13.296875 13.378906 C 13.132812 13.167969 12.976562 12.953125 12.816406 12.738281 C 12.746094 12.644531 12.675781 12.550781 12.605469 12.453125 C 12.539062 12.363281 12.472656 12.273438 12.40625 12.179688 C 12.402344 12.167969 12.394531 12.160156 12.386719 12.152344 L 12.386719 12.246094 C 12.386719 12.320312 12.382812 12.398438 12.378906 12.472656 C 12.359375 12.800781 12.351562 13.128906 12.351562 13.457031 C 12.351562 13.601562 12.351562 13.746094 12.355469 13.890625 L 12.355469 13.917969 C 12.359375 14.050781 12.363281 14.179688 12.371094 14.3125 C 12.371094 14.34375 12.375 14.375 12.378906 14.40625 C 12.382812 14.503906 12.386719 14.601562 12.394531 14.699219 C 12.398438 14.773438 12.402344 14.847656 12.410156 14.921875 C 12.421875 15.050781 12.433594 15.175781 12.445312 15.304688 C 12.472656 15.558594 12.503906 15.8125 12.542969 16.066406 C 12.554688 16.148438 12.566406 16.230469 12.582031 16.3125 L 12.582031 16.316406 C 12.589844 16.359375 12.59375 16.402344 12.601562 16.445312 C 12.609375 16.484375 12.613281 16.523438 12.621094 16.5625 C 12.648438 16.703125 12.675781 16.847656 12.703125 16.988281 C 13.390625 20.359375 14.695312 23.371094 16.851562 26.039062 C 17.199219 26.472656 18.261719 27.308594 18.597656 26.863281 C 18.75 26.65625 18.65625 26.367188 18.492188 26.105469 C 18.664062 26.25 18.839844 26.394531 19.015625 26.53125 L 19.023438 26.539062 C 19.320312 26.765625 19.375 27.195312 19.148438 27.492188 C 18.921875 27.789062 18.496094 27.847656 18.203125 27.617188 L 18.179688 27.601562 C 17.054688 26.644531 16.0625 25.542969 15.269531 24.320312 C 15.058594 24.019531 14.878906 23.703125 14.691406 23.390625 C 14.519531 23.070312 14.335938 22.753906 14.183594 22.425781 C 13.859375 21.777344 13.582031 21.105469 13.339844 20.425781 C 12.898438 19.207031 12.582031 17.953125 12.363281 16.6875 C 12.339844 16.539062 12.3125 16.394531 12.289062 16.246094 C 12.203125 15.65625 12.128906 15.066406 12.082031 14.472656 C 12.074219 14.398438 12.070312 14.324219 12.066406 14.253906 C 12.058594 14.175781 12.054688 14.101562 12.050781 14.027344 C 12.042969 13.957031 12.039062 13.886719 12.035156 13.8125 C 12.035156 13.769531 12.03125 13.726562 12.03125 13.683594 C 12.027344 13.625 12.023438 13.566406 12.023438 13.503906 C 12.015625 13.324219 12.007812 13.144531 12.007812 12.960938 C 12.007812 12.875 12.003906 12.785156 12.003906 12.699219 C 12.003906 12.613281 12.007812 12.527344 12.007812 12.445312 C 11.933594 12.542969 11.863281 12.640625 11.789062 12.738281 C 11.730469 12.820312 11.671875 12.898438 11.613281 12.976562 C 10.867188 13.980469 10.082031 14.953125 9.261719 15.902344 C 8.230469 17.089844 7.082031 18.28125 5.59375 18.796875 C 5.207031 18.929688 4.800781 18.996094 4.398438 18.996094 C 4.300781 18.996094 4.203125 18.992188 4.105469 18.984375 C 3.667969 18.949219 3.242188 18.835938 2.84375 18.636719 C 2.335938 18.386719 1.882812 17.996094 1.539062 17.46875 C 1.429688 17.296875 1.328125 17.117188 1.246094 16.921875 C 0.929688 16.207031 0.816406 15.359375 1.019531 14.609375 C 1.285156 13.628906 2.113281 13.207031 3.015625 12.960938 C 2.082031 12.890625 1.1875 12.640625 0.734375 11.730469 C 0.300781 10.851562 0.332031 9.722656 0.695312 8.824219 C 1.296875 7.316406 2.796875 6.566406 4.269531 6.707031 C 3.449219 6.910156 2.691406 7.425781 2.242188 8.148438 C 1.484375 9.347656 1.570312 11 2.371094 12.171875 C 2.667969 12.609375 3.3125 12.804688 3.96875 12.808594 C 3.367188 13.195312 2.613281 13.800781 2.359375 14.472656 C 2.183594 14.945312 2.117188 15.464844 2.207031 15.953125 C 2.214844 16.007812 2.226562 16.058594 2.242188 16.113281 C 2.382812 16.648438 2.742188 17.140625 3.246094 17.375 C 3.457031 17.476562 3.6875 17.527344 3.921875 17.550781 C 4.113281 17.566406 4.3125 17.5625 4.503906 17.542969 C 4.972656 17.5 5.425781 17.386719 5.859375 17.21875 C 6.527344 16.960938 7.144531 16.582031 7.703125 16.132812 C 8.628906 15.394531 9.394531 14.472656 10.136719 13.550781 C 10.316406 13.328125 10.496094 13.097656 10.644531 12.851562 C 10.792969 12.605469 10.910156 12.347656 10.964844 12.070312 C 10.976562 12.015625 10.984375 11.957031 10.988281 11.898438 C 11.023438 11.476562 10.902344 11.085938 10.695312 10.722656 C 10.632812 10.617188 10.5625 10.511719 10.488281 10.410156 C 10.582031 10.488281 10.675781 10.566406 10.765625 10.644531 C 10.945312 10.804688 11.121094 10.960938 11.296875 11.117188 C 11.308594 11.128906 11.324219 11.140625 11.335938 11.152344 C 11.152344 10.976562 10.96875 10.804688 10.785156 10.628906 C 10.222656 10.085938 9.667969 9.535156 9.132812 8.96875 C 9.015625 8.847656 8.902344 8.726562 8.785156 8.601562 C 7.707031 7.449219 6.648438 6.183594 6.289062 4.640625 C 5.933594 3.140625 6.523438 1.476562 7.992188 0.695312 C 8.847656 0.246094 9.953125 0.105469 10.867188 0.457031 C 11.8125 0.816406 12.148438 1.691406 12.304688 2.625 C 12.460938 1.691406 12.792969 0.816406 13.738281 0.457031 C 14.648438 0.105469 15.761719 0.246094 16.609375 0.695312 C 16.769531 0.78125 16.917969 0.875 17.054688 0.980469 C 17.738281 1.492188 18.171875 2.226562 18.332031 3.015625 C 18.34375 3.066406 18.355469 3.117188 18.363281 3.167969 C 18.347656 3.125 18.328125 3.082031 18.308594 3.039062 C 18.085938 2.558594 17.691406 2.144531 17.210938 1.917969 C 16.964844 1.796875 16.691406 1.703125 16.40625 1.632812 C 15.648438 1.457031 14.8125 1.488281 14.136719 1.867188 C 13.257812 2.359375 12.742188 2.953125 12.421875 4.347656 C 12.300781 3.496094 11.800781 2.621094 11.046875 2.210938 C 10.070312 1.679688 8.363281 1.601562 7.671875 2.644531 C 6.667969 4.15625 7.925781 6.449219 8.882812 7.640625 C 9.113281 7.933594 9.363281 8.210938 9.625 8.472656 C 10.171875 9.03125 10.769531 9.535156 11.378906 10.03125 C 11.515625 10.140625 11.652344 10.25 11.789062 10.359375 C 11.953125 10.496094 12.132812 10.632812 12.335938 10.6875 C 12.398438 10.707031 12.460938 10.714844 12.523438 10.714844 C 12.722656 10.714844 12.910156 10.613281 13.082031 10.511719 C 14.117188 9.90625 15.070312 9.183594 15.992188 8.414062 C 15.933594 8.480469 15.878906 8.542969 15.820312 8.601562 C 14.984375 9.5 14.113281 10.367188 13.210938 11.203125 C 13.128906 11.277344 13.046875 11.355469 12.964844 11.433594 C 13.527344 12.390625 14.144531 13.320312 14.867188 14.160156 C 14.957031 14.265625 15.050781 14.371094 15.144531 14.476562 C 16.253906 15.6875 17.636719 16.683594 19.214844 17.109375 C 19.539062 17.195312 19.882812 17.257812 20.214844 17.230469 C 20.324219 17.21875 20.429688 17.199219 20.535156 17.171875 C 20.589844 17.152344 20.640625 17.132812 20.691406 17.113281 C 20.796875 17.066406 20.894531 17.007812 20.980469 16.941406 C 21.042969 16.898438 21.097656 16.847656 21.148438 16.792969 C 21.4375 16.5 21.621094 16.089844 21.699219 15.675781 C 21.917969 14.558594 21.453125 13.328125 20.542969 12.644531 C 21.667969 12.625 22.652344 11.660156 22.867188 10.550781 C 23.082031 9.4375 22.613281 8.261719 21.820312 7.460938 C 21.769531 7.410156 21.714844 7.359375 21.660156 7.3125 C 21.402344 7.074219 21.109375 6.867188 20.804688 6.691406 C 21.222656 6.703125 21.636719 6.792969 22.023438 6.945312 C 22.84375 7.273438 23.542969 7.910156 23.910156 8.824219 C 24.273438 9.722656 24.300781 10.851562 23.867188 11.730469 C 23.417969 12.640625 22.523438 12.890625 21.585938 12.960938 " fill-opacity="1" fill-rule="nonzero"/></g><path fill="#fce95a" d="M 16.40625 1.632812 L 9.625 8.472656 C 10.171875 9.03125 10.769531 9.535156 11.378906 10.03125 L 14.667969 6.714844 C 14.675781 6.6875 14.6875 6.664062 14.699219 6.636719 C 14.714844 6.601562 14.734375 6.566406 14.757812 6.535156 C 14.761719 6.527344 14.769531 6.519531 14.777344 6.507812 C 14.78125 6.5 14.789062 6.492188 14.796875 6.484375 C 14.808594 6.46875 14.820312 6.453125 14.835938 6.4375 C 14.851562 6.421875 14.871094 6.402344 14.890625 6.386719 L 14.902344 6.375 C 14.921875 6.355469 14.941406 6.339844 14.964844 6.328125 L 14.984375 6.316406 C 15.003906 6.300781 15.027344 6.289062 15.046875 6.28125 C 15.074219 6.265625 15.105469 6.253906 15.136719 6.242188 L 15.613281 5.761719 C 15.585938 5.742188 15.558594 5.71875 15.53125 5.699219 C 15.253906 5.460938 15.0625 5.132812 14.992188 4.777344 C 14.988281 4.765625 14.988281 4.75 14.984375 4.734375 C 14.980469 4.707031 14.976562 4.683594 14.972656 4.65625 L 14.972656 4.648438 L 14.96875 4.628906 C 14.941406 4.339844 14.988281 4.039062 15.128906 3.765625 C 15.15625 3.710938 15.1875 3.660156 15.222656 3.609375 C 15.457031 3.265625 15.800781 3.097656 16.136719 3.097656 C 16.359375 3.097656 16.578125 3.171875 16.757812 3.316406 C 16.949219 3.472656 17.101562 3.714844 17.164062 4.039062 C 17.171875 4.078125 17.175781 4.113281 17.183594 4.148438 C 17.183594 4.160156 17.183594 4.167969 17.183594 4.175781 L 18.3125 3.039062 C 18.085938 2.558594 17.691406 2.144531 17.210938 1.917969 C 16.964844 1.796875 16.691406 1.699219 16.40625 1.632812 " fill-opacity="1" fill-rule="nonzero"/><path fill="#fce95a" d="M 10.695312 10.722656 L 3.921875 17.550781 C 3.6875 17.527344 3.457031 17.476562 3.246094 17.375 C 2.742188 17.140625 2.382812 16.652344 2.242188 16.113281 C 2.226562 16.058594 2.214844 16.007812 2.207031 15.953125 L 8.957031 9.144531 C 9.476562 9.554688 9.984375 9.976562 10.488281 10.40625 L 10.488281 10.410156 C 10.5625 10.511719 10.632812 10.617188 10.695312 10.722656 " fill-opacity="1" fill-rule="nonzero"/><path fill="#fdf887" d="M 16.136719 3.097656 C 15.800781 3.097656 15.457031 3.265625 15.222656 3.609375 C 15.1875 3.660156 15.15625 3.710938 15.128906 3.765625 C 14.988281 4.039062 14.941406 4.339844 14.96875 4.628906 C 14.972656 4.636719 14.972656 4.648438 14.972656 4.65625 C 14.976562 4.683594 14.980469 4.707031 14.984375 4.734375 C 14.988281 4.75 14.992188 4.761719 14.992188 4.777344 C 15.0625 5.132812 15.253906 5.460938 15.53125 5.699219 C 15.558594 5.71875 15.585938 5.738281 15.613281 5.761719 L 17.183594 4.175781 C 17.183594 4.167969 17.183594 4.160156 17.183594 4.148438 C 17.175781 4.113281 17.171875 4.078125 17.164062 4.039062 C 17.101562 3.714844 16.949219 3.472656 16.757812 3.316406 C 16.578125 3.171875 16.359375 3.097656 16.136719 3.097656 " fill-opacity="1" fill-rule="nonzero"/><path fill="#fdf887" d="M 15.136719 6.242188 C 15.105469 6.253906 15.074219 6.265625 15.046875 6.28125 C 15.027344 6.292969 15.003906 6.304688 14.984375 6.316406 L 14.964844 6.328125 C 14.9375 6.347656 14.914062 6.363281 14.890625 6.386719 C 14.871094 6.402344 14.851562 6.421875 14.835938 6.4375 C 14.820312 6.453125 14.808594 6.46875 14.796875 6.484375 C 14.789062 6.492188 14.78125 6.5 14.777344 6.507812 C 14.769531 6.519531 14.761719 6.527344 14.757812 6.535156 C 14.734375 6.566406 14.714844 6.601562 14.699219 6.636719 C 14.6875 6.664062 14.675781 6.6875 14.667969 6.714844 L 15.132812 6.246094 L 15.136719 6.242188 " fill-opacity="1" fill-rule="nonzero"/><g clip-path="url(#1809dc49ba)"><path fill="#f9c408" d="M 3.246094 17.375 C 2.742188 17.140625 2.382812 16.652344 2.242188 16.113281 C 2.226562 16.058594 2.214844 16.007812 2.207031 15.953125 L 1.246094 16.921875 C 1.328125 17.117188 1.429688 17.296875 1.539062 17.46875 C 1.882812 17.996094 2.335938 18.386719 2.84375 18.636719 L 3.921875 17.550781 C 3.6875 17.527344 3.457031 17.476562 3.246094 17.375 Z M 10.488281 10.410156 C 10.5625 10.511719 10.632812 10.617188 10.695312 10.722656 L 10.765625 10.644531 C 10.675781 10.566406 10.582031 10.488281 10.488281 10.410156 Z M 9.625 8.472656 L 9.132812 8.96875 C 9.667969 9.535156 10.222656 10.085938 10.785156 10.628906 L 11.378906 10.03125 C 10.769531 9.535156 10.171875 9.03125 9.625 8.472656 Z M 17.054688 0.980469 L 16.40625 1.632812 C 16.691406 1.703125 16.964844 1.796875 17.210938 1.917969 C 17.691406 2.144531 18.085938 2.558594 18.308594 3.039062 L 18.332031 3.019531 C 18.171875 2.226562 17.738281 1.492188 17.054688 0.980469 " fill-opacity="1" fill-rule="nonzero"/></g><path fill="#fce95a" d="M 18.308594 4.664062 L 12.335938 10.6875 C 12.398438 10.707031 12.460938 10.714844 12.523438 10.714844 C 12.722656 10.710938 12.910156 10.613281 13.082031 10.511719 C 14.117188 9.90625 15.070312 9.183594 15.992188 8.414062 C 17 7.316406 17.964844 6.109375 18.308594 4.664062 " fill-opacity="1" fill-rule="nonzero"/><path fill="#fce95a" d="M 18.363281 9.074219 C 18.363281 9.09375 18.359375 9.113281 18.355469 9.136719 L 18.355469 9.15625 C 18.351562 9.164062 18.351562 9.175781 18.351562 9.183594 C 18.347656 9.195312 18.34375 9.210938 18.34375 9.222656 L 18.339844 9.230469 C 18.335938 9.25 18.332031 9.269531 18.324219 9.289062 C 18.316406 9.3125 18.308594 9.339844 18.300781 9.359375 C 18.289062 9.382812 18.277344 9.40625 18.265625 9.429688 C 18.25 9.460938 18.226562 9.488281 18.207031 9.515625 C 18.195312 9.523438 18.1875 9.53125 18.179688 9.539062 C 18.164062 9.554688 18.148438 9.570312 18.128906 9.582031 C 18.097656 9.601562 18.066406 9.617188 18.03125 9.625 C 18.015625 9.632812 17.996094 9.636719 17.980469 9.636719 C 17.964844 9.640625 17.953125 9.640625 17.9375 9.640625 L 17.929688 9.640625 L 17.914062 9.636719 L 17.910156 9.636719 C 17.898438 9.636719 17.886719 9.636719 17.875 9.632812 L 17.855469 9.628906 C 17.847656 9.628906 17.839844 9.625 17.828125 9.625 C 17.785156 9.613281 17.746094 9.597656 17.710938 9.578125 C 17.691406 9.570312 17.671875 9.5625 17.65625 9.550781 C 17.621094 9.53125 17.585938 9.507812 17.554688 9.480469 C 17.492188 9.425781 17.433594 9.363281 17.390625 9.289062 C 17.371094 9.257812 17.351562 9.222656 17.335938 9.1875 C 17.328125 9.167969 17.320312 9.152344 17.316406 9.132812 C 17.273438 9.007812 17.261719 8.871094 17.289062 8.734375 C 17.292969 8.722656 17.296875 8.707031 17.300781 8.695312 L 17.308594 8.664062 C 17.3125 8.652344 17.316406 8.644531 17.320312 8.632812 C 17.328125 8.617188 17.335938 8.601562 17.34375 8.585938 C 17.367188 8.53125 17.398438 8.484375 17.4375 8.445312 L 17.453125 8.429688 C 17.550781 8.332031 17.675781 8.28125 17.800781 8.28125 C 17.871094 8.28125 17.941406 8.296875 18.011719 8.332031 C 18.027344 8.339844 18.046875 8.351562 18.0625 8.363281 C 18.09375 8.382812 18.121094 8.40625 18.148438 8.433594 C 18.195312 8.480469 18.238281 8.539062 18.269531 8.609375 C 18.292969 8.65625 18.3125 8.703125 18.328125 8.757812 C 18.339844 8.796875 18.347656 8.835938 18.351562 8.875 C 18.363281 8.941406 18.367188 9.007812 18.363281 9.074219 Z M 20.804688 6.691406 C 20.789062 6.691406 20.777344 6.691406 20.761719 6.691406 L 20.714844 6.691406 L 20.597656 6.695312 C 20.5625 6.695312 20.523438 6.695312 20.488281 6.699219 L 20.484375 6.699219 C 20.449219 6.699219 20.414062 6.703125 20.378906 6.707031 L 20.363281 6.707031 C 20.335938 6.707031 20.304688 6.710938 20.273438 6.714844 L 20.253906 6.71875 L 20.238281 6.71875 C 20.230469 6.722656 20.21875 6.722656 20.210938 6.722656 L 20.203125 6.722656 L 20.191406 6.726562 C 19.410156 6.832031 18.679688 7.117188 17.992188 7.5 C 17.304688 7.882812 16.652344 8.359375 16.03125 8.839844 C 15.066406 9.59375 14.125 10.382812 13.210938 11.203125 C 13.128906 11.277344 13.046875 11.355469 12.964844 11.433594 C 13.527344 12.390625 14.144531 13.320312 14.867188 14.160156 L 19.492188 9.5 L 19.480469 9.492188 C 19.457031 9.484375 19.4375 9.476562 19.417969 9.464844 C 19.398438 9.457031 19.382812 9.449219 19.363281 9.441406 C 19.351562 9.433594 19.335938 9.425781 19.320312 9.417969 L 19.308594 9.410156 C 19.296875 9.40625 19.285156 9.398438 19.273438 9.394531 L 19.261719 9.386719 L 19.257812 9.382812 C 19.238281 9.375 19.222656 9.363281 19.203125 9.351562 C 19.105469 9.292969 19.019531 9.222656 18.949219 9.148438 C 18.738281 8.929688 18.632812 8.65625 18.714844 8.367188 C 18.734375 8.300781 18.761719 8.234375 18.800781 8.164062 C 18.8125 8.152344 18.820312 8.136719 18.828125 8.125 L 18.832031 8.117188 C 18.839844 8.101562 18.851562 8.085938 18.859375 8.074219 C 18.878906 8.042969 18.898438 8.015625 18.921875 7.988281 L 18.929688 7.980469 C 18.9375 7.96875 18.945312 7.960938 18.953125 7.949219 L 18.957031 7.949219 L 18.957031 7.945312 C 18.96875 7.933594 18.976562 7.921875 18.988281 7.910156 C 18.996094 7.902344 19.003906 7.894531 19.011719 7.886719 L 19.023438 7.871094 C 19.035156 7.859375 19.046875 7.847656 19.054688 7.839844 C 19.0625 7.832031 19.070312 7.824219 19.078125 7.816406 L 19.089844 7.808594 C 19.105469 7.792969 19.121094 7.78125 19.136719 7.765625 C 19.15625 7.75 19.175781 7.734375 19.195312 7.71875 C 19.214844 7.703125 19.234375 7.691406 19.253906 7.675781 L 19.261719 7.671875 C 19.277344 7.65625 19.296875 7.644531 19.316406 7.632812 C 19.328125 7.625 19.335938 7.621094 19.347656 7.613281 C 19.359375 7.609375 19.371094 7.601562 19.382812 7.59375 L 19.386719 7.589844 C 19.398438 7.585938 19.414062 7.578125 19.425781 7.570312 L 19.433594 7.566406 L 19.453125 7.554688 L 19.472656 7.546875 L 19.480469 7.542969 C 19.492188 7.535156 19.503906 7.53125 19.515625 7.527344 L 19.527344 7.519531 C 19.542969 7.511719 19.558594 7.507812 19.574219 7.5 L 19.585938 7.496094 C 19.609375 7.488281 19.632812 7.480469 19.65625 7.46875 C 19.675781 7.460938 19.695312 7.457031 19.71875 7.449219 L 19.726562 7.449219 C 19.742188 7.441406 19.753906 7.4375 19.769531 7.4375 C 19.785156 7.429688 19.800781 7.425781 19.816406 7.425781 C 19.835938 7.421875 19.851562 7.414062 19.867188 7.414062 L 19.871094 7.410156 L 19.875 7.410156 C 19.886719 7.410156 19.902344 7.40625 19.917969 7.402344 L 19.929688 7.402344 L 19.945312 7.398438 L 19.960938 7.398438 C 19.96875 7.394531 19.976562 7.394531 19.984375 7.394531 C 19.996094 7.394531 20.007812 7.390625 20.019531 7.390625 L 20.023438 7.390625 C 20.039062 7.386719 20.054688 7.386719 20.070312 7.386719 C 20.101562 7.382812 20.136719 7.382812 20.171875 7.382812 C 20.191406 7.382812 20.214844 7.382812 20.234375 7.382812 C 20.25 7.382812 20.261719 7.386719 20.273438 7.386719 L 20.292969 7.386719 C 20.3125 7.390625 20.328125 7.390625 20.347656 7.394531 C 20.375 7.398438 20.40625 7.402344 20.433594 7.40625 C 20.464844 7.410156 20.492188 7.417969 20.519531 7.425781 L 20.523438 7.425781 C 20.546875 7.429688 20.570312 7.4375 20.597656 7.445312 L 20.609375 7.449219 C 20.617188 7.449219 20.625 7.453125 20.632812 7.457031 C 20.644531 7.460938 20.65625 7.464844 20.667969 7.46875 C 20.683594 7.472656 20.695312 7.476562 20.710938 7.484375 C 20.722656 7.488281 20.734375 7.492188 20.746094 7.496094 C 20.757812 7.503906 20.769531 7.507812 20.777344 7.511719 L 20.789062 7.515625 C 20.8125 7.527344 20.835938 7.539062 20.859375 7.550781 C 20.882812 7.5625 20.90625 7.578125 20.929688 7.589844 L 20.941406 7.597656 C 20.960938 7.609375 20.976562 7.621094 20.996094 7.632812 L 21.007812 7.640625 L 21.015625 7.644531 L 21.019531 7.648438 C 21.042969 7.664062 21.066406 7.679688 21.085938 7.699219 C 21.109375 7.714844 21.128906 7.730469 21.148438 7.75 C 21.160156 7.761719 21.175781 7.777344 21.1875 7.789062 L 21.660156 7.3125 C 21.402344 7.074219 21.109375 6.867188 20.804688 6.691406 " fill-opacity="1" fill-rule="nonzero"/><path fill="#fce95a" d="M 10.964844 12.070312 L 5.859375 17.21875 C 6.527344 16.960938 7.144531 16.582031 7.703125 16.136719 C 8.628906 15.394531 9.394531 14.472656 10.136719 13.550781 C 10.496094 13.105469 10.859375 12.625 10.964844 12.070312 " fill-opacity="1" fill-rule="nonzero"/><path fill="#fce95a" d="M 12.386719 12.152344 L 12.386719 12.246094 C 12.386719 12.320312 12.382812 12.398438 12.375 12.472656 C 12.359375 12.800781 12.351562 13.128906 12.351562 13.457031 C 12.351562 13.601562 12.351562 13.746094 12.355469 13.890625 L 12.355469 13.917969 C 12.359375 14.050781 12.363281 14.179688 12.371094 14.3125 C 12.371094 14.34375 12.375 14.375 12.375 14.40625 C 12.382812 14.503906 12.386719 14.601562 12.394531 14.699219 C 12.398438 14.773438 12.402344 14.847656 12.410156 14.921875 C 12.421875 15.050781 12.433594 15.175781 12.445312 15.304688 C 12.472656 15.558594 12.503906 15.8125 12.542969 16.066406 C 12.554688 16.148438 12.566406 16.230469 12.582031 16.3125 L 12.582031 16.316406 C 12.589844 16.359375 12.59375 16.402344 12.601562 16.445312 L 13.03125 16.011719 C 12.957031 15.621094 12.886719 15.226562 12.828125 14.828125 C 12.804688 14.679688 12.785156 14.535156 12.769531 14.390625 C 12.761719 14.332031 12.753906 14.273438 12.746094 14.210938 C 12.726562 14.070312 12.710938 13.925781 12.699219 13.78125 C 12.683594 13.660156 12.675781 13.539062 12.664062 13.417969 C 12.652344 13.296875 12.644531 13.175781 12.636719 13.050781 C 12.632812 12.984375 12.628906 12.917969 12.625 12.847656 C 12.617188 12.714844 12.609375 12.585938 12.605469 12.453125 C 12.542969 12.363281 12.472656 12.273438 12.40625 12.179688 C 12.402344 12.171875 12.394531 12.160156 12.386719 12.152344 " fill-opacity="1" fill-rule="nonzero"/><path fill="#fdf887" d="M 20.171875 7.382812 C 19.769531 7.382812 19.375 7.539062 19.078125 7.816406 C 18.972656 7.917969 18.878906 8.035156 18.804688 8.164062 C 18.53125 8.632812 18.765625 9.082031 19.203125 9.351562 C 19.296875 9.410156 19.394531 9.457031 19.492188 9.496094 L 21.1875 7.789062 C 21.097656 7.699219 20.988281 7.617188 20.859375 7.550781 C 20.679688 7.457031 20.488281 7.402344 20.292969 7.386719 C 20.253906 7.382812 20.210938 7.382812 20.171875 7.382812 " fill-opacity="1" fill-rule="nonzero"/><path fill="#fdf887" d="M 17.800781 8.28125 C 17.574219 8.28125 17.355469 8.445312 17.289062 8.734375 C 17.207031 9.121094 17.453125 9.519531 17.828125 9.625 C 17.863281 9.632812 17.902344 9.640625 17.933594 9.640625 L 17.9375 9.640625 C 18.128906 9.640625 18.265625 9.488281 18.324219 9.289062 C 18.347656 9.21875 18.359375 9.148438 18.363281 9.074219 C 18.371094 8.914062 18.339844 8.753906 18.269531 8.609375 C 18.164062 8.386719 17.980469 8.28125 17.800781 8.28125 " fill-opacity="1" fill-rule="nonzero"/><path fill="#f9c408" d="M 15.820312 8.601562 C 15.878906 8.542969 15.933594 8.480469 15.992188 8.414062 C 15.070312 9.183594 14.117188 9.90625 13.082031 10.511719 C 12.910156 10.613281 12.722656 10.714844 12.523438 10.714844 C 12.460938 10.714844 12.398438 10.707031 12.335938 10.6875 L 10.964844 12.070312 C 10.910156 12.347656 10.792969 12.605469 10.644531 12.851562 C 10.496094 13.097656 10.316406 13.328125 10.136719 13.550781 C 9.394531 14.472656 8.628906 15.394531 7.703125 16.136719 C 7.144531 16.582031 6.527344 16.960938 5.859375 17.21875 L 4.105469 18.984375 C 4.203125 18.992188 4.300781 18.996094 4.398438 18.996094 C 4.800781 18.996094 5.207031 18.929688 5.59375 18.796875 C 7.082031 18.28125 8.230469 17.089844 9.261719 15.902344 C 10.082031 14.953125 10.867188 13.980469 11.609375 12.976562 C 11.671875 12.898438 11.730469 12.820312 11.789062 12.738281 C 11.863281 12.640625 11.933594 12.542969 12.007812 12.445312 C 12.007812 12.527344 12.003906 12.613281 12.003906 12.699219 C 12.003906 12.785156 12.007812 12.875 12.007812 12.960938 C 12.011719 13.144531 12.015625 13.324219 12.023438 13.503906 C 12.023438 13.566406 12.027344 13.625 12.03125 13.683594 C 12.03125 13.726562 12.035156 13.769531 12.035156 13.8125 C 12.039062 13.886719 12.042969 13.957031 12.050781 14.027344 C 12.054688 14.101562 12.058594 14.175781 12.066406 14.253906 C 12.070312 14.328125 12.074219 14.398438 12.082031 14.472656 C 12.128906 15.066406 12.203125 15.65625 12.289062 16.246094 C 12.3125 16.394531 12.339844 16.539062 12.363281 16.6875 L 12.601562 16.445312 C 12.59375 16.402344 12.589844 16.359375 12.582031 16.316406 L 12.582031 16.3125 C 12.566406 16.230469 12.554688 16.148438 12.542969 16.066406 C 12.503906 15.8125 12.472656 15.558594 12.445312 15.304688 C 12.433594 15.175781 12.421875 15.050781 12.410156 14.921875 C 12.402344 14.847656 12.398438 14.773438 12.394531 14.699219 C 12.386719 14.601562 12.382812 14.503906 12.378906 14.40625 C 12.375 14.375 12.371094 14.34375 12.371094 14.3125 C 12.363281 14.179688 12.359375 14.050781 12.355469 13.921875 L 12.355469 13.890625 C 12.351562 13.746094 12.351562 13.601562 12.351562 13.457031 C 12.351562 13.128906 12.359375 12.800781 12.378906 12.472656 C 12.382812 12.398438 12.386719 12.320312 12.386719 12.246094 L 12.386719 12.152344 C 12.394531 12.160156 12.402344 12.171875 12.40625 12.179688 C 12.472656 12.273438 12.539062 12.363281 12.605469 12.453125 C 12.675781 12.550781 12.746094 12.644531 12.816406 12.738281 C 12.976562 12.953125 13.132812 13.167969 13.296875 13.378906 C 13.332031 13.429688 13.371094 13.480469 13.410156 13.527344 C 13.4375 13.566406 13.46875 13.605469 13.5 13.644531 C 13.578125 13.742188 13.652344 13.84375 13.730469 13.941406 C 13.808594 14.042969 13.886719 14.140625 13.964844 14.238281 C 14.035156 14.324219 14.105469 14.414062 14.175781 14.5 C 14.230469 14.566406 14.28125 14.632812 14.335938 14.699219 L 14.867188 14.164062 C 14.144531 13.320312 13.527344 12.390625 12.964844 11.433594 C 13.046875 11.355469 13.128906 11.277344 13.210938 11.203125 C 14.113281 10.367188 14.980469 9.5 15.820312 8.601562 Z M 20.804688 6.691406 C 21.109375 6.867188 21.402344 7.074219 21.660156 7.3125 L 22.023438 6.945312 C 21.636719 6.792969 21.222656 6.703125 20.804688 6.691406 " fill-opacity="1" fill-rule="nonzero"/><path fill="#ffffff" d="M 9.785156 3.023438 C 10.007812 2.796875 9.953125 1.53125 9.953125 1.53125 C 9.953125 1.53125 10.027344 2.816406 10.265625 3.054688 C 10.5 3.292969 11.777344 3.363281 11.777344 3.363281 C 11.777344 3.363281 10.503906 3.375 10.277344 3.601562 C 10.054688 3.832031 10.046875 5.113281 10.046875 5.113281 C 10.046875 5.113281 9.972656 3.828125 9.734375 3.589844 C 9.496094 3.351562 8.222656 3.28125 8.222656 3.28125 C 8.222656 3.28125 9.558594 3.253906 9.785156 3.023438 " fill-opacity="1" fill-rule="nonzero"/><path fill="#ffffff" d="M 8.203125 4.070312 C 8.203125 4.070312 8.234375 4.609375 8.332031 4.710938 C 8.433594 4.8125 8.96875 4.839844 8.96875 4.839844 C 8.96875 4.839844 8.433594 4.84375 8.339844 4.941406 C 8.246094 5.035156 8.242188 5.578125 8.242188 5.578125 C 8.242188 5.578125 8.210938 5.035156 8.109375 4.9375 C 8.011719 4.835938 7.476562 4.804688 7.476562 4.804688 C 7.476562 4.804688 8.035156 4.792969 8.132812 4.699219 C 8.226562 4.601562 8.203125 4.070312 8.203125 4.070312 " fill-opacity="1" fill-rule="nonzero"/></svg>