<svg xmlns="http://www.w3.org/2000/svg" xmlns:xlink="http://www.w3.org/1999/xlink" width="40" zoomAndPan="magnify" viewBox="0 0 30 33.749998" height="45" preserveAspectRatio="xMidYMid meet" version="1.0"><defs><clipPath id="3029f55310"><path d="M 1 0.230469 L 29.890625 0.230469 L 29.890625 19 L 1 19 Z M 1 0.230469 " clip-rule="nonzero"/></clipPath><clipPath id="0cc7e959e6"><path d="M 6 0.230469 L 25 0.230469 L 25 8 L 6 8 Z M 6 0.230469 " clip-rule="nonzero"/></clipPath><clipPath id="77b5bf32ed"><path d="M 7 17 L 23 17 L 23 32.988281 L 7 32.988281 Z M 7 17 " clip-rule="nonzero"/></clipPath></defs><g clip-path="url(#3029f55310)"><path fill="#55acee" d="M 24.589844 0.238281 L 5.976562 0.238281 C 3.226562 0.238281 0.394531 4.785156 1.324219 6.605469 C 2.824219 9.539062 12.492188 18.429688 12.492188 18.429688 L 18.074219 18.429688 C 18.074219 18.429688 27.382812 9.332031 29.242188 6.605469 C 30.171875 4.785156 27.070312 0.238281 24.589844 0.238281 Z M 20.867188 7.515625 L 15.285156 12.972656 L 9.699219 7.515625 C 9.203125 7.03125 8.914062 6.679688 8.867188 6.417969 C 8.738281 5.699219 10.503906 5.695312 15.285156 5.695312 C 21.71875 5.695312 22.242188 6.035156 21.363281 7.011719 C 21.226562 7.164062 21.054688 7.328125 20.867188 7.515625 Z M 20.867188 7.515625 " fill-opacity="1" fill-rule="nonzero"/></g><g clip-path="url(#0cc7e959e6)"><path fill="#3b88c3" d="M 8.867188 6.417969 C 8.738281 5.699219 10.503906 5.695312 15.285156 5.695312 C 21.71875 5.695312 22.242188 6.035156 21.363281 7.011719 C 26.324219 1.953125 24.769531 0.238281 22.726562 0.238281 L 7.839844 0.238281 C 4.507812 0.238281 6.898438 3.964844 8.867188 6.417969 Z M 8.867188 6.417969 " fill-opacity="1" fill-rule="nonzero"/></g><g clip-path="url(#77b5bf32ed)"><path fill="#ccd6dd" d="M 18.914062 19.359375 C 18.96875 19.210938 19.007812 19.050781 19.007812 18.886719 C 19.007812 18.132812 18.378906 17.519531 17.609375 17.519531 L 12.957031 17.519531 C 12.183594 17.519531 11.5625 18.132812 11.5625 18.886719 C 11.5625 19.050781 11.597656 19.210938 11.652344 19.359375 C 9.378906 20.601562 7.839844 22.980469 7.839844 25.707031 C 7.839844 29.726562 11.171875 32.984375 15.285156 32.984375 C 19.394531 32.984375 22.726562 29.726562 22.726562 25.707031 C 22.726562 22.980469 21.1875 20.601562 18.914062 19.359375 Z M 18.914062 19.359375 " fill-opacity="1" fill-rule="nonzero"/></g><path fill="#627077" d="M 18.074219 28.15625 L 15.601562 28.15625 C 16.214844 27.3125 17.285156 25.949219 17.703125 25.21875 C 18.015625 24.621094 18.210938 24.238281 18.210938 23.5625 C 18.210938 22.144531 17.117188 20.984375 15.25 20.984375 C 13.695312 20.984375 12.640625 22.234375 12.640625 22.234375 C 12.546875 22.335938 12.5625 22.488281 12.652344 22.566406 L 13.449219 23.359375 C 13.550781 23.460938 13.707031 23.460938 13.8125 23.359375 C 14.0625 23.089844 14.542969 22.71875 15.078125 22.71875 C 15.808594 22.71875 16.230469 23.152344 16.230469 23.640625 C 16.230469 23.996094 16.058594 24.351562 15.890625 24.609375 C 15.117188 25.753906 13.1875 28.320312 12.429688 29.289062 L 12.429688 29.542969 C 12.429688 29.671875 12.535156 29.785156 12.679688 29.785156 L 18.074219 29.785156 C 18.207031 29.785156 18.324219 29.671875 18.324219 29.542969 L 18.324219 28.394531 C 18.324219 28.269531 18.207031 28.15625 18.074219 28.15625 Z M 18.074219 28.15625 " fill-opacity="1" fill-rule="nonzero"/></svg>