<svg xmlns="http://www.w3.org/2000/svg" xmlns:xlink="http://www.w3.org/1999/xlink" width="40" zoomAndPan="magnify" viewBox="0 0 30 33.749998" height="45" preserveAspectRatio="xMidYMid meet" version="1.0"><defs><clipPath id="a1969d86bb"><path d="M 0.191406 0.132812 L 29.890625 0.132812 L 29.890625 19 L 0.191406 19 Z M 0.191406 0.132812 " clip-rule="nonzero"/></clipPath><clipPath id="996a171d95"><path d="M 5 0.132812 L 25 0.132812 L 25 7 L 5 7 Z M 5 0.132812 " clip-rule="nonzero"/></clipPath><clipPath id="06eda5637e"><path d="M 7 17 L 23 17 L 23 32.886719 L 7 32.886719 Z M 7 17 " clip-rule="nonzero"/></clipPath></defs><g clip-path="url(#a1969d86bb)"><path fill="#55acee" d="M 24.386719 0.136719 L 5.773438 0.136719 C 3.019531 0.136719 0.191406 4.683594 1.121094 6.503906 C 2.621094 9.4375 12.289062 18.328125 12.289062 18.328125 L 17.871094 18.328125 C 17.871094 18.328125 27.179688 9.234375 29.039062 6.503906 C 29.96875 4.683594 26.867188 0.136719 24.386719 0.136719 Z M 20.664062 7.414062 L 15.082031 12.871094 L 9.496094 7.414062 C 9 6.929688 8.710938 6.578125 8.664062 6.316406 C 8.535156 5.597656 10.296875 5.59375 15.082031 5.59375 C 21.515625 5.59375 22.039062 5.933594 21.160156 6.910156 C 21.023438 7.0625 20.851562 7.230469 20.664062 7.414062 Z M 20.664062 7.414062 " fill-opacity="1" fill-rule="nonzero"/></g><g clip-path="url(#996a171d95)"><path fill="#3b88c3" d="M 8.664062 6.316406 C 8.535156 5.597656 10.296875 5.59375 15.082031 5.59375 C 21.515625 5.59375 22.039062 5.933594 21.160156 6.910156 C 26.121094 1.851562 24.566406 0.136719 22.523438 0.136719 L 7.636719 0.136719 C 4.304688 0.136719 6.695312 3.863281 8.664062 6.316406 Z M 8.664062 6.316406 " fill-opacity="1" fill-rule="nonzero"/></g><g clip-path="url(#06eda5637e)"><path fill="#ff8a3b" d="M 18.710938 19.257812 C 18.765625 19.109375 18.800781 18.949219 18.800781 18.785156 C 18.800781 18.03125 18.175781 17.417969 17.40625 17.417969 L 12.753906 17.417969 C 11.980469 17.417969 11.359375 18.03125 11.359375 18.785156 C 11.359375 18.949219 11.394531 19.109375 11.449219 19.257812 C 9.175781 20.503906 7.636719 22.878906 7.636719 25.605469 C 7.636719 29.625 10.96875 32.882812 15.082031 32.882812 C 19.191406 32.882812 22.523438 29.625 22.523438 25.605469 C 22.523438 22.878906 20.984375 20.503906 18.710938 19.257812 Z M 18.710938 19.257812 " fill-opacity="1" fill-rule="nonzero"/></g><path fill="#7c4119" d="M 12.371094 28.347656 L 13.195312 27.542969 C 13.285156 27.453125 13.414062 27.441406 13.519531 27.515625 C 13.519531 27.515625 14.328125 28.105469 14.957031 28.105469 C 15.515625 28.105469 16.089844 27.644531 16.089844 27.085938 C 16.089844 26.523438 15.503906 26.050781 14.539062 26.050781 L 14.09375 26.050781 C 13.960938 26.050781 13.84375 25.9375 13.84375 25.808594 L 13.84375 24.75 C 13.84375 24.609375 13.960938 24.507812 14.09375 24.507812 L 14.539062 24.507812 C 15.453125 24.507812 15.933594 24.074219 15.933594 23.523438 C 15.933594 22.976562 15.453125 22.566406 14.890625 22.566406 C 14.316406 22.566406 13.949219 22.859375 13.753906 23.078125 C 13.664062 23.179688 13.507812 23.179688 13.402344 23.09375 L 12.609375 22.328125 C 12.503906 22.234375 12.515625 22.082031 12.609375 21.996094 C 12.609375 21.996094 13.675781 20.871094 15.101562 20.871094 C 16.613281 20.871094 17.917969 21.777344 17.917969 23.207031 C 17.917969 24.1875 17.160156 24.914062 16.574219 25.183594 L 16.574219 25.222656 C 17.1875 25.476562 18.152344 26.269531 18.152344 27.363281 C 18.152344 28.753906 16.914062 29.800781 15.113281 29.800781 C 13.46875 29.800781 12.632812 29.011719 12.359375 28.667969 C 12.277344 28.578125 12.292969 28.433594 12.371094 28.347656 Z M 12.371094 28.347656 " fill-opacity="1" fill-rule="nonzero"/></svg>