<svg xmlns="http://www.w3.org/2000/svg" xmlns:xlink="http://www.w3.org/1999/xlink" width="300" zoomAndPan="magnify" viewBox="0 0 224.87999 173.999997" height="232" preserveAspectRatio="xMidYMid meet" version="1.0"><defs><clipPath id="9ca7aff869"><path d="M 3 120 L 221.867188 120 L 221.867188 171 L 3 171 Z M 3 120 " clip-rule="nonzero"/></clipPath><clipPath id="14aedbc6f0"><path d="M 2.984375 120 L 99 120 L 99 171 L 2.984375 171 Z M 2.984375 120 " clip-rule="nonzero"/></clipPath><clipPath id="2fb24e718f"><path d="M 100 2.539062 L 126 2.539062 L 126 8 L 100 8 Z M 100 2.539062 " clip-rule="nonzero"/></clipPath></defs><g clip-path="url(#9ca7aff869)"><path fill="#2c2c2e" d="M 221.859375 150.019531 L 221.859375 152.296875 C 221.859375 157.316406 216.230469 161.71875 208.0625 163.109375 C 201.710938 164.191406 195.40625 165.140625 189.171875 165.964844 C 182.414062 166.859375 175.738281 167.621094 169.160156 168.242188 C 143.625 170.679688 119.59375 171.195312 98.152344 170.671875 C 61.765625 169.777344 32.863281 165.859375 16.839844 163.179688 C 8.652344 161.804688 3 157.390625 3 152.355469 L 3 150.019531 C 3 145.417969 8.40625 141.5625 15.667969 140.550781 C 15.554688 139.78125 15.496094 139 15.496094 138.210938 L 15.496094 134.808594 C 15.496094 127.007812 22.050781 120.679688 30.125 120.679688 L 195.367188 120.679688 C 203.425781 120.679688 209.96875 127.007812 209.96875 134.808594 L 209.96875 138.121094 C 209.96875 138.972656 209.898438 139.8125 209.765625 140.632812 C 216.734375 141.757812 221.859375 145.53125 221.859375 150.019531 Z M 221.859375 150.019531 " fill-opacity="1" fill-rule="nonzero"/></g><path fill="#ffffff" d="M 189.171875 165.964844 C 182.414062 166.859375 175.738281 167.621094 169.160156 168.242188 C 167.738281 159.234375 164.066406 149.371094 155.382812 143.316406 C 155.382812 143.316406 155.394531 143.203125 155.410156 142.992188 C 155.492188 142.089844 155.699219 139.363281 155.703125 135.410156 C 155.710938 131.5 155.515625 126.390625 154.800781 120.679688 C 154.410156 117.566406 153.867188 114.285156 153.125 110.910156 C 151.28125 102.589844 148.1875 93.742188 143.070312 85.800781 C 147.179688 86.160156 151.175781 86.777344 155.019531 87.609375 C 159.476562 94.121094 164.285156 102.039062 168.167969 110.644531 C 169.636719 113.898438 170.976562 117.257812 172.105469 120.671875 C 173.714844 125.503906 174.917969 130.449219 175.519531 135.402344 C 175.769531 137.402344 175.914062 139.398438 175.949219 141.390625 C 175.949219 141.398438 185.027344 146.5625 189.171875 165.964844 Z M 189.171875 165.964844 " fill-opacity="0.2196" fill-rule="nonzero"/><path fill="#dea32a" d="M 132.621094 43.570312 L 90.621094 43.570312 L 99.3125 23.957031 L 125.804688 23.957031 Z M 132.621094 43.570312 " fill-opacity="1" fill-rule="nonzero"/><g clip-path="url(#14aedbc6f0)"><path fill="#1a1423" d="M 98.28125 170.679688 C 98.28125 170.679688 98.28125 170.671875 98.28125 170.679688 C 61.839844 169.785156 32.902344 165.867188 16.855469 163.1875 C 8.660156 161.808594 2.992188 157.398438 2.992188 152.363281 L 2.992188 150.019531 C 2.992188 145.417969 8.398438 141.5625 15.660156 140.550781 C 15.546875 139.78125 15.488281 139 15.488281 138.210938 L 15.488281 134.808594 C 15.488281 127.007812 22.042969 120.679688 30.117188 120.679688 L 69.960938 120.679688 C 66.828125 131.628906 65.21875 144.398438 72.128906 149.957031 C 72.144531 149.957031 70.050781 167.445312 98.28125 170.679688 Z M 98.28125 170.679688 " fill-opacity="1" fill-rule="nonzero"/></g><path fill="#fac163" d="M 200.839844 121.769531 C 192.183594 124.332031 183.492188 126.382812 174.851562 127.992188 C 167.835938 129.300781 160.867188 130.320312 153.972656 131.085938 C 152.679688 131.230469 151.386719 131.375 150.089844 131.5 C 108.78125 135.605469 70.953125 131.042969 47.828125 126.878906 C 41.859375 125.804688 36.875 124.757812 33.058594 123.894531 C 27.5 122.640625 24.414062 121.769531 24.414062 121.769531 C 24.414062 96.253906 41.082031 86.03125 41.082031 86.03125 L 185.980469 86.03125 C 201.785156 100.402344 200.839844 121.769531 200.839844 121.769531 Z M 200.839844 121.769531 " fill-opacity="1" fill-rule="nonzero"/><path fill="#dea32a" d="M 150.074219 131.484375 C 108.773438 135.589844 70.960938 131.027344 47.832031 126.863281 C 41.875 125.789062 36.882812 124.746094 33.066406 123.878906 C 27.507812 122.625 24.429688 121.753906 24.429688 121.753906 C 24.429688 96.246094 41.097656 86.027344 41.097656 86.027344 L 108.960938 86.027344 L 112.609375 94.285156 L 112.609375 94.292969 L 112.617188 94.316406 C 112.617188 94.324219 95.8125 128.417969 150.074219 131.484375 Z M 150.074219 131.484375 " fill-opacity="0.4392" fill-rule="nonzero"/><path fill="#dea32a" d="M 98.144531 135.46875 C 98.289062 135.46875 98.289062 135.242188 98.144531 135.242188 C 98.003906 135.242188 98.003906 135.46875 98.144531 135.46875 Z M 98.144531 135.46875 " fill-opacity="1" fill-rule="nonzero"/><path fill="#fac163" d="M 185.960938 81.621094 L 185.960938 88.558594 C 177.148438 90.03125 168.453125 91.171875 159.980469 92.03125 C 152.972656 92.746094 146.109375 93.261719 139.441406 93.625 C 130.078125 94.132812 121.101562 94.328125 112.640625 94.300781 L 112.671875 94.300781 C 94.121094 94.246094 78.042969 93.128906 65.851562 91.886719 C 60.972656 91.390625 56.722656 90.878906 53.175781 90.40625 C 45.433594 89.378906 41.089844 88.550781 41.089844 88.550781 L 41.089844 81.652344 C 41.089844 67.6875 50.414062 55.199219 65.097656 46.824219 L 65.097656 46.847656 C 69.992188 44.058594 75.484375 41.730469 81.429688 39.957031 C 87.105469 38.265625 93.195312 37.078125 99.566406 36.484375 C 100.53125 36.394531 101.503906 36.320312 102.480469 36.257812 C 104.59375 36.125 106.734375 36.054688 108.898438 36.054688 L 118.195312 36.054688 C 121.214844 36.054688 124.191406 36.191406 127.105469 36.445312 C 131.214844 36.808594 135.210938 37.417969 139.058594 38.257812 C 151.160156 40.886719 161.769531 45.742188 169.832031 52.109375 C 179.886719 60.058594 185.960938 70.363281 185.960938 81.621094 Z M 185.960938 81.621094 " fill-opacity="1" fill-rule="nonzero"/><path fill="#dea32a" d="M 112.707031 94.300781 L 112.671875 94.300781 C 94.121094 94.246094 78.042969 93.128906 65.851562 91.886719 C 60.972656 91.390625 56.722656 90.878906 53.175781 90.40625 C 45.433594 89.378906 41.089844 88.550781 41.089844 88.550781 L 41.089844 81.613281 C 41.089844 67.671875 50.414062 55.191406 65.097656 46.832031 C 70 44.042969 75.5 41.707031 81.453125 39.933594 C 87.136719 38.234375 93.238281 37.054688 99.613281 36.460938 C 96.527344 40.195312 75.257812 67.566406 97.738281 86.03125 C 101.441406 89.078125 106.332031 91.878906 112.695312 94.292969 C 112.695312 94.292969 112.699219 94.300781 112.707031 94.300781 Z M 112.707031 94.300781 " fill-opacity="0.4392" fill-rule="nonzero"/><path fill="#ffffff" d="M 153.980469 131.09375 C 154.199219 120.609375 152.414062 103.023438 139.425781 93.960938 C 139.425781 93.960938 139.441406 93.847656 139.457031 93.636719 C 139.539062 92.738281 139.742188 90.007812 139.75 86.054688 C 139.757812 80.019531 139.289062 71.128906 137.167969 61.554688 C 135.324219 53.234375 132.230469 44.390625 127.113281 36.445312 C 131.222656 36.808594 135.21875 37.421875 139.066406 38.257812 C 143.519531 44.765625 148.328125 52.6875 152.210938 61.292969 C 155.757812 69.160156 158.535156 77.601562 159.574219 86.054688 C 159.820312 88.054688 159.964844 90.054688 160.003906 92.046875 C 160.003906 92.046875 172.488281 99.148438 174.859375 128 C 167.84375 129.304688 160.867188 130.328125 153.980469 131.09375 Z M 153.980469 131.09375 " fill-opacity="0.2196" fill-rule="nonzero"/><path fill="#ffffff" d="M 169.816406 52.109375 C 168.289062 56.761719 161.53125 60.058594 152.191406 61.292969 C 147.683594 61.886719 142.5625 62 137.144531 61.546875 C 135.625 61.421875 134.082031 61.253906 132.515625 61.035156 C 112.996094 58.339844 98.152344 49.476562 99.363281 41.242188 C 99.644531 39.371094 100.726562 37.695312 102.464844 36.25 C 104.582031 36.117188 106.71875 36.046875 108.886719 36.046875 L 118.1875 36.046875 C 121.214844 36.046875 124.1875 36.183594 127.097656 36.4375 C 131.207031 36.800781 135.203125 37.417969 139.050781 38.25 C 151.144531 40.886719 161.753906 45.742188 169.816406 52.109375 Z M 169.816406 52.109375 " fill-opacity="0.2196" fill-rule="nonzero"/><path fill="#c99555" d="M 65.867188 86.054688 C 65.707031 89.65625 65.828125 91.851562 65.84375 91.910156 C 49.574219 99.539062 47.628906 117.386719 47.832031 126.894531 C 41.875 125.820312 36.882812 124.773438 33.066406 123.910156 C 34.699219 93.820312 53.171875 90.429688 53.171875 90.429688 C 52.898438 88.972656 52.710938 87.511719 52.613281 86.054688 C 51.605469 71.703125 58.40625 57.277344 65.089844 46.855469 C 69.96875 44.066406 75.460938 41.730469 81.40625 39.957031 C 68.792969 56.085938 66.296875 76.269531 65.867188 86.054688 Z M 65.867188 86.054688 " fill-opacity="0.2196" fill-rule="nonzero"/><path fill="#ffffff" d="M 111.097656 104.707031 C 110.960938 100.125 140.644531 95.871094 161.320312 94.832031 C 174.355469 94.1875 189.414062 93.4375 190.722656 98.066406 C 191.890625 102.199219 181.933594 109.871094 172.015625 112.914062 C 165.632812 114.871094 160.304688 114.589844 145.851562 112.335938 C 122.726562 108.730469 111.164062 106.925781 111.097656 104.707031 Z M 111.097656 104.707031 " fill-opacity="0.1098" fill-rule="nonzero"/><path fill="#fac163" d="M 125.902344 24.332031 C 125.902344 24.476562 125.816406 24.617188 125.644531 24.757812 C 125.46875 24.898438 125.214844 25.035156 124.875 25.164062 C 124.539062 25.296875 124.121094 25.421875 123.632812 25.542969 C 123.140625 25.660156 122.582031 25.773438 121.957031 25.871094 C 121.332031 25.972656 120.648438 26.066406 119.914062 26.144531 C 119.179688 26.222656 118.402344 26.289062 117.585938 26.34375 C 116.769531 26.398438 115.925781 26.441406 115.058594 26.46875 C 114.191406 26.496094 113.316406 26.511719 112.429688 26.511719 C 111.546875 26.511719 110.667969 26.496094 109.800781 26.46875 C 108.933594 26.441406 108.09375 26.398438 107.273438 26.34375 C 106.457031 26.289062 105.679688 26.222656 104.945312 26.144531 C 104.210938 26.066406 103.53125 25.972656 102.902344 25.871094 C 102.277344 25.773438 101.71875 25.660156 101.230469 25.542969 C 100.738281 25.421875 100.324219 25.296875 99.984375 25.164062 C 99.644531 25.035156 99.390625 24.898438 99.21875 24.757812 C 99.042969 24.617188 98.957031 24.476562 98.957031 24.332031 C 98.957031 24.1875 99.042969 24.046875 99.21875 23.90625 C 99.390625 23.765625 99.644531 23.628906 99.984375 23.496094 C 100.324219 23.367188 100.738281 23.238281 101.230469 23.121094 C 101.71875 23.003906 102.277344 22.890625 102.902344 22.789062 C 103.53125 22.691406 104.210938 22.597656 104.945312 22.519531 C 105.679688 22.441406 106.457031 22.371094 107.273438 22.316406 C 108.09375 22.261719 108.933594 22.222656 109.800781 22.195312 C 110.667969 22.167969 111.546875 22.152344 112.429688 22.152344 C 113.316406 22.152344 114.191406 22.167969 115.058594 22.195312 C 115.925781 22.222656 116.769531 22.261719 117.585938 22.316406 C 118.402344 22.371094 119.179688 22.441406 119.914062 22.519531 C 120.648438 22.597656 121.332031 22.691406 121.957031 22.789062 C 122.582031 22.890625 123.140625 23.003906 123.632812 23.121094 C 124.121094 23.238281 124.539062 23.367188 124.875 23.496094 C 125.214844 23.628906 125.46875 23.765625 125.644531 23.90625 C 125.816406 24.046875 125.902344 24.1875 125.902344 24.332031 Z M 125.902344 24.332031 " fill-opacity="1" fill-rule="nonzero"/><path fill="#fac163" d="M 108.066406 11.480469 L 117.320312 11.480469 L 117.320312 24.03125 L 108.066406 24.03125 Z M 108.066406 11.480469 " fill-opacity="1" fill-rule="nonzero"/><path fill="#fac163" d="M 117.976562 13.960938 L 107.175781 13.960938 C 103.21875 13.960938 100.003906 10.75 100.003906 6.796875 L 100.003906 5.167969 L 125.140625 5.167969 L 125.140625 6.796875 C 125.148438 10.75 121.933594 13.960938 117.976562 13.960938 Z M 117.976562 13.960938 " fill-opacity="1" fill-rule="nonzero"/><g clip-path="url(#2fb24e718f)"><path fill="#f7f0a9" d="M 125.148438 5.207031 C 125.148438 5.378906 125.070312 5.554688 124.90625 5.726562 C 124.746094 5.898438 124.507812 6.0625 124.191406 6.226562 C 123.875 6.386719 123.488281 6.542969 123.03125 6.6875 C 122.574219 6.832031 122.050781 6.96875 121.46875 7.089844 C 120.882812 7.214844 120.25 7.328125 119.5625 7.421875 C 118.878906 7.519531 118.152344 7.601562 117.390625 7.671875 C 116.628906 7.738281 115.84375 7.789062 115.03125 7.820312 C 114.222656 7.855469 113.40625 7.875 112.582031 7.875 C 111.753906 7.875 110.9375 7.855469 110.128906 7.820312 C 109.320312 7.789062 108.535156 7.738281 107.769531 7.671875 C 107.007812 7.601562 106.285156 7.519531 105.597656 7.421875 C 104.910156 7.328125 104.277344 7.214844 103.691406 7.089844 C 103.109375 6.96875 102.589844 6.832031 102.128906 6.6875 C 101.671875 6.542969 101.285156 6.386719 100.96875 6.226562 C 100.652344 6.0625 100.414062 5.898438 100.253906 5.726562 C 100.09375 5.554688 100.011719 5.378906 100.011719 5.207031 C 100.011719 5.03125 100.09375 4.855469 100.253906 4.683594 C 100.414062 4.511719 100.652344 4.347656 100.96875 4.183594 C 101.285156 4.023438 101.671875 3.867188 102.128906 3.722656 C 102.589844 3.578125 103.109375 3.441406 103.691406 3.320312 C 104.277344 3.195312 104.910156 3.085938 105.597656 2.988281 C 106.285156 2.890625 107.007812 2.808594 107.769531 2.742188 C 108.535156 2.671875 109.320312 2.621094 110.128906 2.589844 C 110.9375 2.554688 111.753906 2.539062 112.582031 2.539062 C 113.40625 2.539062 114.222656 2.554688 115.03125 2.589844 C 115.84375 2.621094 116.628906 2.671875 117.390625 2.742188 C 118.152344 2.808594 118.878906 2.890625 119.5625 2.988281 C 120.25 3.085938 120.882812 3.195312 121.46875 3.320312 C 122.050781 3.441406 122.574219 3.578125 123.03125 3.722656 C 123.488281 3.867188 123.875 4.023438 124.191406 4.183594 C 124.507812 4.347656 124.746094 4.511719 124.90625 4.683594 C 125.070312 4.855469 125.148438 5.03125 125.148438 5.207031 Z M 125.148438 5.207031 " fill-opacity="1" fill-rule="nonzero"/></g></svg>