<svg xmlns="http://www.w3.org/2000/svg" xmlns:xlink="http://www.w3.org/1999/xlink" width="500" zoomAndPan="magnify" viewBox="0 0 375 374.999991" height="500" preserveAspectRatio="xMidYMid meet" version="1.0"><defs><clipPath id="52d4bdd805"><path d="M 55 93 L 307 93 L 307 369.441406 L 55 369.441406 Z M 55 93 " clip-rule="nonzero"/></clipPath><clipPath id="58a333e886"><path d="M 306 93 L 369.441406 93 L 369.441406 358 L 306 358 Z M 306 93 " clip-rule="nonzero"/></clipPath><clipPath id="40965e80ac"><path d="M 124 5.691406 L 251 5.691406 L 251 31 L 124 31 Z M 124 5.691406 " clip-rule="nonzero"/></clipPath><clipPath id="f66202e263"><path d="M 314 331 L 363 331 L 363 369.441406 L 314 369.441406 Z M 314 331 " clip-rule="nonzero"/></clipPath><clipPath id="8e676a9cd6"><path d="M 306 313 L 369.441406 313 L 369.441406 369.441406 L 306 369.441406 Z M 306 313 " clip-rule="nonzero"/></clipPath><clipPath id="91078903ad"><path d="M 149 319 L 270 319 L 270 369.441406 L 149 369.441406 Z M 149 319 " clip-rule="nonzero"/></clipPath><clipPath id="1f6180b2d9"><path d="M 5.691406 269 L 194 269 L 194 320 L 5.691406 320 Z M 5.691406 269 " clip-rule="nonzero"/></clipPath><clipPath id="fe5ed32521"><path d="M 5.691406 319 L 194 319 L 194 369.441406 L 5.691406 369.441406 Z M 5.691406 319 " clip-rule="nonzero"/></clipPath><clipPath id="02c9a38ce0"><path d="M 5.691406 269 L 150 269 L 150 320 L 5.691406 320 Z M 5.691406 269 " clip-rule="nonzero"/></clipPath><clipPath id="425d0ca909"><path d="M 5.691406 312 L 194 312 L 194 326 L 5.691406 326 Z M 5.691406 312 " clip-rule="nonzero"/></clipPath></defs><g clip-path="url(#52d4bdd805)"><path fill="#ef7545" d="M 55.894531 93.5 L 306.738281 93.5 L 306.738281 369.425781 L 55.894531 369.425781 Z M 55.894531 93.5 " fill-opacity="1" fill-rule="nonzero"/></g><path fill="#ef8362" d="M 55.894531 93.5 L 281.652344 93.5 L 281.652344 156.375 C 281.652344 158.835938 281.59375 161.292969 281.472656 163.75 C 281.351562 166.207031 281.167969 168.660156 280.929688 171.109375 C 280.6875 173.558594 280.386719 176 280.023438 178.433594 C 279.664062 180.867188 279.242188 183.292969 278.761719 185.703125 C 278.285156 188.117188 277.746094 190.515625 277.148438 192.902344 C 276.550781 195.289062 275.894531 197.660156 275.179688 200.015625 C 274.464844 202.371094 273.691406 204.707031 272.863281 207.023438 C 272.035156 209.339844 271.148438 211.632812 270.207031 213.90625 C 269.265625 216.179688 268.269531 218.429688 267.21875 220.652344 C 266.167969 222.878906 265.058594 225.074219 263.898438 227.246094 C 262.742188 229.414062 261.527344 231.554688 260.261719 233.664062 C 259 235.773438 257.683594 237.851562 256.316406 239.898438 C 254.949219 241.945312 253.53125 243.957031 252.066406 245.933594 C 250.601562 247.910156 249.085938 249.847656 247.527344 251.75 C 245.964844 253.652344 244.359375 255.515625 242.707031 257.335938 C 241.054688 259.160156 239.359375 260.941406 237.617188 262.679688 C 235.878906 264.421875 234.097656 266.117188 232.273438 267.769531 C 230.453125 269.421875 228.589844 271.027344 226.6875 272.589844 C 224.785156 274.148438 222.84375 275.664062 220.871094 277.128906 C 218.894531 278.59375 216.882812 280.011719 214.835938 281.378906 C 212.789062 282.746094 210.710938 284.0625 208.601562 285.324219 C 206.492188 286.589844 204.351562 287.804688 202.179688 288.964844 C 200.011719 290.121094 197.816406 291.230469 195.589844 292.28125 C 193.367188 293.332031 191.117188 294.328125 188.84375 295.269531 C 186.570312 296.210938 184.277344 297.097656 181.960938 297.925781 C 179.644531 298.757812 177.308594 299.527344 174.953125 300.242188 C 172.597656 300.957031 170.226562 301.613281 167.839844 302.210938 C 165.453125 302.808594 163.054688 303.347656 160.640625 303.828125 C 158.226562 304.304688 155.804688 304.726562 153.371094 305.089844 C 150.9375 305.449219 148.496094 305.75 146.046875 305.992188 C 143.597656 306.234375 141.144531 306.414062 138.6875 306.535156 C 136.230469 306.65625 133.773438 306.714844 131.3125 306.714844 L 55.894531 306.714844 Z M 55.894531 93.5 " fill-opacity="1" fill-rule="nonzero"/><path fill="#ef7545" d="M 237.753906 18.246094 L 313.007812 18.246094 L 325.550781 43.332031 L 237.753906 43.332031 Z M 237.753906 18.246094 " fill-opacity="1" fill-rule="nonzero"/><path fill="#dd5e3c" d="M 262.839844 43.332031 L 237.753906 43.332031 L 237.753906 18.246094 L 256.570312 18.246094 Z M 262.839844 43.332031 " fill-opacity="1" fill-rule="nonzero"/><g clip-path="url(#58a333e886)"><path fill="#ed673e" d="M 343.410156 315.933594 L 369.445312 357.59375 L 369.445312 93.5 L 306.738281 93.5 L 306.738281 357.59375 L 332.773438 315.933594 C 335.070312 312.269531 341.113281 312.269531 343.410156 315.933594 Z M 343.410156 315.933594 " fill-opacity="1" fill-rule="nonzero"/></g><path fill="#d3d1d1" d="M 161.371094 168.753906 L 259.316406 168.753906 C 260.011719 168.753906 260.703125 168.808594 261.386719 168.925781 C 262.070312 169.039062 262.742188 169.207031 263.398438 169.433594 C 264.054688 169.660156 264.691406 169.9375 265.300781 170.269531 C 265.910156 170.601562 266.488281 170.980469 267.035156 171.40625 C 267.585938 171.835938 268.09375 172.304688 268.5625 172.816406 C 269.03125 173.328125 269.457031 173.875 269.832031 174.457031 C 270.210938 175.039062 270.539062 175.648438 270.816406 176.285156 C 271.09375 176.921875 271.316406 177.578125 271.484375 178.253906 L 281.652344 218.921875 L 162.128906 218.921875 Z M 161.371094 168.753906 " fill-opacity="1" fill-rule="nonzero"/><path fill="#ccc6c6" d="M 162.128906 218.921875 L 281.652344 218.921875 L 271.484375 259.589844 C 271.316406 260.265625 271.09375 260.917969 270.816406 261.554688 C 270.539062 262.191406 270.210938 262.800781 269.832031 263.382812 C 269.457031 263.96875 269.03125 264.515625 268.5625 265.027344 C 268.09375 265.539062 267.585938 266.007812 267.035156 266.433594 C 266.488281 266.863281 265.910156 267.242188 265.300781 267.574219 C 264.691406 267.902344 264.054688 268.183594 263.398438 268.410156 C 262.742188 268.632812 262.070312 268.804688 261.386719 268.917969 C 260.703125 269.035156 260.011719 269.089844 259.316406 269.089844 L 162.503906 269.089844 Z M 162.128906 218.921875 " fill-opacity="1" fill-rule="nonzero"/><path fill="#dd5e37" d="M 331.820312 180.925781 L 344.363281 180.925781 L 344.363281 331.796875 L 331.820312 331.796875 Z M 331.820312 180.925781 " fill-opacity="1" fill-rule="nonzero"/><path fill="#dd5e37" d="M 331.820312 131.125 L 344.363281 131.125 L 344.363281 168.753906 L 331.820312 168.753906 Z M 331.820312 131.125 " fill-opacity="1" fill-rule="nonzero"/><path fill="#e5643c" d="M 124.878906 30.789062 L 149.960938 30.789062 L 149.960938 93.5 L 124.878906 93.5 Z M 124.878906 30.789062 " fill-opacity="1" fill-rule="nonzero"/><path fill="#e5643c" d="M 225.214844 30.789062 L 250.296875 30.789062 L 250.296875 93.5 L 225.214844 93.5 Z M 225.214844 30.789062 " fill-opacity="1" fill-rule="nonzero"/><g clip-path="url(#40965e80ac)"><path fill="#ef7545" d="M 250.296875 30.789062 L 124.878906 30.789062 L 137.417969 5.707031 L 237.753906 5.707031 Z M 250.296875 30.789062 " fill-opacity="1" fill-rule="nonzero"/></g><path fill="#e5643c" d="M 300.464844 43.332031 L 325.550781 43.332031 L 325.550781 93.5 L 300.464844 93.5 Z M 300.464844 43.332031 " fill-opacity="1" fill-rule="nonzero"/><g clip-path="url(#f66202e263)"><path fill="#ed673e" d="M 338.089844 331.089844 L 314.128906 369.425781 L 362.054688 369.425781 Z M 338.089844 331.089844 " fill-opacity="1" fill-rule="nonzero"/></g><g clip-path="url(#8e676a9cd6)"><path fill="#dd5e37" d="M 362.054688 369.425781 L 369.445312 369.425781 L 369.445312 357.59375 L 343.410156 315.929688 C 341.113281 312.269531 335.070312 312.269531 332.773438 315.929688 L 306.738281 357.59375 L 306.738281 369.425781 L 314.128906 369.425781 L 338.089844 331.089844 Z M 362.054688 369.425781 " fill-opacity="1" fill-rule="nonzero"/></g><path fill="#dddbdb" d="M 206.398438 218.921875 L 18.269531 218.921875 L 28.429688 178.222656 C 28.597656 177.546875 28.820312 176.894531 29.09375 176.257812 C 29.371094 175.621094 29.699219 175.011719 30.078125 174.429688 C 30.457031 173.847656 30.878906 173.304688 31.351562 172.792969 C 31.820312 172.28125 32.328125 171.8125 32.875 171.386719 C 33.421875 170.960938 34.003906 170.582031 34.613281 170.253906 C 35.222656 169.921875 35.855469 169.644531 36.515625 169.421875 C 37.171875 169.199219 37.839844 169.03125 38.527344 168.917969 C 39.210938 168.804688 39.898438 168.75 40.59375 168.753906 L 184.074219 168.753906 C 184.765625 168.75 185.457031 168.804688 186.140625 168.917969 C 186.824219 169.03125 187.496094 169.199219 188.152344 169.421875 C 188.808594 169.644531 189.441406 169.921875 190.054688 170.253906 C 190.664062 170.582031 191.242188 170.960938 191.789062 171.386719 C 192.339844 171.8125 192.847656 172.28125 193.316406 172.792969 C 193.785156 173.304688 194.210938 173.847656 194.585938 174.429688 C 194.964844 175.011719 195.292969 175.621094 195.570312 176.257812 C 195.847656 176.894531 196.070312 177.546875 196.238281 178.222656 Z M 206.398438 218.921875 " fill-opacity="1" fill-rule="nonzero"/><path fill="#d3d3d3" d="M 18.269531 218.921875 L 206.398438 218.921875 L 196.234375 259.589844 C 196.066406 260.265625 195.84375 260.917969 195.566406 261.554688 C 195.289062 262.191406 194.960938 262.800781 194.582031 263.382812 C 194.203125 263.96875 193.777344 264.515625 193.308594 265.027344 C 192.839844 265.539062 192.332031 266.007812 191.785156 266.433594 C 191.238281 266.863281 190.660156 267.242188 190.046875 267.574219 C 189.4375 267.902344 188.804688 268.183594 188.148438 268.410156 C 187.492188 268.632812 186.820312 268.804688 186.132812 268.917969 C 185.449219 269.035156 184.757812 269.089844 184.066406 269.089844 L 40.605469 269.089844 C 39.910156 269.089844 39.21875 269.035156 38.535156 268.917969 C 37.851562 268.804688 37.179688 268.632812 36.523438 268.410156 C 35.867188 268.183594 35.230469 267.902344 34.621094 267.574219 C 34.011719 267.242188 33.433594 266.863281 32.882812 266.433594 C 32.335938 266.007812 31.828125 265.539062 31.359375 265.027344 C 30.890625 264.515625 30.464844 263.96875 30.085938 263.382812 C 29.710938 262.800781 29.382812 262.191406 29.105469 261.554688 C 28.828125 260.917969 28.605469 260.265625 28.4375 259.589844 Z M 18.269531 218.921875 " fill-opacity="1" fill-rule="nonzero"/><path fill="#afafaf" d="M 275.382812 225.191406 L 200.128906 225.191406 C 199.71875 225.191406 199.308594 225.152344 198.90625 225.070312 C 198.5 224.992188 198.109375 224.871094 197.730469 224.714844 C 197.347656 224.558594 196.988281 224.363281 196.644531 224.136719 C 196.300781 223.90625 195.984375 223.644531 195.695312 223.355469 C 195.402344 223.0625 195.144531 222.746094 194.914062 222.40625 C 194.6875 222.0625 194.492188 221.699219 194.335938 221.320312 C 194.175781 220.941406 194.058594 220.546875 193.976562 220.144531 C 193.898438 219.742188 193.859375 219.332031 193.859375 218.921875 C 193.859375 218.507812 193.898438 218.101562 193.976562 217.699219 C 194.058594 217.292969 194.175781 216.902344 194.335938 216.519531 C 194.492188 216.140625 194.6875 215.777344 194.914062 215.4375 C 195.144531 215.09375 195.402344 214.777344 195.695312 214.488281 C 195.984375 214.195312 196.300781 213.933594 196.644531 213.707031 C 196.988281 213.476562 197.347656 213.285156 197.730469 213.125 C 198.109375 212.96875 198.5 212.851562 198.90625 212.769531 C 199.308594 212.691406 199.71875 212.648438 200.128906 212.648438 L 275.382812 212.648438 C 275.792969 212.648438 276.199219 212.691406 276.605469 212.769531 C 277.007812 212.851562 277.402344 212.96875 277.78125 213.125 C 278.160156 213.285156 278.523438 213.476562 278.867188 213.707031 C 279.207031 213.933594 279.523438 214.195312 279.816406 214.488281 C 280.105469 214.777344 280.367188 215.09375 280.59375 215.4375 C 280.824219 215.777344 281.015625 216.140625 281.175781 216.519531 C 281.332031 216.902344 281.453125 217.292969 281.53125 217.699219 C 281.613281 218.101562 281.652344 218.507812 281.652344 218.921875 C 281.652344 219.332031 281.613281 219.742188 281.53125 220.144531 C 281.453125 220.546875 281.332031 220.941406 281.175781 221.320312 C 281.015625 221.699219 280.824219 222.0625 280.59375 222.40625 C 280.367188 222.746094 280.105469 223.0625 279.816406 223.355469 C 279.523438 223.644531 279.207031 223.90625 278.867188 224.136719 C 278.523438 224.363281 278.160156 224.558594 277.78125 224.714844 C 277.402344 224.871094 277.007812 224.992188 276.605469 225.070312 C 276.199219 225.152344 275.792969 225.191406 275.382812 225.191406 Z M 275.382812 225.191406 " fill-opacity="1" fill-rule="nonzero"/><path fill="#e5e3e3" d="M 162.503906 168.753906 C 162.503906 170.394531 162.425781 172.035156 162.265625 173.671875 C 162.109375 175.308594 161.867188 176.933594 161.550781 178.542969 C 161.230469 180.15625 160.832031 181.75 160.359375 183.324219 C 159.882812 184.898438 159.328125 186.441406 158.703125 187.960938 C 158.074219 189.480469 157.371094 190.964844 156.597656 192.414062 C 155.824219 193.863281 154.980469 195.273438 154.070312 196.640625 C 153.15625 198.007812 152.179688 199.328125 151.136719 200.597656 C 150.09375 201.867188 148.992188 203.085938 147.828125 204.246094 C 146.667969 205.410156 145.449219 206.511719 144.179688 207.554688 C 142.910156 208.597656 141.589844 209.574219 140.222656 210.488281 C 138.855469 211.398438 137.445312 212.242188 135.996094 213.015625 C 134.546875 213.792969 133.0625 214.492188 131.542969 215.121094 C 130.023438 215.746094 128.480469 216.300781 126.90625 216.777344 C 125.332031 217.25 123.738281 217.648438 122.125 217.96875 C 120.515625 218.285156 118.890625 218.527344 117.253906 218.683594 C 115.617188 218.84375 113.976562 218.921875 112.335938 218.921875 L 18.269531 218.921875 L 28.429688 178.222656 C 28.597656 177.546875 28.820312 176.894531 29.09375 176.257812 C 29.371094 175.621094 29.699219 175.011719 30.078125 174.429688 C 30.457031 173.847656 30.878906 173.304688 31.351562 172.792969 C 31.820312 172.28125 32.328125 171.8125 32.875 171.386719 C 33.421875 170.960938 34.003906 170.582031 34.613281 170.253906 C 35.222656 169.921875 35.855469 169.644531 36.515625 169.421875 C 37.171875 169.199219 37.839844 169.03125 38.527344 168.917969 C 39.210938 168.804688 39.898438 168.75 40.59375 168.753906 Z M 162.503906 168.753906 " fill-opacity="1" fill-rule="nonzero"/><path fill="#c1bfbf" d="M 131.144531 218.921875 L 93.523438 218.921875 C 93.109375 218.921875 92.703125 218.878906 92.296875 218.800781 C 91.894531 218.71875 91.503906 218.601562 91.121094 218.445312 C 90.742188 218.285156 90.378906 218.09375 90.039062 217.863281 C 89.695312 217.636719 89.378906 217.375 89.085938 217.085938 C 88.796875 216.792969 88.535156 216.476562 88.308594 216.132812 C 88.078125 215.792969 87.886719 215.429688 87.726562 215.050781 C 87.570312 214.667969 87.453125 214.277344 87.371094 213.871094 C 87.289062 213.46875 87.25 213.0625 87.25 212.648438 C 87.25 212.238281 87.289062 211.828125 87.371094 211.425781 C 87.453125 211.023438 87.570312 210.628906 87.726562 210.25 C 87.886719 209.871094 88.078125 209.507812 88.308594 209.164062 C 88.535156 208.824219 88.796875 208.507812 89.085938 208.214844 C 89.378906 207.925781 89.695312 207.664062 90.039062 207.433594 C 90.378906 207.207031 90.742188 207.011719 91.121094 206.855469 C 91.503906 206.699219 91.894531 206.578125 92.296875 206.5 C 92.703125 206.417969 93.109375 206.378906 93.523438 206.378906 L 131.144531 206.378906 C 131.558594 206.378906 131.964844 206.417969 132.371094 206.5 C 132.773438 206.578125 133.164062 206.699219 133.546875 206.855469 C 133.925781 207.011719 134.289062 207.207031 134.628906 207.433594 C 134.972656 207.664062 135.289062 207.925781 135.582031 208.214844 C 135.871094 208.507812 136.132812 208.824219 136.359375 209.164062 C 136.589844 209.507812 136.78125 209.871094 136.941406 210.25 C 137.097656 210.628906 137.214844 211.023438 137.296875 211.425781 C 137.378906 211.828125 137.417969 212.238281 137.417969 212.648438 C 137.417969 213.0625 137.378906 213.46875 137.296875 213.871094 C 137.214844 214.277344 137.097656 214.667969 136.941406 215.050781 C 136.78125 215.429688 136.589844 215.792969 136.359375 216.132812 C 136.132812 216.476562 135.871094 216.792969 135.582031 217.085938 C 135.289062 217.375 134.972656 217.636719 134.628906 217.863281 C 134.289062 218.09375 133.925781 218.285156 133.546875 218.445312 C 133.164062 218.601562 132.773438 218.71875 132.371094 218.800781 C 131.964844 218.878906 131.558594 218.921875 131.144531 218.921875 Z M 131.144531 218.921875 " fill-opacity="1" fill-rule="nonzero"/><path fill="#c1bfbf" d="M 200.128906 225.191406 L 24.539062 225.191406 C 24.128906 225.191406 23.71875 225.152344 23.316406 225.070312 C 22.914062 224.992188 22.519531 224.871094 22.140625 224.714844 C 21.761719 224.558594 21.398438 224.363281 21.054688 224.136719 C 20.714844 223.90625 20.398438 223.644531 20.105469 223.355469 C 19.816406 223.0625 19.554688 222.746094 19.324219 222.40625 C 19.097656 222.0625 18.902344 221.699219 18.746094 221.320312 C 18.589844 220.941406 18.46875 220.546875 18.390625 220.144531 C 18.308594 219.742188 18.269531 219.332031 18.269531 218.921875 C 18.269531 218.507812 18.308594 218.101562 18.390625 217.699219 C 18.46875 217.292969 18.589844 216.902344 18.746094 216.519531 C 18.902344 216.140625 19.097656 215.777344 19.324219 215.4375 C 19.554688 215.09375 19.816406 214.777344 20.105469 214.488281 C 20.398438 214.195312 20.714844 213.933594 21.054688 213.707031 C 21.398438 213.476562 21.761719 213.285156 22.140625 213.125 C 22.519531 212.96875 22.914062 212.851562 23.316406 212.769531 C 23.71875 212.691406 24.128906 212.648438 24.539062 212.648438 L 200.128906 212.648438 C 200.539062 212.648438 200.949219 212.691406 201.351562 212.769531 C 201.757812 212.851562 202.148438 212.96875 202.527344 213.125 C 202.910156 213.285156 203.269531 213.476562 203.613281 213.707031 C 203.957031 213.933594 204.273438 214.195312 204.5625 214.488281 C 204.855469 214.777344 205.113281 215.09375 205.34375 215.4375 C 205.570312 215.777344 205.765625 216.140625 205.921875 216.519531 C 206.082031 216.902344 206.199219 217.292969 206.28125 217.699219 C 206.359375 218.101562 206.398438 218.507812 206.398438 218.921875 C 206.398438 219.332031 206.359375 219.742188 206.28125 220.144531 C 206.199219 220.546875 206.082031 220.941406 205.921875 221.320312 C 205.765625 221.699219 205.570312 222.0625 205.34375 222.40625 C 205.113281 222.746094 204.855469 223.0625 204.5625 223.355469 C 204.273438 223.644531 203.957031 223.90625 203.613281 224.136719 C 203.269531 224.363281 202.910156 224.558594 202.527344 224.714844 C 202.148438 224.871094 201.757812 224.992188 201.351562 225.070312 C 200.949219 225.152344 200.539062 225.191406 200.128906 225.191406 Z M 200.128906 225.191406 " fill-opacity="1" fill-rule="nonzero"/><path fill="#efefef" d="M 106.0625 168.753906 C 106.058594 169.574219 105.972656 170.386719 105.808594 171.191406 C 105.644531 171.996094 105.402344 172.777344 105.085938 173.539062 C 104.769531 174.296875 104.378906 175.015625 103.921875 175.699219 C 103.464844 176.378906 102.945312 177.011719 102.363281 177.59375 C 101.785156 178.175781 101.152344 178.695312 100.46875 179.152344 C 99.789062 179.609375 99.066406 179.996094 98.308594 180.3125 C 97.550781 180.632812 96.769531 180.871094 95.964844 181.039062 C 95.160156 181.203125 94.347656 181.289062 93.527344 181.292969 L 55.894531 181.292969 C 55.074219 181.292969 54.257812 181.210938 53.453125 181.046875 C 52.644531 180.882812 51.863281 180.644531 51.101562 180.328125 C 50.34375 180.011719 49.621094 179.625 48.9375 179.167969 C 48.253906 178.710938 47.621094 178.191406 47.039062 177.609375 C 46.457031 177.027344 45.9375 176.394531 45.480469 175.710938 C 45.023438 175.027344 44.636719 174.304688 44.320312 173.546875 C 44.007812 172.785156 43.765625 172.003906 43.605469 171.195312 C 43.441406 170.390625 43.359375 169.574219 43.359375 168.753906 Z M 106.0625 168.753906 " fill-opacity="1" fill-rule="nonzero"/><path fill="#efefef" d="M 156.230469 168.753906 C 156.226562 169.574219 156.140625 170.386719 155.976562 171.195312 C 155.8125 172 155.570312 172.78125 155.253906 173.539062 C 154.9375 174.296875 154.546875 175.019531 154.089844 175.699219 C 153.632812 176.382812 153.113281 177.015625 152.53125 177.597656 C 151.953125 178.175781 151.320312 178.695312 150.636719 179.15625 C 149.953125 179.613281 149.234375 180 148.476562 180.316406 C 147.71875 180.636719 146.9375 180.875 146.128906 181.039062 C 145.324219 181.207031 144.511719 181.289062 143.691406 181.296875 L 131.144531 181.296875 C 130.324219 181.292969 129.507812 181.210938 128.703125 181.050781 C 127.894531 180.886719 127.113281 180.648438 126.351562 180.332031 C 125.59375 180.015625 124.871094 179.628906 124.1875 179.171875 C 123.503906 178.710938 122.871094 178.191406 122.289062 177.609375 C 121.710938 177.03125 121.191406 176.398438 120.730469 175.714844 C 120.273438 175.027344 119.886719 174.308594 119.574219 173.546875 C 119.257812 172.789062 119.015625 172.003906 118.855469 171.199219 C 118.691406 170.390625 118.609375 169.578125 118.609375 168.753906 Z M 156.230469 168.753906 " fill-opacity="1" fill-rule="nonzero"/><path fill="#d3d1d1" d="M 148.832031 269.089844 L 246.777344 269.089844 C 247.46875 269.089844 248.160156 269.144531 248.84375 269.261719 C 249.53125 269.375 250.199219 269.546875 250.855469 269.773438 C 251.515625 269.996094 252.148438 270.277344 252.757812 270.609375 C 253.367188 270.9375 253.945312 271.316406 254.496094 271.746094 C 255.042969 272.171875 255.550781 272.640625 256.019531 273.152344 C 256.488281 273.667969 256.914062 274.214844 257.292969 274.796875 C 257.667969 275.378906 257.996094 275.988281 258.273438 276.625 C 258.550781 277.261719 258.773438 277.914062 258.945312 278.589844 L 269.109375 319.257812 L 149.585938 319.257812 Z M 148.832031 269.089844 " fill-opacity="1" fill-rule="nonzero"/><g clip-path="url(#91078903ad)"><path fill="#ccc6c6" d="M 149.585938 319.257812 L 269.109375 319.257812 L 258.945312 359.925781 C 258.773438 360.601562 258.550781 361.253906 258.273438 361.890625 C 257.996094 362.527344 257.667969 363.136719 257.292969 363.71875 C 256.914062 364.300781 256.488281 364.847656 256.019531 365.359375 C 255.550781 365.871094 255.042969 366.34375 254.492188 366.769531 C 253.945312 367.195312 253.367188 367.574219 252.757812 367.90625 C 252.148438 368.238281 251.511719 368.515625 250.855469 368.742188 C 250.199219 368.96875 249.53125 369.140625 248.84375 369.253906 C 248.160156 369.367188 247.46875 369.425781 246.777344 369.425781 L 149.960938 369.425781 Z M 149.585938 319.257812 " fill-opacity="1" fill-rule="nonzero"/></g><g clip-path="url(#1f6180b2d9)"><path fill="#dddbdb" d="M 193.859375 319.257812 L 5.726562 319.257812 L 15.886719 278.558594 C 16.054688 277.882812 16.277344 277.230469 16.554688 276.59375 C 16.832031 275.957031 17.15625 275.347656 17.535156 274.765625 C 17.914062 274.183594 18.339844 273.640625 18.808594 273.128906 C 19.277344 272.617188 19.785156 272.148438 20.332031 271.722656 C 20.882812 271.296875 21.460938 270.917969 22.070312 270.589844 C 22.683594 270.257812 23.316406 269.980469 23.972656 269.757812 C 24.628906 269.535156 25.300781 269.367188 25.984375 269.253906 C 26.667969 269.140625 27.359375 269.085938 28.050781 269.089844 L 171.53125 269.089844 C 172.222656 269.085938 172.914062 269.140625 173.597656 269.253906 C 174.285156 269.367188 174.953125 269.535156 175.609375 269.757812 C 176.269531 269.980469 176.902344 270.257812 177.511719 270.589844 C 178.121094 270.917969 178.703125 271.296875 179.25 271.722656 C 179.796875 272.148438 180.304688 272.617188 180.773438 273.128906 C 181.246094 273.640625 181.667969 274.183594 182.046875 274.765625 C 182.425781 275.347656 182.753906 275.957031 183.03125 276.59375 C 183.308594 277.230469 183.527344 277.882812 183.695312 278.558594 Z M 193.859375 319.257812 " fill-opacity="1" fill-rule="nonzero"/></g><g clip-path="url(#fe5ed32521)"><path fill="#d3d3d3" d="M 5.726562 319.257812 L 193.859375 319.257812 L 183.691406 359.925781 C 183.523438 360.601562 183.300781 361.253906 183.023438 361.890625 C 182.746094 362.527344 182.417969 363.136719 182.039062 363.71875 C 181.660156 364.300781 181.238281 364.851562 180.765625 365.363281 C 180.296875 365.875 179.789062 366.34375 179.242188 366.769531 C 178.695312 367.199219 178.117188 367.578125 177.503906 367.90625 C 176.894531 368.238281 176.261719 368.519531 175.605469 368.742188 C 174.949219 368.96875 174.277344 369.140625 173.59375 369.253906 C 172.90625 369.367188 172.21875 369.425781 171.523438 369.425781 L 28.0625 369.425781 C 27.367188 369.425781 26.675781 369.367188 25.992188 369.253906 C 25.308594 369.140625 24.636719 368.96875 23.980469 368.742188 C 23.324219 368.519531 22.691406 368.238281 22.078125 367.90625 C 21.46875 367.578125 20.890625 367.199219 20.34375 366.769531 C 19.796875 366.34375 19.289062 365.875 18.816406 365.363281 C 18.347656 364.851562 17.925781 364.300781 17.546875 363.71875 C 17.167969 363.136719 16.839844 362.527344 16.5625 361.890625 C 16.285156 361.253906 16.0625 360.601562 15.894531 359.925781 Z M 5.726562 319.257812 " fill-opacity="1" fill-rule="nonzero"/></g><path fill="#afafaf" d="M 262.839844 325.527344 L 187.585938 325.527344 C 187.175781 325.527344 186.765625 325.488281 186.363281 325.40625 C 185.960938 325.328125 185.566406 325.207031 185.1875 325.050781 C 184.804688 324.894531 184.445312 324.699219 184.101562 324.472656 C 183.761719 324.242188 183.445312 323.984375 183.152344 323.691406 C 182.859375 323.398438 182.601562 323.082031 182.371094 322.742188 C 182.144531 322.398438 181.949219 322.039062 181.792969 321.65625 C 181.636719 321.277344 181.515625 320.882812 181.4375 320.480469 C 181.355469 320.078125 181.316406 319.667969 181.316406 319.257812 C 181.316406 318.84375 181.355469 318.4375 181.4375 318.035156 C 181.515625 317.628906 181.636719 317.238281 181.792969 316.855469 C 181.949219 316.476562 182.144531 316.113281 182.371094 315.773438 C 182.601562 315.429688 182.859375 315.113281 183.152344 314.824219 C 183.445312 314.53125 183.761719 314.269531 184.101562 314.042969 C 184.445312 313.8125 184.804688 313.621094 185.1875 313.464844 C 185.566406 313.304688 185.960938 313.1875 186.363281 313.105469 C 186.765625 313.027344 187.175781 312.984375 187.585938 312.984375 L 262.839844 312.984375 C 263.25 312.984375 263.660156 313.027344 264.0625 313.105469 C 264.46875 313.1875 264.859375 313.304688 265.238281 313.464844 C 265.621094 313.621094 265.980469 313.8125 266.324219 314.042969 C 266.667969 314.269531 266.984375 314.53125 267.273438 314.824219 C 267.566406 315.113281 267.824219 315.429688 268.054688 315.773438 C 268.28125 316.113281 268.476562 316.476562 268.632812 316.855469 C 268.789062 317.238281 268.910156 317.628906 268.992188 318.035156 C 269.070312 318.4375 269.109375 318.84375 269.109375 319.257812 C 269.109375 319.667969 269.070312 320.078125 268.992188 320.480469 C 268.910156 320.882812 268.789062 321.277344 268.632812 321.65625 C 268.476562 322.039062 268.28125 322.398438 268.054688 322.742188 C 267.824219 323.082031 267.566406 323.398438 267.273438 323.691406 C 266.984375 323.984375 266.667969 324.242188 266.324219 324.472656 C 265.980469 324.699219 265.621094 324.894531 265.238281 325.050781 C 264.859375 325.207031 264.46875 325.328125 264.0625 325.40625 C 263.660156 325.488281 263.25 325.527344 262.839844 325.527344 Z M 262.839844 325.527344 " fill-opacity="1" fill-rule="nonzero"/><g clip-path="url(#02c9a38ce0)"><path fill="#e5e3e3" d="M 149.960938 269.089844 C 149.964844 270.734375 149.882812 272.371094 149.726562 274.007812 C 149.566406 275.644531 149.328125 277.269531 149.007812 278.878906 C 148.6875 280.492188 148.292969 282.085938 147.816406 283.660156 C 147.339844 285.234375 146.789062 286.777344 146.160156 288.296875 C 145.53125 289.816406 144.832031 291.300781 144.058594 292.75 C 143.28125 294.199219 142.4375 295.609375 141.527344 296.976562 C 140.613281 298.34375 139.636719 299.664062 138.59375 300.933594 C 137.550781 302.203125 136.449219 303.421875 135.285156 304.582031 C 134.125 305.746094 132.90625 306.847656 131.636719 307.890625 C 130.367188 308.933594 129.046875 309.910156 127.679688 310.824219 C 126.3125 311.734375 124.90625 312.578125 123.457031 313.351562 C 122.003906 314.125 120.519531 314.828125 119 315.457031 C 117.484375 316.082031 115.9375 316.636719 114.363281 317.113281 C 112.789062 317.585938 111.199219 317.984375 109.585938 318.304688 C 107.972656 318.621094 106.347656 318.863281 104.710938 319.019531 C 103.078125 319.179688 101.4375 319.257812 99.792969 319.257812 L 5.726562 319.257812 L 15.886719 278.558594 C 16.054688 277.882812 16.277344 277.230469 16.554688 276.59375 C 16.832031 275.957031 17.15625 275.347656 17.535156 274.765625 C 17.914062 274.183594 18.339844 273.640625 18.808594 273.128906 C 19.277344 272.617188 19.785156 272.148438 20.332031 271.722656 C 20.882812 271.296875 21.460938 270.917969 22.070312 270.589844 C 22.683594 270.257812 23.316406 269.980469 23.972656 269.757812 C 24.628906 269.535156 25.300781 269.367188 25.984375 269.253906 C 26.667969 269.140625 27.359375 269.085938 28.050781 269.089844 Z M 149.960938 269.089844 " fill-opacity="1" fill-rule="nonzero"/></g><path fill="#c1bfbf" d="M 118.609375 319.257812 L 80.980469 319.257812 C 80.566406 319.257812 80.160156 319.214844 79.757812 319.136719 C 79.351562 319.054688 78.960938 318.9375 78.582031 318.78125 C 78.199219 318.621094 77.839844 318.429688 77.496094 318.199219 C 77.15625 317.972656 76.835938 317.710938 76.546875 317.421875 C 76.253906 317.128906 75.996094 316.8125 75.765625 316.472656 C 75.539062 316.128906 75.34375 315.765625 75.1875 315.386719 C 75.03125 315.007812 74.910156 314.613281 74.832031 314.210938 C 74.75 313.808594 74.710938 313.398438 74.710938 312.988281 C 74.710938 312.578125 74.75 312.167969 74.832031 311.765625 C 74.910156 311.363281 75.03125 310.96875 75.1875 310.589844 C 75.34375 310.207031 75.539062 309.847656 75.765625 309.503906 C 75.996094 309.164062 76.253906 308.847656 76.546875 308.554688 C 76.835938 308.265625 77.15625 308.003906 77.496094 307.777344 C 77.839844 307.546875 78.199219 307.355469 78.582031 307.195312 C 78.960938 307.039062 79.351562 306.921875 79.757812 306.839844 C 80.160156 306.757812 80.566406 306.71875 80.980469 306.71875 L 118.609375 306.71875 C 119.019531 306.71875 119.425781 306.757812 119.832031 306.839844 C 120.234375 306.921875 120.625 307.039062 121.007812 307.195312 C 121.386719 307.355469 121.75 307.546875 122.089844 307.777344 C 122.433594 308.003906 122.75 308.265625 123.039062 308.554688 C 123.332031 308.847656 123.59375 309.164062 123.820312 309.503906 C 124.050781 309.847656 124.242188 310.207031 124.398438 310.589844 C 124.558594 310.96875 124.675781 311.363281 124.757812 311.765625 C 124.835938 312.167969 124.878906 312.578125 124.878906 312.988281 C 124.878906 313.398438 124.835938 313.808594 124.757812 314.210938 C 124.675781 314.613281 124.558594 315.007812 124.398438 315.386719 C 124.242188 315.765625 124.050781 316.128906 123.820312 316.472656 C 123.59375 316.8125 123.332031 317.128906 123.039062 317.421875 C 122.75 317.710938 122.433594 317.972656 122.089844 318.199219 C 121.75 318.429688 121.386719 318.621094 121.007812 318.78125 C 120.625 318.9375 120.234375 319.054688 119.832031 319.136719 C 119.425781 319.214844 119.019531 319.257812 118.609375 319.257812 Z M 118.609375 319.257812 " fill-opacity="1" fill-rule="nonzero"/><g clip-path="url(#425d0ca909)"><path fill="#c1bfbf" d="M 187.585938 325.527344 L 12 325.527344 C 11.585938 325.527344 11.179688 325.488281 10.773438 325.40625 C 10.371094 325.328125 9.980469 325.207031 9.597656 325.050781 C 9.21875 324.894531 8.855469 324.699219 8.515625 324.472656 C 8.171875 324.242188 7.855469 323.984375 7.5625 323.691406 C 7.273438 323.398438 7.011719 323.082031 6.785156 322.742188 C 6.554688 322.398438 6.363281 322.039062 6.203125 321.65625 C 6.046875 321.277344 5.929688 320.882812 5.847656 320.480469 C 5.765625 320.078125 5.726562 319.667969 5.726562 319.257812 C 5.726562 318.84375 5.765625 318.4375 5.847656 318.035156 C 5.929688 317.628906 6.046875 317.238281 6.203125 316.855469 C 6.363281 316.476562 6.554688 316.113281 6.785156 315.773438 C 7.011719 315.429688 7.273438 315.113281 7.5625 314.824219 C 7.855469 314.53125 8.171875 314.269531 8.515625 314.042969 C 8.855469 313.8125 9.21875 313.621094 9.597656 313.464844 C 9.980469 313.304688 10.371094 313.1875 10.773438 313.105469 C 11.179688 313.027344 11.585938 312.984375 12 312.984375 L 187.585938 312.984375 C 188 312.984375 188.40625 313.027344 188.808594 313.105469 C 189.214844 313.1875 189.605469 313.304688 189.988281 313.464844 C 190.367188 313.621094 190.726562 313.8125 191.070312 314.042969 C 191.414062 314.269531 191.730469 314.53125 192.019531 314.824219 C 192.3125 315.113281 192.570312 315.429688 192.800781 315.773438 C 193.03125 316.113281 193.222656 316.476562 193.378906 316.855469 C 193.539062 317.238281 193.65625 317.628906 193.738281 318.035156 C 193.816406 318.4375 193.859375 318.84375 193.859375 319.257812 C 193.859375 319.667969 193.816406 320.078125 193.738281 320.480469 C 193.65625 320.882812 193.539062 321.277344 193.378906 321.65625 C 193.222656 322.039062 193.03125 322.398438 192.800781 322.742188 C 192.570312 323.082031 192.3125 323.398438 192.019531 323.691406 C 191.730469 323.984375 191.414062 324.242188 191.070312 324.472656 C 190.726562 324.699219 190.367188 324.894531 189.988281 325.050781 C 189.605469 325.207031 189.214844 325.328125 188.808594 325.40625 C 188.40625 325.488281 188 325.527344 187.585938 325.527344 Z M 187.585938 325.527344 " fill-opacity="1" fill-rule="nonzero"/></g><path fill="#efefef" d="M 93.523438 269.089844 C 93.515625 269.910156 93.429688 270.722656 93.265625 271.53125 C 93.101562 272.335938 92.859375 273.117188 92.542969 273.875 C 92.226562 274.632812 91.839844 275.351562 91.378906 276.035156 C 90.921875 276.71875 90.402344 277.351562 89.820312 277.929688 C 89.242188 278.511719 88.609375 279.03125 87.925781 279.488281 C 87.242188 279.949219 86.523438 280.335938 85.765625 280.652344 C 85.007812 280.96875 84.226562 281.210938 83.421875 281.375 C 82.613281 281.539062 81.800781 281.625 80.980469 281.632812 L 43.355469 281.632812 C 42.53125 281.628906 41.714844 281.546875 40.910156 281.382812 C 40.101562 281.222656 39.320312 280.984375 38.558594 280.667969 C 37.800781 280.351562 37.078125 279.964844 36.394531 279.507812 C 35.710938 279.046875 35.078125 278.527344 34.496094 277.945312 C 33.914062 277.363281 33.394531 276.730469 32.9375 276.046875 C 32.480469 275.363281 32.09375 274.644531 31.777344 273.882812 C 31.460938 273.125 31.222656 272.339844 31.058594 271.535156 C 30.894531 270.726562 30.8125 269.910156 30.8125 269.089844 Z M 93.523438 269.089844 " fill-opacity="1" fill-rule="nonzero"/><path fill="#efefef" d="M 143.691406 269.089844 C 143.683594 269.910156 143.597656 270.722656 143.433594 271.53125 C 143.269531 272.335938 143.027344 273.117188 142.710938 273.875 C 142.394531 274.632812 142.007812 275.351562 141.546875 276.035156 C 141.089844 276.71875 140.570312 277.351562 139.988281 277.933594 C 139.40625 278.511719 138.777344 279.03125 138.09375 279.488281 C 137.410156 279.949219 136.691406 280.335938 135.933594 280.652344 C 135.171875 280.96875 134.390625 281.210938 133.585938 281.375 C 132.78125 281.539062 131.96875 281.625 131.144531 281.632812 L 118.609375 281.632812 C 117.785156 281.628906 116.96875 281.546875 116.164062 281.382812 C 115.355469 281.222656 114.574219 280.984375 113.8125 280.667969 C 113.054688 280.351562 112.332031 279.964844 111.648438 279.507812 C 110.964844 279.046875 110.332031 278.527344 109.75 277.945312 C 109.167969 277.363281 108.648438 276.730469 108.191406 276.046875 C 107.734375 275.363281 107.347656 274.644531 107.03125 273.882812 C 106.714844 273.125 106.476562 272.339844 106.3125 271.53125 C 106.152344 270.726562 106.066406 269.910156 106.066406 269.089844 Z M 143.691406 269.089844 " fill-opacity="1" fill-rule="nonzero"/><path fill="#f4957f" d="M 143.691406 93.5 C 143.683594 94.320312 143.597656 95.136719 143.433594 95.941406 C 143.269531 96.746094 143.027344 97.527344 142.710938 98.285156 C 142.394531 99.042969 142.007812 99.765625 141.546875 100.445312 C 141.089844 101.128906 140.570312 101.761719 139.988281 102.34375 C 139.40625 102.925781 138.777344 103.445312 138.09375 103.902344 C 137.410156 104.359375 136.691406 104.746094 135.933594 105.0625 C 135.175781 105.382812 134.390625 105.621094 133.585938 105.785156 C 132.78125 105.953125 131.96875 106.035156 131.144531 106.042969 L 93.523438 106.042969 C 92.699219 106.039062 91.882812 105.957031 91.078125 105.796875 C 90.269531 105.632812 89.488281 105.394531 88.726562 105.078125 C 87.96875 104.761719 87.246094 104.375 86.5625 103.917969 C 85.878906 103.460938 85.246094 102.941406 84.664062 102.359375 C 84.082031 101.777344 83.5625 101.144531 83.105469 100.460938 C 82.648438 99.777344 82.261719 99.054688 81.945312 98.292969 C 81.628906 97.535156 81.390625 96.75 81.226562 95.945312 C 81.0625 95.136719 80.980469 94.324219 80.980469 93.5 Z M 143.691406 93.5 " fill-opacity="1" fill-rule="nonzero"/><path fill="#f4957f" d="M 193.859375 93.5 C 193.851562 94.320312 193.765625 95.136719 193.601562 95.941406 C 193.4375 96.746094 193.195312 97.527344 192.878906 98.285156 C 192.5625 99.042969 192.175781 99.761719 191.71875 100.445312 C 191.257812 101.128906 190.742188 101.757812 190.160156 102.339844 C 189.578125 102.921875 188.945312 103.441406 188.265625 103.898438 C 187.582031 104.355469 186.863281 104.746094 186.105469 105.0625 C 185.347656 105.378906 184.566406 105.621094 183.761719 105.785156 C 182.957031 105.949219 182.140625 106.035156 181.320312 106.042969 L 168.773438 106.042969 C 167.949219 106.039062 167.136719 105.957031 166.328125 105.796875 C 165.523438 105.632812 164.738281 105.394531 163.980469 105.078125 C 163.21875 104.761719 162.5 104.375 161.8125 103.917969 C 161.128906 103.460938 160.496094 102.941406 159.914062 102.359375 C 159.335938 101.777344 158.8125 101.144531 158.355469 100.460938 C 157.898438 99.777344 157.511719 99.054688 157.195312 98.292969 C 156.878906 97.535156 156.640625 96.75 156.480469 95.945312 C 156.316406 95.136719 156.234375 94.324219 156.230469 93.5 Z M 193.859375 93.5 " fill-opacity="1" fill-rule="nonzero"/></svg>