<svg xmlns="http://www.w3.org/2000/svg" xmlns:xlink="http://www.w3.org/1999/xlink" width="227" zoomAndPan="magnify" viewBox="0 0 170.25 220.499992" height="294" preserveAspectRatio="xMidYMid meet" version="1.0"><defs><clipPath id="fe3e04ce81"><path d="M 0 0.339844 L 169.503906 0.339844 L 169.503906 91.746094 L 0 91.746094 Z M 0 0.339844 " clip-rule="nonzero"/></clipPath><clipPath id="4682dc3521"><path d="M 99.507812 148.183594 L 131 148.183594 L 131 218.933594 L 99.507812 218.933594 Z M 99.507812 148.183594 " clip-rule="nonzero"/></clipPath><clipPath id="47a61f407b"><path d="M 87 149.632812 L 146.171875 149.632812 L 146.171875 207.875 L 87 207.875 Z M 87 149.632812 " clip-rule="nonzero"/></clipPath><clipPath id="6b334f359e"><path d="M 90 153 L 146.171875 153 L 146.171875 207.875 L 90 207.875 Z M 90 153 " clip-rule="nonzero"/></clipPath><clipPath id="a996b8f1af"><path d="M 78.222656 157 L 85 157 L 85 160 L 78.222656 160 Z M 78.222656 157 " clip-rule="nonzero"/></clipPath></defs><g clip-path="url(#fe3e04ce81)"><path fill="#94d82d" d="M 151.980469 0.339844 L 17.527344 0.339844 C 7.851562 0.339844 0 8.175781 0 17.84375 L 0 74.117188 C 0 83.789062 7.851562 91.625 17.527344 91.625 L 151.980469 91.625 C 161.660156 91.625 169.511719 83.789062 169.511719 74.117188 L 169.511719 17.84375 C 169.511719 8.175781 161.660156 0.339844 151.980469 0.339844 " fill-opacity="1" fill-rule="nonzero"/></g><path fill="#e0e0e0" d="M 99.089844 91.636719 L 74.414062 91.636719 L 74.429688 91.625 L 99.085938 91.625 L 99.089844 91.636719 " fill-opacity="1" fill-rule="nonzero"/><path fill="#94d82d" d="M 99.085938 91.625 L 74.429688 91.625 L 91.902344 74.863281 L 92.429688 74.273438 C 93.644531 73.078125 95.3125 72.339844 97.152344 72.339844 L 97.289062 72.339844 C 99.136719 72.339844 100.808594 73.078125 102.023438 74.28125 L 102.554688 74.875 L 98.167969 80.296875 L 99.085938 91.625 " fill-opacity="1" fill-rule="nonzero"/><path fill="#ffcac0" d="M 139.472656 107.574219 L 139.460938 107.839844 L 138.527344 133.09375 C 138.355469 137.75 136.828125 142.042969 134.324219 145.601562 C 132.90625 147.628906 131.171875 149.421875 129.195312 150.898438 C 125.289062 153.835938 120.425781 155.570312 115.171875 155.570312 L 114.71875 155.570312 C 109.804688 155.570312 105.238281 154.054688 101.46875 151.453125 C 97.132812 148.46875 93.855469 144.054688 92.320312 138.871094 C 90.589844 133.023438 87.75 127.542969 83.585938 123.085938 C 80.535156 119.828125 77.113281 116.894531 73.359375 114.367188 C 70.027344 112.101562 68.414062 107.769531 70.113281 104.203125 C 70.136719 104.160156 70.15625 104.117188 70.179688 104.074219 C 71.871094 100.519531 77.121094 99.496094 81.4375 102.410156 C 84.636719 104.566406 87.628906 106.964844 90.429688 109.558594 L 90.429688 79.058594 C 90.429688 77.46875 90.976562 76.011719 91.902344 74.863281 C 92.066406 74.65625 92.242188 74.460938 92.429688 74.273438 C 93.644531 73.078125 95.3125 72.339844 97.152344 72.339844 L 97.289062 72.339844 C 99.136719 72.339844 100.808594 73.078125 102.023438 74.28125 C 102.214844 74.46875 102.390625 74.667969 102.554688 74.875 C 103.472656 76.019531 104.019531 77.476562 104.019531 79.058594 L 104.019531 100.585938 C 105.246094 99.25 107.007812 98.40625 108.972656 98.40625 L 109.109375 98.40625 C 111.96875 98.40625 114.402344 100.1875 115.375 102.695312 C 116.601562 101.035156 118.566406 99.953125 120.789062 99.953125 L 120.925781 99.953125 C 123.789062 99.953125 126.226562 101.742188 127.199219 104.261719 C 127.25 104.191406 127.296875 104.125 127.347656 104.0625 C 128.570312 102.511719 130.472656 101.511719 132.605469 101.511719 L 132.742188 101.511719 C 136.234375 101.511719 139.109375 104.175781 139.4375 107.574219 L 139.472656 107.574219 " fill-opacity="1" fill-rule="nonzero"/><g clip-path="url(#4682dc3521)"><path fill="#ffcac0" d="M 130.941406 218.933594 L 99.738281 218.933594 L 101.535156 148.246094 L 129.144531 148.246094 L 130.941406 218.933594 " fill-opacity="1" fill-rule="nonzero"/></g><path fill="#ffffff" d="M 33.90625 39.886719 C 33.90625 37.203125 32.871094 35.859375 30.453125 35.859375 C 29.800781 35.859375 29.109375 35.898438 28.339844 35.9375 L 28.339844 43.71875 C 28.761719 43.71875 29.761719 43.835938 30.722656 43.835938 C 32.753906 43.835938 33.90625 42.53125 33.90625 39.886719 Z M 23.273438 32.027344 C 24.578125 32.027344 27.417969 31.796875 30.070312 31.796875 C 36.25 31.796875 39.28125 33.980469 39.28125 39.960938 C 39.28125 44.066406 37.246094 46.171875 35.058594 46.980469 L 39.972656 57.253906 L 34.328125 57.253906 L 30.296875 47.667969 C 29.339844 47.667969 28.609375 47.59375 28.339844 47.59375 L 28.339844 57.253906 L 23.273438 57.253906 L 23.273438 32.027344 " fill-opacity="1" fill-rule="nonzero"/><path fill="#ffffff" d="M 48.113281 45.75 L 53.371094 45.75 C 53.371094 41.839844 52.296875 40.804688 50.875 40.804688 C 49.53125 40.804688 48.152344 42.03125 48.113281 45.75 Z M 57.785156 55.835938 C 57.210938 56.21875 54.832031 57.714844 51.03125 57.714844 C 46.578125 57.714844 42.96875 54.839844 42.96875 47.9375 C 42.96875 40.613281 46.539062 37.125 50.914062 37.125 C 55.292969 37.125 58.363281 39.847656 58.363281 46.289062 C 58.363281 47.667969 58.171875 48.78125 58.132812 48.972656 L 48.113281 48.972656 C 48.152344 52.386719 49.839844 53.804688 52.027344 53.804688 C 54.101562 53.804688 55.828125 52.882812 56.75 52.460938 L 57.785156 55.835938 " fill-opacity="1" fill-rule="nonzero"/><path fill="#ffffff" d="M 62.546875 52.730469 C 63.121094 52.960938 65.234375 53.957031 66.921875 53.957031 C 68.421875 53.957031 69.265625 53.613281 69.265625 52.15625 C 69.265625 49.011719 62.164062 48.015625 62.164062 42.722656 C 62.164062 39.234375 64.582031 37.125 68.804688 37.125 C 71.414062 37.125 73.105469 37.699219 73.835938 37.929688 C 73.71875 39.195312 73.605469 40.460938 73.527344 41.6875 C 72.988281 41.535156 71.183594 40.960938 69.609375 40.960938 C 68 40.960938 67.152344 41.417969 67.152344 42.492188 C 67.152344 45.40625 74.601562 46.328125 74.601562 51.847656 C 74.601562 55.105469 72.644531 57.714844 67.804688 57.714844 C 64.503906 57.714844 62.46875 56.5625 61.664062 56.179688 L 62.546875 52.730469 " fill-opacity="1" fill-rule="nonzero"/><path fill="#ffffff" d="M 83.164062 45.75 L 88.421875 45.75 C 88.421875 41.839844 87.347656 40.804688 85.925781 40.804688 C 84.582031 40.804688 83.203125 42.03125 83.164062 45.75 Z M 92.835938 55.835938 C 92.261719 56.21875 89.882812 57.714844 86.082031 57.714844 C 81.628906 57.714844 78.019531 54.839844 78.019531 47.9375 C 78.019531 40.613281 81.589844 37.125 85.964844 37.125 C 90.34375 37.125 93.414062 39.847656 93.414062 46.289062 C 93.414062 47.667969 93.222656 48.78125 93.183594 48.972656 L 83.164062 48.972656 C 83.203125 52.386719 84.890625 53.804688 87.078125 53.804688 C 89.152344 53.804688 90.878906 52.882812 91.800781 52.460938 L 92.835938 55.835938 " fill-opacity="1" fill-rule="nonzero"/><path fill="#ffffff" d="M 103.164062 57.253906 L 98.019531 57.253906 L 98.019531 37.546875 L 102.585938 37.546875 L 102.855469 40.191406 L 102.894531 40.191406 C 103.738281 38.390625 105.429688 37.085938 107.15625 37.085938 C 107.925781 37.085938 108.421875 37.355469 108.652344 37.429688 L 108.269531 41.996094 C 107.808594 41.878906 106.964844 41.574219 106.195312 41.574219 C 105.199219 41.574219 104.429688 42.148438 103.164062 43.679688 L 103.164062 57.253906 " fill-opacity="1" fill-rule="nonzero"/><path fill="#ffffff" d="M 117.292969 57.253906 L 111.496094 37.546875 L 116.792969 37.546875 L 118.671875 45.714844 L 120.09375 53.917969 L 121.515625 45.714844 L 123.394531 37.546875 L 128.691406 37.546875 L 122.894531 57.253906 L 117.292969 57.253906 " fill-opacity="1" fill-rule="nonzero"/><path fill="#ffffff" d="M 135.988281 45.75 L 141.246094 45.75 C 141.246094 41.839844 140.171875 40.804688 138.75 40.804688 C 137.40625 40.804688 136.027344 42.03125 135.988281 45.75 Z M 145.660156 55.835938 C 145.085938 56.21875 142.707031 57.714844 138.90625 57.714844 C 134.453125 57.714844 130.84375 54.839844 130.84375 47.9375 C 130.84375 40.613281 134.414062 37.125 138.789062 37.125 C 143.167969 37.125 146.238281 39.847656 146.238281 46.289062 C 146.238281 47.667969 146.046875 48.78125 146.007812 48.972656 L 135.988281 48.972656 C 136.027344 52.386719 137.714844 53.804688 139.902344 53.804688 C 141.976562 53.804688 143.703125 52.882812 144.625 52.460938 L 145.660156 55.835938 " fill-opacity="1" fill-rule="nonzero"/><g clip-path="url(#47a61f407b)"><path fill="#ee2945" d="M 146.054688 178.753906 C 146.054688 194.832031 133.007812 207.871094 116.90625 207.871094 C 100.808594 207.871094 87.753906 194.832031 87.753906 178.753906 C 87.753906 162.671875 100.808594 149.640625 116.90625 149.640625 C 133.007812 149.640625 146.054688 162.671875 146.054688 178.753906 " fill-opacity="1" fill-rule="nonzero"/></g><path fill="#ffffff" d="M 140.515625 178.753906 C 140.515625 191.777344 129.945312 202.335938 116.90625 202.335938 C 103.867188 202.335938 93.296875 191.777344 93.296875 178.753906 C 93.296875 165.734375 103.867188 155.175781 116.90625 155.175781 C 129.945312 155.175781 140.515625 165.734375 140.515625 178.753906 " fill-opacity="1" fill-rule="nonzero"/><path stroke-linecap="butt" transform="matrix(0.0366763, 0, 0, -0.0366311, 34.22319, 256.632482)" fill="none" stroke-linejoin="miter" d="M 2254.402538 2549.802137 L 2254.402538 2196.085287 " stroke="#24537c" stroke-width="50" stroke-opacity="1" stroke-miterlimit="10"/><g clip-path="url(#6b334f359e)"><path stroke-linecap="butt" transform="matrix(0.0366763, 0, 0, -0.0366311, 34.22319, 256.632482)" fill="none" stroke-linejoin="miter" d="M 2254.402538 2112.481425 L 2676.486673 1911.789501 " stroke="#24537c" stroke-width="50" stroke-opacity="1" stroke-miterlimit="10"/></g><path fill="#ee2945" d="M 119.476562 178.753906 C 119.476562 180.171875 118.324219 181.324219 116.90625 181.324219 C 115.488281 181.324219 114.335938 180.171875 114.335938 178.753906 C 114.335938 177.335938 115.488281 176.1875 116.90625 176.1875 C 118.324219 176.1875 119.476562 177.335938 119.476562 178.753906 " fill-opacity="1" fill-rule="nonzero"/><path fill="#ee2945" d="M 118.320312 198.90625 C 118.320312 199.6875 117.6875 200.320312 116.90625 200.320312 C 116.125 200.320312 115.492188 199.6875 115.492188 198.90625 C 115.492188 198.125 116.125 197.492188 116.90625 197.492188 C 117.6875 197.492188 118.320312 198.125 118.320312 198.90625 " fill-opacity="1" fill-rule="nonzero"/><path fill="#ee2945" d="M 118.320312 158.605469 C 118.320312 159.382812 117.6875 160.019531 116.90625 160.019531 C 116.125 160.019531 115.492188 159.382812 115.492188 158.605469 C 115.492188 157.824219 116.125 157.191406 116.90625 157.191406 C 117.6875 157.191406 118.320312 157.824219 118.320312 158.605469 " fill-opacity="1" fill-rule="nonzero"/><path fill="#ee2945" d="M 96.730469 180.167969 C 95.949219 180.167969 95.316406 179.535156 95.316406 178.753906 C 95.316406 177.972656 95.949219 177.339844 96.730469 177.339844 C 97.511719 177.339844 98.144531 177.972656 98.144531 178.753906 C 98.144531 179.535156 97.511719 180.167969 96.730469 180.167969 " fill-opacity="1" fill-rule="nonzero"/><path fill="#ee2945" d="M 137.082031 180.167969 C 136.300781 180.167969 135.667969 179.535156 135.667969 178.753906 C 135.667969 177.972656 136.300781 177.339844 137.082031 177.339844 C 137.863281 177.339844 138.496094 177.972656 138.496094 178.753906 C 138.496094 179.535156 137.863281 180.167969 137.082031 180.167969 " fill-opacity="1" fill-rule="nonzero"/><path fill="#ee2945" d="M 107.167969 196.457031 C 106.742188 197.113281 105.871094 197.304688 105.210938 196.882812 C 104.554688 196.457031 104.363281 195.582031 104.789062 194.925781 C 105.210938 194.273438 106.085938 194.082031 106.742188 194.507812 C 107.402344 194.925781 107.589844 195.804688 107.167969 196.457031 " fill-opacity="1" fill-rule="nonzero"/><path fill="#ee2945" d="M 129.023438 162.582031 C 128.597656 163.238281 127.726562 163.429688 127.066406 163.007812 C 126.414062 162.582031 126.222656 161.707031 126.644531 161.050781 C 127.066406 160.394531 127.945312 160.203125 128.601562 160.625 C 129.257812 161.050781 129.449219 161.925781 129.023438 162.582031 " fill-opacity="1" fill-rule="nonzero"/><path fill="#ee2945" d="M 100.179688 190.105469 C 99.5 190.5 98.632812 190.273438 98.242188 189.59375 C 97.847656 188.917969 98.082031 188.054688 98.753906 187.660156 C 99.429688 187.273438 100.296875 187.5 100.691406 188.171875 C 101.085938 188.851562 100.851562 189.714844 100.179688 190.105469 " fill-opacity="1" fill-rule="nonzero"/><path fill="#ee2945" d="M 135.058594 169.851562 C 134.382812 170.242188 133.515625 170.011719 133.125 169.335938 C 132.730469 168.664062 132.960938 167.792969 133.632812 167.402344 C 134.308594 167.011719 135.179688 167.238281 135.570312 167.914062 C 135.964844 168.589844 135.734375 169.453125 135.058594 169.851562 " fill-opacity="1" fill-rule="nonzero"/><path fill="#ee2945" d="M 98.335938 170.75 C 97.644531 170.390625 97.371094 169.539062 97.730469 168.84375 C 98.089844 168.148438 98.945312 167.878906 99.640625 168.238281 C 100.332031 168.597656 100.605469 169.449219 100.246094 170.144531 C 99.886719 170.835938 99.03125 171.109375 98.335938 170.75 " fill-opacity="1" fill-rule="nonzero"/><path fill="#ee2945" d="M 134.171875 189.273438 C 133.476562 188.914062 133.207031 188.058594 133.566406 187.367188 C 133.925781 186.675781 134.78125 186.402344 135.476562 186.757812 C 136.167969 187.121094 136.441406 187.976562 136.082031 188.667969 C 135.722656 189.359375 134.867188 189.628906 134.171875 189.273438 " fill-opacity="1" fill-rule="nonzero"/><path fill="#ee2945" d="M 105.363281 162.167969 C 104.964844 161.496094 105.183594 160.628906 105.855469 160.230469 C 106.527344 159.832031 107.394531 160.050781 107.796875 160.722656 C 108.195312 161.390625 107.976562 162.261719 107.304688 162.660156 C 106.632812 163.058594 105.765625 162.839844 105.363281 162.167969 " fill-opacity="1" fill-rule="nonzero"/><path fill="#ee2945" d="M 126.015625 196.792969 C 125.617188 196.117188 125.835938 195.25 126.507812 194.851562 C 127.179688 194.453125 128.046875 194.671875 128.449219 195.339844 C 128.847656 196.011719 128.628906 196.882812 127.957031 197.28125 C 127.285156 197.683594 126.417969 197.457031 126.015625 196.792969 " fill-opacity="1" fill-rule="nonzero"/><path stroke-linecap="butt" transform="matrix(0.0366763, 0, 0, -0.0366311, 34.22319, 256.632482)" fill="none" stroke-linejoin="miter" d="M 1390.743631 2676.061031 L 1716.43964 2676.061031 " stroke="#ee2945" stroke-width="50" stroke-opacity="1" stroke-miterlimit="10"/><g clip-path="url(#a996b8f1af)"><path stroke-linecap="butt" transform="matrix(0.0366763, 0, 0, -0.0366311, 34.22319, 256.632482)" fill="none" stroke-linejoin="miter" d="M 1202.760159 2676.061031 L 1335.147386 2676.061031 " stroke="#ee2945" stroke-width="50" stroke-opacity="1" stroke-miterlimit="10"/></g><path stroke-linecap="butt" transform="matrix(0.0366763, 0, 0, -0.0366311, 34.22319, 256.632482)" fill="none" stroke-linejoin="miter" d="M 1290.308269 2085.82203 L 1616.004278 2085.82203 " stroke="#ee2945" stroke-width="50" stroke-opacity="1" stroke-miterlimit="10"/><path stroke-linecap="butt" transform="matrix(0.0366763, 0, 0, -0.0366311, 34.22319, 256.632482)" fill="none" stroke-linejoin="miter" d="M 1265.279308 1545.809329 L 1397.666535 1545.809329 " stroke="#ee2945" stroke-width="50" stroke-opacity="1" stroke-miterlimit="10"/><path stroke-linecap="butt" transform="matrix(0.0366763, 0, 0, -0.0366311, 34.22319, 256.632482)" fill="none" stroke-linejoin="miter" d="M 1453.049768 1545.809329 L 1778.852283 1545.809329 " stroke="#ee2945" stroke-width="50" stroke-opacity="1" stroke-miterlimit="10"/></svg>