<svg xmlns="http://www.w3.org/2000/svg" xml:space="preserve" viewBox="0 0 62 67.8"><path d="M61.1 30.7c.3-.3.5-.7.7-1.1.1-.4.2-.8.3-1.1.1-.7 0-1.4-.1-2-.2-1.2-.7-2.3-1.1-3.4-1.9-4.2-5.5-7.7-7.4-9.1-1-.7-1.6-.9-1.5-.4.1.5.8 1.7 2.4 4 1 1.4 2 3 2.9 4.7.5.8.9 1.7 1.3 2.6.4.9.6 1.8.7 2.6.1.4 0 .8-.1 1-.1.2-.2.4-.4.5-.5.3-1.4.4-2.4.3-1.5-.2-3-.5-4.6-1-.2-1-.4-2-.7-3-1.1-4.3-2.6-8.4-4.6-12.4-1-2-2.2-3.9-3.5-5.7-1.3-1.8-2.9-3.5-4.8-4.9-.9-.7-2-1.3-3.2-1.7-1.2-.3-2.4-.6-3.7-.6-1.3 0-2.9.5-3.9 1.6S26 4.1 25.9 5.4c-.1 2.6.6 4.8 1.5 6.9 1 2.1 2.2 4 3.6 5.7 2.8 3.5 6.3 6.4 10.2 8.6 1.9 1.2 3.9 2.1 6 3 .7.3 1.4.5 2.1.8.4 2.5.6 5.1.5 7.6-.1 2.9-.6 5.7-1.9 8-.6 1.2-1.5 2.1-2.6 2.7-1.1.6-2.4 1-3.6 1.1-2.6.1-5.2-.7-7.6-2-1.2-.7-2.3-1.4-3.4-2.3-.6-.5-1.2-1-1.8-1.6 1.5-3.2 2.3-6.7 1.8-10.3-.4-2.3-1.2-4.7-3.2-6.6-.5-.5-1.1-.8-1.8-1.1-.7-.3-1.4-.4-2.2-.4-.8 0-1.5.3-2.1.7-.3.2-.6.3-.9.6-.3.3-.6.5-.8.9-.9 1.3-1 2.8-.9 4 .1 1.3.4 2.4.9 3.5.8 2.2 2 4.1 3.3 6 .9 1.2 1.8 2.4 2.9 3.4-.4.6-.7 1.2-1.2 1.7-1.1 1.6-2.4 2.9-3.8 4.1-1.3 1.2-2.7 2.2-4 3.2-2.6 2-4.9 3.7-6.8 5.2-2.6 2-4.4 3.5-5.5 4.4.4-1 .8-1.9 1.1-2.9.8-2 1.5-3.9 2.1-5.5C9 51.6 9.6 49.3 9.4 49c-.4-.6-1.2-1.1-1.6-.1L0 67.8l19.2-2c1.5-.2 2.9-3.1 1.1-2.9-2.1.2-4.9.5-8 .8-1.6.2-3.2.4-4.9.5-.4 0-.9.1-1.3.1.4-.3.8-.5 1.2-.9l10.4-7.6 2.6-1.9c.9-.7 1.8-1.3 2.6-2.1 1.7-1.5 3.2-3.2 4.5-5.1.1-.2.2-.4.4-.6 1.6 1.5 3.4 2.8 5.4 3.9 2 1.1 4.2 2 6.6 2.2 1.2.2 2.4.1 3.6-.1.6-.2 1.2-.2 1.8-.5l.9-.3c.3-.1.6-.3.8-.5 1.1-.6 2-1.6 2.8-2.5.7-1 1.3-2.1 1.7-3.2.8-2.2 1.1-4.5 1.2-6.7.1-2.4 0-4.8-.3-7.1.5.1.9.2 1.4.4.6.1 1.1.3 1.7.3.3 0 .6.1.9.1h.9c.3 0 .6 0 1-.1.3 0 .7-.1 1-.2.4-.1.7-.2 1.1-.4.2-.1.4-.2.5-.3 0 0 .1-.2.3-.4zM27.3 42.2c-1.6-1.8-3-3.7-4.1-5.7-.6-1.1-1.1-2.3-1.4-3.5-.3-1.2-.4-2.4-.1-3.2.1-.5.4-.8.7-1.1.4-.3.8-.5 1.3-.6.4-.1.9 0 1.3.1.4.2.8.4 1.2.8 1.5 1.4 2.2 3.7 2.4 5.8.1 2.6-.4 5.1-1.3 7.4zm21.4-14.9c-4.1-1.6-8.1-3.9-11.7-7-1.9-1.7-3.7-3.6-5.2-5.8-1.5-2.2-2.7-4.6-3.1-7.1-.2-1.2-.1-2.5.3-3.3.2-.4.5-.7.9-.9.3-.2.6-.2.8-.3.3 0 .5-.1.8-.1 1.1 0 2.5.4 3.6.9 1.1.6 2.2 1.4 3.2 2.4 3.9 3.9 6.6 9.4 8.6 14.9.7 2 1.3 4.1 1.8 6.3z"></path></svg>