<svg version="1.1" xmlns="http://www.w3.org/2000/svg" viewBox="0 0 223.2 209.2" xml:space="preserve"><path d="M148.8,37.3c5.4,18.9,17,33.8,37.6,37.2c14.5,2.4,29.8,10.3,34.5,25.2c5.1,16.2,1.6,36.6-9.6,49.1c-19.9,22.1-61,27.7-91.5,19.6C64.9,153.7,45.5,89,62.2,40.1C67.4,24.9,74.1,9.6,90,3C116.6-8.1,142.1,13.8,148.8,37.3z" fill="#c0eb75"/><path  d="M75.2,73.8c33.2,0,60.2,27,60.2,60.2c0,33.2-27,60.2-60.2,60.2C42,194.1,15,167.1,15,134C15,100.8,42,73.8,75.2,73.8L75.2,73.8z M75.2,58.8C33.7,58.8,0,92.4,0,134c0,41.5,33.7,75.2,75.2,75.2c41.5,0,75.2-33.7,75.2-75.2C150.4,92.4,116.7,58.8,75.2,58.8L75.2,58.8z" fill="#11111122" /></svg>