<svg xmlns="http://www.w3.org/2000/svg" viewBox="0 0 1000 500" xml:space="preserve" enable-background="new 0 0 1000 500"><g transform="scale(1.13122)"><path fill="transparent" d="M0 0h884v442H0z"></path><path fill="#94d82d" d="M0 0h221v221H0z"></path><path fill="#82c91e" d="M221 0v221H0zM221 0h221v221H221z"></path><path fill="#94d82d" d="M221 221C221 98.9 319.9 0 442 0L221 221c122.1 0 221-98.9 221-221"></path><path fill="transparent" d="M442 0h221v221H442z"></path><path fill="#82c91e" d="M442 0h110.5v110.5H442z"></path><path fill="#94d82d" d="M442 110.5C442 49.5 491.5 0 552.5 0v27.6c-45.8 0-82.9 37.1-82.9 82.9"></path><path fill="#82c91e" d="M552.5 0H663v110.5H552.5z"></path><path fill="#82c91e" d="M552.5 0C613.5 0 663 49.5 663 110.5h-27.6c0-45.8-37.1-82.9-82.9-82.9M442 110.5h110.5V221H442z"></path><path fill="#94d82d" d="M442 110.5c0 61 49.5 110.5 110.5 110.5v-27.6c-45.8 0-82.9-37.1-82.9-82.9"></path><path fill="#82c91e" d="M552.5 110.5H663V221H552.5z"></path><path fill="#94d82d" d="M552.5 221c61 0 110.5-49.5 110.5-110.5h-27.6c0 45.8-37.1 82.9-82.9 82.9M663 0h221v221H663z"></path><path fill="#82c91e" d="M663 0c122.1 0 221 98.9 221 221H663"></path><path fill="transparent" d="M0 221h221v221H0z"></path><path fill="#82c91e" d="M0 221h110.5v110.5H0z"></path><circle fill="#82c91e" cx="55.2" cy="276.2" r="55.2"></circle><path fill="#82c91e" d="M110.5 221H221v110.5H110.5z"></path><path fill="#94d82d" d="M110.5 221H221v110.5H110.5zM0 331.5h110.5V442H0z"></path><circle fill="#94d82d" cx="55.2" cy="386.7" r="55.2"></circle><path fill="#82c91e" d="M110.5 331.5H221V442H110.5z"></path><path fill="#94d82d" d="M110.5 331.5H221V442H110.5zM221 221h221v221H221z"></path><path fill="#82c91e" d="M221 442c0-122.1 98.9-221 221-221L221 442c122.1 0 221-98.9 221-221"></path><path fill="#94d82d" d="M442 221h221v221H442z"></path><path fill="#94d82d" d="M442 442c0-122.1 98.9-221 221-221v221"></path><path fill="transparent" d="M663 221h221v221H663z"></path><path fill="#82c91e" d="M663 221h110.5v110.5H663z"></path><path fill="#82c91e" d="M663 221c61 0 110.5 49.5 110.5 110.5H663M773.5 221H884v110.5H773.5z"></path><path fill="#82c91e" d="M773.5 331.5c0-61 49.5-110.5 110.5-110.5v110.5"></path><path fill="#94d82d" d="M663 331.5h110.5V442H663z"></path><path fill="#82c91e" d="M663 442c61 0 110.5-49.5 110.5-110.5H663"></path><path fill="#94d82d" d="M773.5 331.5H884V442H773.5z"></path><path fill="#82c91e" d="M773.5 331.5c0 61 49.5 110.5 110.5 110.5V331.5"></path></g></svg>