<svg xmlns="http://www.w3.org/2000/svg" viewBox="0 0 1000 250" xml:space="preserve" enable-background="new 0 0 1000 250"><g transform="scale(.83472)"><path fill="transparent" d="M0 0h1198v299.5H0z"></path><path fill="transparent" d="M0 0h299.5v299.5H0z"></path><path fill="#94d82d" d="M0 0h149.7v149.7H0z"></path><path fill="#82c91e" d="M0 149.7C0 67 67 0 149.7 0v37.4c-62 0-112.3 50.3-112.3 112.3M149.7 0h149.7v149.7H149.7z"></path><path fill="#94d82d" d="M149.7 0c82.7 0 149.7 67 149.7 149.7H262c0-62-50.3-112.3-112.3-112.3"></path><path fill="#82c91e" d="M0 149.7h149.7v149.7H0z"></path><path fill="#94d82d" d="M0 149.7c0 82.7 67 149.7 149.7 149.7V262c-62 0-112.3-50.3-112.3-112.3M149.7 149.7h149.7v149.7H149.7z"></path><path fill="#94d82d" d="M149.7 299.5c82.7 0 149.7-67 149.7-149.7H262c0 62-50.3 112.3-112.3 112.3"></path><path fill="#82c91e" d="M299.5 0H599v299.5H299.5z"></path><path fill="#82c91e" d="M299.5 0H599v299.5H299.5z"></path><path fill="transparent" d="M599 0h299.5v299.5H599z"></path><path fill="#82c91e" d="M599 0h149.7v149.7H599z"></path><circle fill="#82c91e" cx="673.9" cy="74.9" r="74.9"></circle><path fill="#82c91e" d="M748.7 0h149.7v149.7H748.7z"></path><path fill="#94d82d" d="M748.7 0h149.7v149.7H748.7z"></path><path fill="#82c91e" d="M599 149.7h149.7v149.7H599z"></path><circle fill="#94d82d" cx="673.9" cy="224.6" r="74.9"></circle><path fill="#82c91e" d="M748.7 149.7h149.7v149.7H748.7z"></path><path fill="#82c91e" d="M748.7 149.7h149.7v149.7H748.7z"></path><path fill="#94d82d" d="M898.5 0H1198v299.5H898.5z"></path><path fill="#82c91e" d="M898.5 299.5C898.5 134.1 1032.6 0 1198 0L898.5 299.5C1063.9 299.5 1198 165.4 1198 0"></path></g></svg>